<svg width="1112" height="806" viewBox="0 0 1112 806" fill="none" xmlns="http://www.w3.org/2000/svg">
<g clip-path="url(#clip0_197_234)">
<g opacity="0.4">
<path d="M1093.19 197.517L556 0.525635L18.8109 197.517C18.8109 197.517 -5.25597 209.577 1.85344 244.749C8.96285 279.92 78.9642 601.457 78.9642 601.457C83.8158 619.189 93.0259 635.426 105.756 648.689C126.531 669.767 556 805.475 556 805.475L1006.24 648.731C1018.97 635.467 1028.18 619.231 1033.04 601.499C1033.04 601.499 1103.04 279.962 1110.15 244.79C1117.26 209.619 1093.19 197.517 1093.19 197.517Z" stroke="white" stroke-width="0.79" stroke-miterlimit="10"/>
<path d="M1053.76 260.903L587.633 42.1978L90.555 176.632C90.555 176.632 68.0373 185.553 71.6473 217.641C75.2574 249.728 112.796 543.507 112.796 543.507C115.757 559.782 122.742 575.058 133.115 587.945C150.086 608.497 524.45 763.775 524.547 763.803L940.517 658.578C952.946 647.681 962.455 633.851 968.18 618.345C968.18 618.345 1056.16 335.548 1065.29 304.581C1074.42 273.614 1053.76 260.903 1053.76 260.903Z" stroke="white" stroke-width="0.71" stroke-miterlimit="10"/>
<path d="M1014.81 313.598L613.996 80.9375L157.776 162.539C157.776 162.539 136.891 168.777 137.61 197.821C138.329 226.866 148.938 493.204 148.938 493.204C150.307 508.048 155.371 522.312 163.669 534.696C177.279 554.447 500.729 723.043 500.771 723.057L881.982 661.344C894.003 652.558 903.637 640.905 910.004 627.445C910.004 627.445 1011.07 380.802 1021.68 353.749C1032.29 326.696 1014.81 313.598 1014.81 313.598Z" stroke="white" stroke-width="0.64" stroke-miterlimit="10"/>
<path d="M976.907 356.723L635.794 116.704L220.364 154.047C220.364 154.047 201.152 158.002 199.52 184.101C197.888 210.2 186.504 449.831 186.504 449.831C186.577 463.232 190.001 476.402 196.463 488.142C207.113 506.924 483.896 683.446 483.924 683.46L830.542 658.025C842.012 651.089 851.564 641.395 858.33 629.824C858.33 629.824 968.29 416.623 979.936 393.194C991.583 369.765 976.907 356.723 976.907 356.723Z" stroke="white" stroke-width="0.57" stroke-miterlimit="10"/>
<path d="M939.811 391.935L652.821 149.897L277.433 150.783C277.433 150.783 259.895 152.816 256.381 176.093C252.868 199.37 223.863 413.318 223.863 413.318C222.876 425.338 224.911 437.414 229.783 448.448C237.861 466.123 472.167 646.089 472.195 646.117L784.967 650.57C795.793 645.253 805.117 637.313 812.091 627.473C812.091 627.473 927.404 444.907 939.673 424.853C951.942 404.798 939.811 391.935 939.811 391.935Z" stroke="white" stroke-width="0.52" stroke-miterlimit="10"/>
<path d="M903.711 420.662L665.38 181.21L328.748 152.553C328.748 152.553 312.855 152.996 307.89 173.59C302.924 194.184 260.13 383.72 260.13 383.72C258.304 394.421 259.183 405.409 262.689 415.683C268.539 432.155 464.504 611.9 464.518 611.927L744.593 640.391C754.716 636.47 763.698 630.08 770.721 621.802C770.721 621.802 888.427 467.189 901 450.149C913.573 433.11 903.711 420.662 903.711 420.662Z" stroke="white" stroke-width="0.46" stroke-miterlimit="10"/>
<path d="M868.676 443.289L673.776 209.909L374.198 157.809C374.198 157.809 359.924 156.965 353.852 175.042C347.78 193.119 294.584 359.71 294.584 359.71C292.106 369.158 292.03 379.076 294.363 388.561C298.319 403.775 459.912 580.31 459.926 580.338L708.797 627.833C718.186 625.113 726.745 620.087 733.694 613.214C733.694 613.214 851.359 483.827 863.973 469.526C876.587 455.225 868.676 443.289 868.676 443.289Z" stroke="white" stroke-width="0.42" stroke-miterlimit="10"/>
<path d="M835.051 460.564L678.617 236.036L414.116 165.831C414.116 165.831 401.377 163.95 394.517 179.661C387.656 195.373 326.867 340.568 326.867 340.568C323.904 348.845 323.057 357.731 324.405 366.418C326.756 380.387 457.782 551.321 457.81 551.349L677.22 613.449C685.866 611.756 693.95 607.923 700.733 602.301C700.733 602.301 816.379 495.528 828.799 483.702C841.22 471.877 835.051 460.564 835.051 460.564Z" stroke="white" stroke-width="0.38" stroke-miterlimit="10"/>
<path d="M803.128 473.219L680.484 259.644L448.847 175.955C448.847 175.955 437.574 173.271 430.188 186.839C422.802 200.407 356.881 325.797 356.881 325.797C353.585 332.989 352.14 340.891 352.676 348.784C353.686 361.494 457.796 525.029 457.796 525.042L649.64 597.93C657.509 597.08 665.041 594.275 671.549 589.77C671.549 589.77 783.584 503.107 795.673 493.481C807.762 483.855 803.128 473.219 803.128 473.219Z" stroke="white" stroke-width="0.34" stroke-miterlimit="10"/>
<path d="M773.155 481.918L679.944 280.819L478.834 187.614C478.834 187.614 468.944 184.322 461.254 195.912C453.564 207.502 384.655 314.746 384.655 314.746C381.15 320.938 379.248 327.908 379.122 335.022C379.039 346.487 459.511 501.281 459.525 501.295L625.808 581.693C632.922 581.567 639.892 579.665 646.085 576.161C646.085 576.161 753.348 507.256 764.925 499.566C776.502 491.876 773.155 481.918 773.155 481.918Z" stroke="white" stroke-width="0.31" stroke-miterlimit="10"/>
<path d="M745.091 487.285L677.316 299.671L504.312 200.338C504.312 200.338 495.695 196.618 487.894 206.396C480.093 216.174 409.898 306.932 409.898 306.932C406.248 312.203 403.975 318.303 403.286 324.677C402.304 334.953 462.319 480.051 462.333 480.065L605.116 565.193C611.51 565.62 617.91 564.441 623.733 561.763C623.733 561.763 725.312 508.39 736.294 502.415C747.276 496.441 745.091 487.285 745.091 487.285Z" stroke="white" stroke-width="0.27" stroke-miterlimit="10"/>
<path d="M719.212 489.843L673.153 316.309L525.833 213.671C525.833 213.671 518.406 209.66 510.619 217.82C502.832 225.981 432.803 301.842 432.803 301.842C429.117 306.282 426.602 311.574 425.486 317.236C423.798 326.378 466.219 461.158 466.233 461.186L587.577 548.707C593.276 549.59 599.106 549.034 604.535 547.089C604.535 547.089 699.793 507.201 710.111 502.706C720.429 498.211 719.212 489.843 719.212 489.843Z" stroke="white" stroke-width="0.25" stroke-miterlimit="10"/>
<path d="M695.463 490.134L667.8 330.942L543.745 227.35C543.745 227.35 537.397 223.2 529.803 229.867C522.21 236.533 453.439 299.104 453.439 299.104C449.786 302.794 447.114 307.339 445.666 312.326C443.439 320.389 470.908 444.561 470.908 444.575L572.833 532.553C577.875 533.795 583.148 533.757 588.172 532.442C588.172 532.442 676.694 504.158 686.376 500.922C696.058 497.685 695.463 490.134 695.463 490.134Z" stroke="white" stroke-width="0.22" stroke-miterlimit="10"/>
<path d="M673.886 488.474L661.548 343.528L558.476 240.931C558.476 240.931 553.109 236.686 545.778 242.093C538.448 247.501 471.877 298.177 471.877 298.177C468.311 301.199 465.558 305.064 463.868 309.421C461.24 316.475 476.123 429.956 476.123 429.984L560.606 516.868C565.03 518.375 569.762 518.75 574.368 517.961C574.368 517.961 655.974 499.539 664.826 497.409C673.679 495.279 673.886 488.474 673.886 488.474Z" stroke="white" stroke-width="0.2" stroke-miterlimit="10"/>
<path d="M654.411 485.39L654.716 354.509L570.343 254.444C570.343 254.444 565.862 250.212 558.863 254.444C551.864 258.676 488.225 298.979 488.225 298.979C484.795 301.412 482.028 304.664 480.175 308.439C477.271 314.552 481.711 417.481 481.711 417.495L550.633 502.014C554.482 503.713 558.695 504.421 562.888 504.075C562.888 504.075 637.495 493.965 645.601 492.734C653.706 491.503 654.411 485.39 654.411 485.39Z" stroke="white" stroke-width="0.18" stroke-miterlimit="10"/>
<path d="M636.97 481.185L647.509 363.859L579.735 267.528C579.735 267.528 576.056 263.379 569.444 266.67C562.833 269.962 502.61 301.012 502.61 301.012C499.342 302.921 496.604 305.617 494.643 308.854C491.559 314.11 487.465 406.734 487.465 406.748L542.639 487.935C545.958 489.743 549.675 490.693 553.455 490.701C553.455 490.701 621.133 487.492 628.505 487.022C635.877 486.551 636.97 481.185 636.97 481.185Z" stroke="white" stroke-width="0.16" stroke-miterlimit="10"/>
<path d="M621.7 475.971L640.372 371.618L587.121 279.907C587.121 279.907 584.147 275.91 577.951 278.33C571.754 280.75 515.335 303.875 515.335 303.875C512.254 305.347 509.591 307.568 507.59 310.334C504.408 314.802 493.468 397.468 493.468 397.468L536.567 474.588C539.394 476.485 542.651 477.645 546.041 477.963C546.041 477.963 606.969 480.383 613.622 480.549C620.275 480.715 621.7 475.971 621.7 475.971Z" stroke="white" stroke-width="0.15" stroke-miterlimit="10"/>
<path d="M608.422 470.245L633.318 378.146L592.792 291.773C592.792 291.773 590.441 287.956 584.7 289.643C578.96 291.331 526.608 307.623 526.608 307.623C523.734 308.686 521.171 310.45 519.153 312.755C515.944 316.516 499.65 389.819 499.65 389.833L532.237 462.348C534.644 464.278 537.498 465.572 540.536 466.11C540.536 466.11 594.977 473.025 600.925 473.73C606.872 474.436 608.422 470.245 608.422 470.245Z" stroke="white" stroke-width="0.13" stroke-miterlimit="10"/>
<path d="M597.121 464.367L626.679 383.748L597.121 303.128C597.121 303.128 595.309 299.519 590.026 300.584C584.742 301.648 536.484 312.16 536.484 312.16C533.821 312.89 531.382 314.274 529.388 316.185C526.221 319.297 505.875 383.748 505.875 383.762L529.388 451.339C531.382 453.249 533.821 454.633 536.484 455.363C536.484 455.363 584.742 465.875 590.026 466.94C595.309 468.005 597.121 464.367 597.121 464.367Z" stroke="white" stroke-width="0.12" stroke-miterlimit="10"/>
<path d="M587.619 458.447L620.441 388.478L600.261 313.875C600.261 313.875 598.878 310.5 594.106 311.039C589.334 311.579 545.198 317.222 545.198 317.222C542.757 317.665 540.465 318.711 538.531 320.265C535.446 322.809 512.14 379.004 512.14 379.004L527.936 441.436C529.573 443.301 531.651 444.727 533.98 445.585C533.98 445.585 576.429 458.793 581.077 460.162C585.724 461.532 587.619 458.447 587.619 458.447Z" stroke="white" stroke-width="0.11" stroke-miterlimit="10"/>
<path d="M579.707 452.597L614.632 392.447L602.391 323.971C602.391 323.971 601.45 320.832 597.094 320.942C592.737 321.053 552.75 322.643 552.75 322.643C550.523 322.85 548.383 323.611 546.525 324.856C543.565 326.903 518.254 375.449 518.254 375.449L527.521 432.667C528.847 434.451 530.596 435.876 532.611 436.816C532.611 436.816 569.638 452.03 573.691 453.579C577.743 455.128 579.707 452.597 579.707 452.597Z" stroke="white" stroke-width="0.1" stroke-miterlimit="10"/>
<path d="M573.234 446.913L609.196 395.739L603.594 333.39C603.594 333.39 603 330.499 599.085 330.264C595.171 330.029 559.195 328.314 559.195 328.314C557.183 328.324 555.205 328.837 553.441 329.808C550.675 331.412 524.132 372.946 524.118 372.946L527.936 424.963C528.98 426.677 530.434 428.103 532.168 429.112C532.168 429.112 564.174 445.612 567.688 447.369C571.201 449.125 573.234 446.913 573.234 446.913Z" stroke="white" stroke-width="0.09" stroke-miterlimit="10"/>
<path d="M567.95 441.339L604.272 398.27L604.134 341.924C603.94 341.05 603.462 340.266 602.773 339.695C602.084 339.124 601.224 338.798 600.33 338.77C596.831 338.245 564.728 333.888 564.728 333.888C562.925 333.739 561.113 334.044 559.458 334.773C556.802 335.99 529.789 371.148 529.789 371.162L529.125 418.103C529.926 419.727 531.119 421.125 532.597 422.17C532.597 422.17 559.997 439.472 563.026 441.325C563.73 441.872 564.595 442.17 565.486 442.173C566.377 442.175 567.244 441.882 567.95 441.339Z" stroke="white" stroke-width="0.08" stroke-miterlimit="10"/>
<path d="M563.635 435.931L599.597 400.165L603.899 349.641C603.794 348.844 603.428 348.105 602.857 347.539C602.286 346.973 601.543 346.613 600.745 346.515C597.661 345.769 569.209 339.351 569.209 339.351C567.602 339.078 565.952 339.211 564.41 339.738C561.934 340.624 534.962 370.028 534.948 370.028L530.674 412.059C531.255 413.579 532.206 414.929 533.441 415.987C533.441 415.987 556.65 433.649 559.209 435.544C559.799 436.091 560.554 436.425 561.356 436.495C562.157 436.565 562.959 436.367 563.635 435.931Z" stroke="white" stroke-width="0.07" stroke-miterlimit="10"/>
<path d="M560.232 430.662L595.268 401.409L603.082 356.446C603.054 355.721 602.785 355.026 602.316 354.472C601.847 353.918 601.206 353.537 600.496 353.389C597.73 352.476 572.833 344.482 572.833 344.482C571.412 344.122 569.924 344.122 568.504 344.482C566.221 345.077 539.72 369.377 539.72 369.377L532.597 406.72C533.007 408.129 533.763 409.413 534.796 410.455C534.796 410.455 554.16 428.117 556.36 430.012C556.846 430.527 557.488 430.87 558.187 430.987C558.886 431.105 559.604 430.99 560.232 430.662Z" stroke="white" stroke-width="0.06" stroke-miterlimit="10"/>
<path d="M557.646 425.613L591.353 402.101L601.893 362.407C601.924 361.755 601.737 361.111 601.362 360.578C600.986 360.044 600.443 359.651 599.818 359.461C597.453 358.438 575.668 349.309 575.668 349.309C574.424 348.862 573.088 348.734 571.782 348.936C569.679 349.295 544.022 368.949 544.022 368.963L534.699 401.894C534.954 403.191 535.529 404.403 536.373 405.421C536.373 405.421 552.404 422.778 554.174 424.645C554.563 425.17 555.115 425.55 555.744 425.726C556.373 425.901 557.042 425.861 557.646 425.613Z" stroke="white" stroke-width="0.06" stroke-miterlimit="10"/>
<path d="M555.737 420.828L587.813 402.419L600.372 367.649C600.441 367.072 600.319 366.489 600.024 365.989C599.729 365.489 599.278 365.1 598.739 364.882C596.706 363.776 577.881 353.818 577.881 353.818C576.804 353.322 575.621 353.104 574.437 353.182C572.529 353.334 547.978 368.949 547.978 368.949L537.037 397.744C537.166 398.927 537.589 400.059 538.268 401.036C538.268 401.036 551.27 417.854 552.722 419.666C553.025 420.166 553.486 420.551 554.031 420.762C554.577 420.972 555.177 420.995 555.737 420.828Z" stroke="white" stroke-width="0.05" stroke-miterlimit="10"/>
<path d="M554.437 416.319L584.617 402.336L598.601 372.157C598.717 371.641 598.657 371.102 598.432 370.623C598.206 370.145 597.828 369.755 597.356 369.516C595.614 368.368 579.514 358.022 579.514 358.022C578.586 357.492 577.539 357.202 576.471 357.179C574.756 357.179 551.574 369.239 551.574 369.239L539.513 394.134C539.536 395.203 539.826 396.249 540.357 397.177C540.357 397.177 550.703 413.276 551.851 415.019C552.079 415.49 552.456 415.873 552.923 416.108C553.391 416.343 553.923 416.417 554.437 416.319Z" stroke="white" stroke-width="0.05" stroke-miterlimit="10"/>
</g>
</g>
<defs>
<clipPath id="clip0_197_234">
<rect width="1112" height="806" fill="white"/>
</clipPath>
</defs>
</svg>
