<svg width="13" height="13" viewBox="0 0 13 23" fill="none" xmlns="http://www.w3.org/2000/svg">
<path d="M3.28229 13.5285H1.22512C0.511411 13.5285 0.0496162 13.1452 0.0267164 12.4361C-0.00890548 11.2428 -0.00890548 10.0494 0.0267164 8.85605C0.0227673 8.70956 0.0491516 8.56385 0.104218 8.42815C0.159285 8.29245 0.241826 8.16971 0.346602 8.06773C0.451378 7.96574 0.576113 7.88674 0.71289 7.83571C0.849667 7.78468 0.995505 7.76274 1.14117 7.77129C1.49611 7.75212 1.85487 7.77129 2.20982 7.77129H3.28611C3.28611 7.00468 3.26703 6.29557 3.28611 5.58262C3.28972 4.19639 3.78958 2.8577 4.69445 1.8109C5.17337 1.25718 5.76324 0.81119 6.42552 0.502074C7.08779 0.192959 7.80757 0.0276806 8.5378 0.0170358C9.65226 -0.0212947 10.7667 0.0170358 11.8812 0.0170358C12.0259 0.00632596 12.1713 0.0260897 12.3079 0.075079C12.4446 0.124068 12.5696 0.201201 12.6749 0.30152C12.7802 0.401838 12.8634 0.523131 12.9193 0.65764C12.9752 0.792148 13.0025 0.936906 12.9994 1.08262C12.9994 2.18654 12.9994 3.29045 12.9994 4.39437C13.004 4.53704 12.9801 4.67919 12.9292 4.81244C12.8782 4.94569 12.8012 5.06734 12.7026 5.17022C12.6041 5.27311 12.4861 5.35514 12.3555 5.41148C12.2249 5.46783 12.0844 5.49734 11.9422 5.49829C11.1789 5.54046 10.4156 5.54812 9.67133 5.55962C9.31638 5.55962 9.1561 5.72444 9.16373 6.08091C9.16373 6.62904 9.16373 7.17717 9.16373 7.77896H11.0721C11.3239 7.77896 11.5797 7.77896 11.8354 7.79812C11.9707 7.79333 12.1055 7.81649 12.2315 7.86618C12.3575 7.91586 12.472 7.99102 12.5679 8.08697C12.6638 8.18292 12.739 8.29763 12.789 8.42399C12.8389 8.55035 12.8625 8.68566 12.8582 8.82154C12.8913 10.0583 12.8913 11.2964 12.8582 12.5358C12.8574 12.6784 12.8268 12.8192 12.7686 12.9493C12.7104 13.0793 12.6257 13.1957 12.5201 13.291C12.4144 13.3863 12.2901 13.4583 12.1551 13.5025C12.0201 13.5467 11.8774 13.5621 11.7361 13.5477H9.17517V14.0882C9.17517 16.5796 9.17517 19.0724 9.17517 21.5664C9.17517 22.6052 8.79351 23 7.74394 23H4.71353C3.65632 23 3.28993 22.6167 3.28611 21.5818C3.28611 19.0903 3.28611 16.5975 3.28611 14.1035L3.28229 13.5285ZM1.37398 12.1831H3.56854C4.37766 12.1831 4.61811 12.4323 4.61811 13.2602C4.61811 15.8744 4.61811 18.4872 4.61811 21.0988V21.5894H7.84317V21.0451C7.84317 18.431 7.84317 15.8181 7.84317 13.2066C7.84317 12.4399 8.07599 12.1908 8.84695 12.1908H11.5186V9.12435H11.0072C10.2629 9.12435 9.51868 9.12435 8.77825 9.12435C8.19431 9.12435 7.86227 8.86371 7.85463 8.38458C7.85463 7.53364 7.82792 6.6827 7.85463 5.83177C7.85856 5.40698 8.02754 5.00054 8.32556 4.69909C8.62358 4.39764 9.02706 4.22503 9.44998 4.21805C10.0263 4.16823 10.595 4.17206 11.1865 4.14906L11.6522 4.12605V1.33943C10.6446 1.33943 9.66371 1.31643 8.68666 1.33943C6.74399 1.39693 5.21732 2.57751 4.82802 4.49404C4.66906 5.55431 4.60394 6.62664 4.63339 7.69846C4.60286 8.99786 4.49981 9.12435 3.19834 9.12435H1.38162L1.37398 12.1831Z" fill="white"/>
</svg>
