<svg width="424" height="268" viewBox="0 0 424 268" fill="none" xmlns="http://www.w3.org/2000/svg">
<path d="M19.1091 95.6873L64.4302 138.489L105.535 111.726L147.267 105.833L188.599 179.373L227.352 138.12L271.948 117.146L315.42 111.25L353.069 94.93L395.882 54.2473" stroke="white" stroke-width="2"/>
<rect x="265.559" y="111.943" width="11.5959" height="11.5959" rx="5.79794" transform="rotate(-0.129917 265.559 111.943)" fill="white"/>
<rect x="347.834" y="87.4048" width="11.5959" height="11.5959" rx="5.79794" transform="rotate(-0.129917 347.834 87.4048)" fill="white"/>
<rect x="183.363" y="171.268" width="11.5959" height="11.5959" rx="5.79794" transform="rotate(-0.129917 183.363 171.268)" fill="white"/>
<rect x="140.298" y="100.631" width="11.5959" height="11.5959" rx="5.79794" transform="rotate(-0.129917 140.298 100.631)" fill="white"/>
<rect x="58.0327" y="129.807" width="11.5959" height="11.5959" rx="5.79794" transform="rotate(-0.129917 58.0327 129.807)" fill="white"/>
<rect x="390.647" y="46.7219" width="11.5959" height="11.5959" rx="5.79794" transform="rotate(-0.129917 390.647 46.7219)" fill="white"/>
<g opacity="0.6">
<path d="M21.7135 221.497L62.7815 178.499L105.076 165.068L146.851 178.308L187.305 120.237L229.129 154.93L271.476 164.69L312.033 151.843L353.803 162.764L395.486 135.419" stroke="white" stroke-width="2"/>
<rect x="265.087" y="159.487" width="9.2767" height="9.2767" rx="4.63835" transform="rotate(-0.129917 265.087 159.487)" fill="white"/>
<rect x="306.803" y="146.637" width="9.2767" height="9.2767" rx="4.63835" transform="rotate(-0.129917 306.803 146.637)" fill="white"/>
<rect x="347.412" y="156.981" width="9.2767" height="9.2767" rx="4.63835" transform="rotate(-0.129917 347.412 156.981)" fill="white"/>
<rect x="390.256" y="130.213" width="9.2767" height="9.2767" rx="4.63835" transform="rotate(-0.129917 390.256 130.213)" fill="white"/>
<rect x="224.478" y="149.143" width="9.2767" height="9.2767" rx="4.63835" transform="rotate(-0.129917 224.478 149.143)" fill="white"/>
<rect x="182.656" y="115.61" width="9.2767" height="9.2767" rx="4.63835" transform="rotate(-0.129917 182.656 115.61)" fill="white"/>
<rect x="141.04" y="172.524" width="9.2767" height="9.2767" rx="4.63835" transform="rotate(-0.129917 141.04 172.524)" fill="white"/>
<rect x="99.269" y="161.022" width="9.2767" height="9.2767" rx="4.63835" transform="rotate(-0.129917 99.269 161.022)" fill="white"/>
<rect x="58.7125" y="173.87" width="9.2767" height="9.2767" rx="4.63835" transform="rotate(-0.129917 58.7125 173.87)" fill="white"/>
</g>
</svg>
