<svg width="431" height="268" viewBox="0 0 431 268" fill="none" xmlns="http://www.w3.org/2000/svg">
<path d="M19.1091 95.6873L64.4302 138.489L105.535 111.726L147.267 105.833L188.599 179.373L227.352 138.12L271.948 117.146L315.42 111.25L353.069 94.93L395.882 54.2473" stroke="white" stroke-width="2"/>
<rect x="265.559" y="111.943" width="11.5959" height="11.5959" rx="5.79794" transform="rotate(-0.129917 265.559 111.943)" fill="white"/>
<rect x="347.834" y="87.4048" width="11.5959" height="11.5959" rx="5.79794" transform="rotate(-0.129917 347.834 87.4048)" fill="white"/>
<rect x="183.363" y="171.268" width="11.5959" height="11.5959" rx="5.79794" transform="rotate(-0.129917 183.363 171.268)" fill="white"/>
<rect x="140.298" y="100.631" width="11.5959" height="11.5959" rx="5.79794" transform="rotate(-0.129917 140.298 100.631)" fill="white"/>
<rect x="58.0327" y="129.807" width="11.5959" height="11.5959" rx="5.79794" transform="rotate(-0.129917 58.0327 129.807)" fill="white"/>
<rect x="390.647" y="46.7219" width="11.5959" height="11.5959" rx="5.79794" transform="rotate(-0.129917 390.647 46.7219)" fill="white"/>
<g opacity="0.6">
<path d="M21.7135 221.497L62.7815 178.499L105.076 165.068L146.851 178.308L187.305 120.237L229.129 154.93L271.476 164.69L312.033 151.843L353.803 162.764L395.486 135.419" stroke="white" stroke-width="2"/>
<rect x="265.087" y="159.487" width="9.2767" height="9.2767" rx="4.63835" transform="rotate(-0.129917 265.087 159.487)" fill="white"/>
<rect x="306.803" y="146.637" width="9.2767" height="9.2767" rx="4.63835" transform="rotate(-0.129917 306.803 146.637)" fill="white"/>
<rect x="347.412" y="156.981" width="9.2767" height="9.2767" rx="4.63835" transform="rotate(-0.129917 347.412 156.981)" fill="white"/>
<rect x="390.256" y="130.213" width="9.2767" height="9.2767" rx="4.63835" transform="rotate(-0.129917 390.256 130.213)" fill="white"/>
<rect x="224.478" y="149.143" width="9.2767" height="9.2767" rx="4.63835" transform="rotate(-0.129917 224.478 149.143)" fill="white"/>
<rect x="182.656" y="115.61" width="9.2767" height="9.2767" rx="4.63835" transform="rotate(-0.129917 182.656 115.61)" fill="white"/>
<rect x="141.04" y="172.524" width="9.2767" height="9.2767" rx="4.63835" transform="rotate(-0.129917 141.04 172.524)" fill="white"/>
<rect x="99.269" y="161.022" width="9.2767" height="9.2767" rx="4.63835" transform="rotate(-0.129917 99.269 161.022)" fill="white"/>
<rect x="58.7125" y="173.87" width="9.2767" height="9.2767" rx="4.63835" transform="rotate(-0.129917 58.7125 173.87)" fill="white"/>
</g>
<g clip-path="url(#clip0_304_912)">
<path d="M393.704 164.147C392.57 163.979 391.428 163.843 390.301 163.63C385.522 162.745 381.035 160.696 377.236 157.664C376.663 157.211 376.549 156.657 376.913 156.202C377.278 155.747 377.84 155.712 378.461 156.202C381.772 158.805 385.459 160.644 389.581 161.519C399.105 163.533 407.538 161.292 414.744 154.762C419.539 150.419 422.437 144.945 423.347 138.544C424.582 129.854 422.249 122.162 416.422 115.564C416.364 115.503 416.301 115.447 416.235 115.396L412.064 119.558C413.022 120.978 414.078 122.359 414.939 123.859C416.672 126.894 417.603 130.32 417.644 133.814C417.661 134.714 417.369 135.172 416.735 135.189C416.1 135.206 415.763 134.754 415.739 133.87C415.612 129.219 414.024 125.12 411.067 121.54C410.909 121.35 410.732 121.174 410.586 121.011L406.368 125.207C411.866 131.698 410.206 140.727 404.473 145.265C398.898 149.679 390.808 149.201 385.825 144.09C383.389 141.598 381.976 138.282 381.867 134.799C381.758 131.315 382.959 127.918 385.234 125.277C387.642 122.477 391.061 120.744 394.744 120.458C398.426 120.173 402.071 121.357 404.883 123.752L409.115 119.528C408.714 119.192 408.254 118.781 407.759 118.415C395.96 109.663 379.271 115.958 376.25 130.354C373.935 141.43 381.334 152.022 392.159 153.972C397.225 154.907 402.458 153.848 406.762 151.016C411.066 148.183 414.109 143.797 415.254 138.774C415.327 138.462 415.452 138.042 415.684 137.916C416.024 137.753 416.414 137.729 416.772 137.849C417.2 138.017 417.288 138.463 417.186 138.921C416.523 142.047 415.172 144.987 413.232 147.526C409.517 152.357 404.613 155.21 398.586 156.049C387.214 157.629 376.396 149.719 374.312 138.356C372.384 127.838 378.226 117.406 388.268 113.854C396.208 111.047 403.525 112.457 410.057 117.807C410.216 117.938 410.374 118.071 410.49 118.167L414.85 113.827C413.556 112.867 412.267 111.794 410.868 110.893C405.833 107.654 400.286 106.212 394.322 106.513C382.383 107.115 372.055 115.334 368.947 126.957C366.384 136.523 368.475 145.153 374.834 152.745C374.915 152.841 375.002 152.931 375.082 153.029C375.52 153.564 375.52 154.094 375.082 154.477C374.644 154.86 374.057 154.801 373.653 154.274C372.53 152.814 371.327 151.397 370.363 149.835C367.124 144.585 365.748 138.831 366.04 132.68C366.656 119.687 376.25 108.206 388.931 105.383C398.435 103.267 407.038 105.266 414.682 111.313C414.746 111.367 414.813 111.417 414.882 111.464C414.939 111.483 414.998 111.496 415.058 111.501C415.009 110.683 415.019 109.873 414.902 109.082C414.714 107.817 415.051 106.825 416.001 105.924C417.903 104.12 419.729 102.232 421.575 100.374C422.078 99.8704 422.612 99.5096 423.355 99.8016C424.099 100.094 424.257 100.715 424.283 101.431C424.317 102.346 424.391 103.259 424.451 104.35C425.2 103.603 425.821 102.938 426.495 102.336C426.737 102.118 427.123 101.901 427.412 101.938C427.576 101.975 427.729 102.051 427.858 102.159C427.987 102.267 428.089 102.404 428.155 102.559C428.188 102.735 428.182 102.916 428.138 103.09C428.094 103.264 428.014 103.426 427.902 103.566C427.276 104.266 426.559 104.887 425.888 105.538L425.952 105.706C426.831 105.766 427.71 105.873 428.59 105.873C429.429 105.873 430.056 106.13 430.449 106.88V107.761C430.137 108.122 429.843 108.503 429.509 108.841C427.722 110.641 425.896 112.405 424.139 114.238C423.3 115.111 422.372 115.423 421.202 115.27C420.363 115.159 419.509 115.149 418.549 115.087C418.738 115.335 418.858 115.498 418.98 115.656C424.721 122.978 426.727 131.24 424.965 140.345C423.745 146.683 420.626 152.04 415.857 156.385C411.77 160.161 406.682 162.68 401.201 163.64C400.135 163.831 399.059 163.976 397.989 164.144L393.704 164.147ZM403.497 125.178C399.335 121.416 391.945 121.09 387.191 125.972C382.436 130.854 382.66 138.539 387.694 143.241C392.529 147.749 400.266 147.366 404.732 142.402C409.241 137.392 408.382 130.268 404.97 126.687L400.775 130.923C402.829 134.153 401.565 137.517 399.489 139.099C398.353 139.982 396.937 140.428 395.5 140.356C394.062 140.283 392.699 139.698 391.657 138.705C390.636 137.723 389.993 136.414 389.84 135.006C389.686 133.598 390.032 132.18 390.818 131.002C392.675 128.258 395.634 127.707 399.257 129.387L403.497 125.178ZM397.932 130.896C397.069 130.353 396.033 130.154 395.03 130.341C394.028 130.528 393.132 131.085 392.523 131.903C391.908 132.713 391.618 133.723 391.711 134.736C391.805 135.748 392.274 136.689 393.026 137.372C393.762 138.057 394.726 138.445 395.732 138.461C396.737 138.477 397.713 138.12 398.47 137.46C400.001 136.135 400.362 133.855 399.257 132.274C399.09 132.433 398.922 132.584 398.754 132.744C397.995 133.497 397.269 134.286 396.467 134.989C396.323 135.093 396.159 135.166 395.986 135.202C395.812 135.239 395.633 135.238 395.46 135.201C395.313 135.137 395.185 135.039 395.085 134.915C394.985 134.79 394.917 134.644 394.886 134.487C394.893 134.143 395.029 133.813 395.268 133.564C396.116 132.667 397.009 131.814 397.93 130.896H397.932ZM417.018 111.818C418.91 109.92 420.687 108.139 422.457 106.352C422.563 106.255 422.63 106.123 422.645 105.981C422.578 104.786 422.491 103.593 422.399 102.259C420.521 104.14 418.757 105.902 417.007 107.676C416.875 107.807 416.797 107.982 416.787 108.168C416.842 109.332 416.929 110.495 417.018 111.818ZM427.91 107.761C426.567 107.669 425.393 107.572 424.218 107.525C424.035 107.525 423.815 107.711 423.662 107.861C422.039 109.469 420.421 111.085 418.809 112.707C418.686 112.83 418.582 112.969 418.425 113.154C419.567 113.224 420.606 113.321 421.659 113.332C422.016 113.339 422.365 113.22 422.644 112.996C423.86 111.841 425.03 110.636 426.218 109.451C426.737 108.918 427.269 108.387 427.91 107.76V107.761Z" fill="white"/>
</g>
<path d="M335.416 87.696L333.912 84.416H327.208L325.704 87.696H325.112L330.296 76.496H330.824L336.008 87.696H335.416ZM327.416 83.952H333.704L330.568 77.12L327.416 83.952ZM338.189 87.696V76.496H338.733V87.696H338.189Z" fill="white"/>
<defs>
<clipPath id="clip0_304_912">
<rect width="64.4578" height="64.4511" fill="white" transform="translate(366 99.696)"/>
</clipPath>
</defs>
</svg>
