<svg width="60" height="60" viewBox="0 0 60 60" fill="none" xmlns="http://www.w3.org/2000/svg">
<g clip-path="url(#clip0_180_534)">
<g filter="url(#filter0_d_180_534)">
<path d="M58.0753 25.6129C57.2709 24.6633 56.3991 23.7729 55.4668 22.9484C53.7099 21.4051 52.8988 19.4983 52.9878 17.1185C53.0353 15.465 52.9579 13.8102 52.7565 12.1683C52.431 9.32582 50.6844 7.59185 47.8317 7.26387C46.0131 7.0554 44.1829 6.96453 42.3526 6.99182C40.4051 7.02996 38.7932 6.32569 37.2957 4.77986C36.131 3.52356 34.8704 2.35983 33.5252 1.2992C31.2369 -0.42714 28.8699 -0.434767 26.5282 1.28141C25.4198 2.07634 24.4034 2.99219 23.4976 4.01203C21.3568 6.4757 19.0534 7.42913 16.4549 6.92826H16.4219C15.9998 6.95622 15.593 6.97657 15.1964 6.99945C14.3498 7.04267 13.5514 7.08589 12.7556 7.1825C9.05123 7.62744 7.49015 9.26225 7.18251 13.0175C7.0503 14.6447 6.97911 16.371 6.97657 18.1457C6.97657 19.7525 6.36637 21.1153 5.06716 22.4298L4.58918 22.9128C3.39255 24.0655 2.27553 25.298 1.24582 26.602C-0.422051 28.8216 -0.414425 31.2522 1.27378 33.4489C1.84726 34.1629 2.46278 34.8421 3.11708 35.4829C3.85241 36.1926 4.53239 36.9576 5.15106 37.7711C6.01574 38.9608 6.61565 40.3219 6.91046 41.7628C7.08744 42.9083 7.16738 44.0667 7.14945 45.2256C7.14945 45.9884 7.1698 46.7842 7.2359 47.5571C7.50286 50.636 9.35887 52.487 12.4582 52.7717C14.215 52.9344 16.0024 53.026 17.7745 53.026H17.9601C19.7398 53.026 21.2424 53.7074 22.6611 55.1718C23.8735 56.4643 25.1824 57.6628 26.5765 58.7567C27.5341 59.5641 28.7462 60.007 29.9987 60.007C31.2512 60.007 32.4634 59.5641 33.4209 58.7567C34.7966 57.6668 36.1003 56.4889 37.3236 55.2303L37.6084 54.9506C38.9228 53.654 40.2856 53.0463 41.8899 53.0311C44.0815 53.0107 45.8791 52.937 47.5444 52.7971C50.6284 52.5429 52.431 50.8038 52.759 47.7834C52.9565 45.8464 53.0532 43.9005 53.0489 41.9535C53.0447 41.1466 53.2085 40.3477 53.5298 39.6075C53.8511 38.8674 54.3228 38.2022 54.915 37.6541L55.4795 37.105C56.377 36.2303 57.3075 35.3252 58.1287 34.354C60.6305 31.3717 60.6178 28.5978 58.0753 25.6129ZM57.0939 30.3572C56.994 30.748 56.8534 31.1272 56.6744 31.4886C56.3795 32.0251 56.0236 32.6302 55.5481 32.9811C51.3784 36.0753 49.6165 40.3542 50.003 46.4435C50.0818 47.6944 49.886 48.5359 49.3902 49.0953C48.8487 49.7029 47.9308 50.0106 46.4104 50.0894C44.7527 50.1758 43.0645 50.2292 41.4323 50.2801H41.1246C39.2051 50.3411 37.4914 51.1318 35.8871 52.698L35.4193 53.1556C34.3337 54.2184 33.2099 55.3167 32.0429 56.321C30.7055 57.4702 29.269 57.4702 27.891 56.321C26.8432 55.4777 25.8623 54.5546 24.957 53.5599C22.9408 51.2589 20.4136 50.1377 17.2329 50.1377H17.0422C15.5829 50.1581 14.1616 50.1225 12.8166 50.0309C11.0369 49.9114 10.0606 48.9936 9.94618 47.3105C9.81652 45.4189 9.69193 43.5629 9.69193 41.684C9.69193 39.4669 8.88343 37.5779 7.24607 35.9049C6.89775 35.549 6.5418 35.1956 6.1884 34.8447C5.50956 34.1709 4.80783 33.4768 4.15441 32.7573C2.30094 30.7055 2.30094 29.2563 4.15441 27.2274C4.85868 26.4647 5.62142 25.7019 6.36129 24.9875L6.88504 24.479C8.82241 22.5721 9.74533 20.4365 9.70719 17.9448C9.68431 16.3736 9.79872 14.7693 9.91059 13.2184L9.94873 12.6717C10.0657 11.0267 10.9937 10.0936 12.631 9.97415C14.665 9.82669 16.3405 9.7199 18.0796 9.7199H18.1584C20.4466 9.7199 22.4298 8.87834 24.1841 7.14437C24.4841 6.84775 24.7824 6.55028 25.079 6.25196C25.7655 5.56295 26.4774 4.84851 27.2071 4.18238C29.2411 2.32383 30.6852 2.32128 32.737 4.18238C33.4438 4.82054 34.1252 5.5121 34.771 6.18331C35.0913 6.50875 35.4117 6.83419 35.7346 7.15454C37.4685 8.87326 39.4034 9.71227 41.6458 9.7199C43.4968 9.7199 45.3782 9.85211 47.1986 9.97415H47.2749C48.9733 10.0886 49.8936 11.0496 50.0106 12.8294C50.1326 14.7032 50.1886 16.5719 50.242 18.644C50.2954 20.7161 51.1318 22.5264 52.7844 24.1942C53.0539 24.4637 53.3285 24.7307 53.6031 25.0002C54.3277 25.707 55.0778 26.4367 55.7337 27.2198C56.1672 27.7694 56.551 28.3565 56.8804 28.9741C57.0177 29.2284 57.155 29.4546 57.2923 29.6784C57.2262 29.9148 57.1575 30.1487 57.0965 30.3572H57.0939Z" fill="#BAEAFF"/>
</g>
<g filter="url(#filter1_d_180_534)">
<path d="M44.0154 28.6156C43.8949 28.4497 43.7359 28.3154 43.5522 28.2242C43.3685 28.133 43.1654 28.0876 42.9603 28.0919C42.7453 28.0934 42.5337 28.1458 42.3428 28.2448C42.1519 28.3438 41.9871 28.4865 41.8619 28.6614C41.7577 28.8089 41.6687 28.9461 41.5899 29.0784C41.5027 29.2839 41.4839 29.5122 41.5365 29.7292C41.5499 29.8244 41.5576 29.9204 41.5594 30.0165C41.5212 35.8947 37.0897 40.9492 31.4734 41.5416C25.2773 42.1848 19.8517 38.305 18.5627 32.2946C17.3423 26.6172 20.7949 20.6958 26.2613 19.094C27.6037 18.6999 29.1114 18.7483 30.5657 18.7915C31.4174 18.8169 32.2997 18.8449 33.1514 18.7915C33.2954 18.7806 33.4377 18.7542 33.576 18.7127C33.8498 18.6331 34.0933 18.4729 34.2747 18.253C34.4561 18.033 34.567 17.7635 34.593 17.4796C34.6223 17.2338 34.5747 16.9849 34.4568 16.7673C34.3389 16.5497 34.1564 16.3739 33.9345 16.2642C33.8831 16.2377 33.8295 16.2156 33.7743 16.1981C32.9102 15.9452 32.0239 15.7749 31.1276 15.6897C30.8733 15.6617 30.6547 15.6337 30.4437 15.6032C30.3423 15.5915 30.2399 15.5915 30.1386 15.6032C29.7674 15.6337 29.4267 15.6541 29.1216 15.6744C28.4974 15.698 27.8756 15.7642 27.2605 15.8727C21.1382 17.116 16.2922 22.2772 15.7329 28.1478C15.0871 34.9261 18.4126 40.7051 24.4078 43.2273C26.2091 43.9933 28.1456 44.3909 30.103 44.3968C32.191 44.3889 34.2516 43.9204 36.1378 43.0248C38.0241 42.1291 39.6895 40.8284 41.0153 39.2152C43.5018 36.2609 44.59 32.8768 44.2519 29.1521C44.2245 28.9547 44.1426 28.769 44.0154 28.6156Z" fill="#BAEAFF"/>
</g>
<g filter="url(#filter2_d_180_534)">
<path d="M44.14 17.4796C43.6188 17.4414 43.1078 17.8686 42.6781 18.2982C41.7628 19.2118 40.8458 20.1237 39.9271 21.0339C38.0762 22.8722 36.1617 24.7714 34.3031 26.6681C33.2709 27.7232 32.292 28.8088 31.2522 29.958C30.8098 30.4513 30.3598 30.9496 29.8945 31.4581C29.3631 30.9166 28.8546 30.3954 28.369 29.8919C26.9681 28.4529 25.6435 27.0952 24.2807 25.8392C24.0919 25.6888 23.8558 25.6104 23.6146 25.618C23.4105 25.6073 23.2064 25.6403 23.0161 25.7148C22.8258 25.7894 22.6536 25.9037 22.5111 26.0503C22.3758 26.1882 22.2715 26.3535 22.2053 26.535C22.1391 26.7166 22.1125 26.9102 22.1272 27.1028C22.1301 27.2661 22.1894 27.4233 22.295 27.5478C24.1231 29.4724 25.9664 31.3005 27.919 33.2378L29.6733 34.9794L29.7674 35.0735L29.8614 34.9794L32.9124 31.9285C36.9804 27.8808 40.7941 24.0468 44.6714 20.0983C45.1011 19.6585 45.2485 18.4406 44.9256 17.9957C44.8409 17.857 44.7265 17.7388 44.5907 17.6495C44.4548 17.5603 44.3009 17.5023 44.14 17.4796Z" fill="#0FB7FF"/>
</g>
</g>
<defs>
<filter id="filter0_d_180_534" x="-3.99876" y="-4.00066" width="67.9925" height="68.0076" filterUnits="userSpaceOnUse" color-interpolation-filters="sRGB">
<feFlood flood-opacity="0" result="BackgroundImageFix"/>
<feColorMatrix in="SourceAlpha" type="matrix" values="0 0 0 0 0 0 0 0 0 0 0 0 0 0 0 0 0 0 127 0" result="hardAlpha"/>
<feOffset/>
<feGaussianBlur stdDeviation="2"/>
<feComposite in2="hardAlpha" operator="out"/>
<feColorMatrix type="matrix" values="0 0 0 0 1 0 0 0 0 1 0 0 0 0 1 0 0 0 0.4 0"/>
<feBlend mode="normal" in2="BackgroundImageFix" result="effect1_dropShadow_180_534"/>
<feBlend mode="normal" in="SourceGraphic" in2="effect1_dropShadow_180_534" result="shape"/>
</filter>
<filter id="filter1_d_180_534" x="11.6534" y="11.5944" width="36.6586" height="36.8023" filterUnits="userSpaceOnUse" color-interpolation-filters="sRGB">
<feFlood flood-opacity="0" result="BackgroundImageFix"/>
<feColorMatrix in="SourceAlpha" type="matrix" values="0 0 0 0 0 0 0 0 0 0 0 0 0 0 0 0 0 0 127 0" result="hardAlpha"/>
<feOffset/>
<feGaussianBlur stdDeviation="2"/>
<feComposite in2="hardAlpha" operator="out"/>
<feColorMatrix type="matrix" values="0 0 0 0 1 0 0 0 0 1 0 0 0 0 1 0 0 0 0.4 0"/>
<feBlend mode="normal" in2="BackgroundImageFix" result="effect1_dropShadow_180_534"/>
<feBlend mode="normal" in="SourceGraphic" in2="effect1_dropShadow_180_534" result="shape"/>
</filter>
<filter id="filter2_d_180_534" x="18.1233" y="13.4772" width="30.9771" height="25.5963" filterUnits="userSpaceOnUse" color-interpolation-filters="sRGB">
<feFlood flood-opacity="0" result="BackgroundImageFix"/>
<feColorMatrix in="SourceAlpha" type="matrix" values="0 0 0 0 0 0 0 0 0 0 0 0 0 0 0 0 0 0 127 0" result="hardAlpha"/>
<feOffset/>
<feGaussianBlur stdDeviation="2"/>
<feComposite in2="hardAlpha" operator="out"/>
<feColorMatrix type="matrix" values="0 0 0 0 1 0 0 0 0 1 0 0 0 0 1 0 0 0 0.4 0"/>
<feBlend mode="normal" in2="BackgroundImageFix" result="effect1_dropShadow_180_534"/>
<feBlend mode="normal" in="SourceGraphic" in2="effect1_dropShadow_180_534" result="shape"/>
</filter>
<clipPath id="clip0_180_534">
<rect width="59.9924" height="60" fill="white"/>
</clipPath>
</defs>
</svg>
