<svg width="37" height="36" viewBox="0 0 37 36" fill="none" xmlns="http://www.w3.org/2000/svg">
<g clip-path="url(#clip0_237_1075)">
<path d="M36.0411 17.9753C36.0551 27.9038 27.9471 36.0105 18.0101 35.9964C8.07313 35.9823 0.014315 27.9277 -0.00117188 18.0246C-0.0152509 8.09605 8.09285 -0.0106427 18.0298 0.00343628C27.9668 0.0175153 36.0256 8.07211 36.0411 17.9753ZM26.7334 17.6937C26.6138 17.612 26.5631 17.5698 26.5054 17.5388C22.1718 15.2205 17.8393 12.8998 13.5076 10.5768C12.9571 10.2797 12.967 10.5331 12.9684 10.9625C12.9768 15.4434 12.9801 19.9243 12.9783 24.4052C12.9783 24.5755 12.9008 24.7712 13.0979 24.9683L26.7334 17.6937Z" fill="#DC2E43"/>
<path d="M26.7318 17.696L13.0921 24.9762C12.8935 24.7721 12.9724 24.5778 12.9724 24.413C12.9668 19.9322 12.9635 15.4513 12.9625 10.9704C12.9625 10.5481 12.9527 10.289 13.5018 10.5847C17.8278 12.9133 22.1618 15.2317 26.5037 17.5397C26.5614 17.5721 26.6079 17.6143 26.7318 17.696Z" fill="#FEFBFB"/>
</g>
<defs>
<clipPath id="clip0_237_1075">
<rect width="36.0408" height="36" fill="white"/>
</clipPath>
</defs>
</svg>
