<svg width="14" height="13" viewBox="0 0 14 13" fill="none" xmlns="http://www.w3.org/2000/svg">
<g clip-path="url(#clip0_212_520)">
<path d="M10.5328 3.64822L4.70578 9.47522C4.6512 9.53465 4.59318 9.59084 4.53204 9.64349C4.43942 9.71644 4.32335 9.75304 4.20564 9.74643C4.08793 9.73982 3.97668 9.69044 3.89282 9.60758C3.80934 9.52445 3.75907 9.4137 3.75145 9.29613C3.74383 9.17857 3.77938 9.06226 3.85144 8.96905C3.90392 8.90774 3.96011 8.84972 4.01971 8.7953L9.84945 2.96556C9.72359 2.96077 9.64698 2.9553 9.57071 2.95565C8.89387 2.95599 8.21703 2.95975 7.54019 2.95872C7.21289 2.95838 6.98887 2.76309 6.98271 2.48401C6.97656 2.20493 7.18826 1.99528 7.5183 1.99357C8.67133 1.98513 9.82357 1.98114 10.975 1.9816C11.3307 1.9816 11.5161 2.16423 11.5164 2.51821C11.5173 3.67831 11.5132 4.83841 11.5041 5.99851C11.5017 6.31214 11.2982 6.51837 11.0181 6.51461C10.738 6.51084 10.54 6.29093 10.5396 5.9862C10.5379 5.30047 10.5396 4.61816 10.542 3.93174C10.5427 3.85445 10.5376 3.7775 10.5328 3.64822Z" fill="#2D3E51"/>
</g>
<defs>
<clipPath id="clip0_212_520">
<rect width="12.3889" height="6" fill="white" transform="translate(0.498535 8.75732) rotate(-45)"/>
</clipPath>
</defs>
</svg>
