<svg width="76" height="74" viewBox="0 0 76 74" fill="none" xmlns="http://www.w3.org/2000/svg">
<g clip-path="url(#clip0_253_415)">
<g filter="url(#filter0_d_253_415)">
<path d="M0.558319 42.6871C1.05362 41.1272 2.19631 40.2243 3.61395 39.4814C8.46161 36.9464 13.2625 34.31 18.0945 31.736C18.5723 31.4825 18.7224 31.1998 18.7205 30.6674C18.699 24.6712 18.7205 18.677 18.699 12.6808C18.699 10.76 19.4693 9.40479 21.1872 8.49609C26.135 5.88051 31.0665 3.23503 35.9818 0.559654C37.3155 -0.161841 38.5986 -0.200841 39.9383 0.522604C44.9692 3.23568 50.0054 5.93901 55.0468 8.63259C56.5697 9.44963 57.2932 10.7249 57.2873 12.439C57.2873 13.609 57.2873 14.7789 57.2873 15.9489C57.2873 16.7952 56.8544 17.2652 56.1466 17.2515C55.4387 17.2379 55.0858 16.8089 55.076 15.9684C55.0624 14.7984 55.076 13.6421 55.076 12.3883C54.8186 12.4877 54.6412 12.5365 54.4793 12.6184C49.5394 15.1325 44.5994 17.6545 39.6594 20.1843C39.5252 20.2617 39.4099 20.368 39.3218 20.4955C39.2338 20.6229 39.1753 20.7685 39.1505 20.9214C39.1232 27.1126 39.129 33.3019 39.131 39.4931C39.1414 39.635 39.1597 39.7763 39.1856 39.9162L45.3105 36.6246C44.6802 35.0105 44.3772 33.287 44.4193 31.5547C44.5285 26.2312 48.8419 21.2607 54.1069 20.4651C58.1921 19.847 61.7118 20.9721 64.6368 23.9088C65.251 24.5269 65.2939 25.1451 64.7947 25.6384C64.2956 26.1318 63.693 26.0947 63.0729 25.4649C61.7418 24.097 60.0399 23.1481 58.1765 22.7349C52.8667 21.52 47.4516 25.2699 46.7398 30.6674C46.0378 35.9772 49.6161 40.7703 54.8342 41.5093C56.1951 41.6982 57.5806 41.5905 58.8959 41.1936C60.2113 40.7967 61.4252 40.1201 62.4545 39.2101C63.4838 38.3001 64.3041 37.1782 64.8591 35.9215C65.4142 34.6647 65.6909 33.3028 65.6703 31.9291C65.6348 31.2009 65.5514 30.4759 65.4207 29.7587C65.3193 29.0918 65.6157 28.5244 66.1831 28.3781C66.8227 28.2124 67.3765 28.5263 67.5618 29.2322C68.1436 31.489 68.0253 33.8693 67.2225 36.0572C67.1679 36.2171 67.1133 36.375 67.0275 36.6227C67.4506 36.8528 67.866 37.0829 68.2852 37.3091C69.9135 38.1866 71.5378 39.0641 73.1699 39.9357C74.689 40.743 75.4378 41.9793 75.4319 43.7167C75.415 49.8098 75.415 55.9029 75.4319 61.9959C75.4319 63.7645 74.6753 65.0125 73.1095 65.8081C68.1019 68.3548 63.097 70.9073 58.0946 73.4657C56.7745 74.1424 55.5187 74.1307 54.1946 73.4501C48.9804 70.7708 43.7466 68.1286 38.5304 65.4552C38.3709 65.3544 38.1865 65.2999 37.9978 65.2978C37.8091 65.2957 37.6235 65.3462 37.4618 65.4435C35.6737 66.3795 33.8699 67.2862 32.0681 68.1949C31.2706 68.5966 30.6251 68.4367 30.3268 67.7913C30.0285 67.1458 30.2956 66.6213 31.0853 66.2196C32.8403 65.3187 34.5953 64.4197 36.3503 63.5344C36.6818 63.3667 36.869 63.1971 36.869 62.7739C36.8534 56.5587 36.8489 50.3441 36.8554 44.1301C36.8554 44.0131 36.832 43.8961 36.8105 43.7148C36.5765 43.8181 36.3796 43.8942 36.1924 43.9917C31.2953 46.4864 26.3982 48.9804 21.5012 51.4738C21.1287 51.6688 20.9025 51.8482 20.9045 52.3376C20.924 58.5035 20.9181 64.6693 20.9181 70.8352C20.9181 70.9756 20.9376 71.116 20.9571 71.3636C21.9029 70.8898 22.7862 70.4491 23.6656 69.9986C24.469 69.5911 25.2607 69.166 26.07 68.7702C26.7193 68.4523 27.3453 68.6356 27.63 69.1933C27.9147 69.751 27.745 70.3847 27.084 70.7279C25.1632 71.7263 23.2406 72.7208 21.2906 73.6529C20.7934 73.8935 20.2457 74.0111 19.6936 73.9958C19.1414 73.9806 18.6011 73.8329 18.1179 73.5652C12.9583 70.9405 7.79992 68.3126 2.64285 65.6814C1.52356 65.112 0.930765 64.1467 0.538818 63.0138L0.558319 42.6871ZM55.0273 71.3032C55.0487 71.1257 55.0663 71.0536 55.0663 70.9814C55.0663 64.7415 55.0663 58.5015 55.0819 52.2616C55.0819 51.7897 54.8459 51.6337 54.4969 51.4601C49.5972 48.968 44.6988 46.4734 39.8018 43.9761C39.6068 43.8805 39.4118 43.8045 39.17 43.6972C39.1485 43.8922 39.1212 44.0307 39.1212 44.1691C39.1212 50.3584 39.1173 56.5483 39.1095 62.7388C39.1095 63.1503 39.2694 63.3336 39.6107 63.5091C44.5506 66.0181 49.4906 68.5335 54.4306 71.0555C54.608 71.1472 54.7874 71.2076 55.0273 71.3032ZM18.6659 71.3285C18.6854 71.1335 18.7068 71.0224 18.7068 70.9093C18.7068 64.6966 18.7068 58.484 18.7224 52.2733C18.7224 51.7663 18.4592 51.6181 18.0945 51.4328C13.2391 48.9628 8.38621 46.4896 3.53595 44.0131C3.3078 43.8961 3.06795 43.8025 2.78521 43.6777C2.76961 43.8727 2.75205 43.9897 2.75205 44.1067C2.75205 50.075 2.75205 56.0439 2.75205 62.0135C2.75205 62.928 3.2025 63.4837 4.00004 63.8854C8.38361 66.0987 12.7535 68.3392 17.1293 70.5661C17.6207 70.8196 18.114 71.0594 18.6659 71.3305V71.3285ZM73.2479 43.6641C73.0139 43.7596 72.9008 43.7967 72.7955 43.8493C67.7906 46.3973 62.7856 48.9433 57.7806 51.4874C57.3516 51.7039 57.2834 51.9866 57.2834 52.4117C57.2938 58.4788 57.2938 64.5458 57.2834 70.6129C57.2834 70.8254 57.2834 71.038 57.2834 71.3305C57.5349 71.2213 57.7104 71.155 57.8684 71.0711C62.5484 68.6863 67.2283 66.2839 71.9083 63.9283C72.8638 63.4486 73.2421 62.7778 73.2382 61.7307C73.2148 55.9802 73.2265 50.2258 73.2265 44.4792C73.246 44.2432 73.246 44.0034 73.246 43.666L73.2479 43.6641ZM36.869 39.9084V39.0992C36.869 33.1322 36.869 27.1633 36.8827 21.1964C36.8827 20.627 36.7111 20.3364 36.2041 20.081C31.3291 17.6181 26.4541 15.126 21.5792 12.6437C21.3978 12.5521 21.2048 12.4858 20.9786 12.3922C20.9552 12.5872 20.9357 12.673 20.9357 12.7685C20.9357 18.8135 20.9357 24.8584 20.9181 30.8917C20.9181 31.3694 21.1716 31.5157 21.5031 31.6931C26.3833 34.31 31.2641 36.9321 36.1456 39.5594C36.3523 39.6705 36.5687 39.7622 36.869 39.9084ZM4.08779 41.7765C4.39199 41.9461 4.57529 42.0534 4.76444 42.1509C9.5744 44.6053 14.3844 47.0623 19.1943 49.5218C19.3844 49.641 19.6036 49.7055 19.8278 49.7082C20.0521 49.711 20.2728 49.6519 20.4657 49.5374C25.2666 47.0675 30.0766 44.6079 34.8956 42.1587C35.1023 42.0534 35.3051 41.9344 35.5216 41.8174C35.4494 41.7355 35.4358 41.7122 35.4163 41.7005C30.3463 38.9705 25.2679 36.2405 20.181 33.5105C20.0542 33.4656 19.9193 33.4474 19.7851 33.4572C19.6509 33.4669 19.5201 33.5043 19.401 33.5671C17.5251 34.5421 15.6649 35.556 13.8007 36.5583L4.08779 41.7765ZM53.6954 10.4929C53.6184 10.4228 53.537 10.3577 53.4517 10.2979C48.5923 7.6901 43.7336 5.08037 38.8755 2.46869C38.2203 2.11379 37.647 2.18789 37.0192 2.52719C32.7968 4.80217 28.577 7.06935 24.3598 9.32874C23.689 9.68948 23.0183 10.0561 22.2714 10.4617C22.4898 10.5904 22.6088 10.6684 22.7355 10.7327C27.6456 13.2404 32.5589 15.7507 37.4754 18.2636C37.9083 18.4859 38.234 18.4137 38.6259 18.2109C43.1759 15.8826 47.7259 13.5609 52.2758 11.2456C52.736 11.0096 53.1962 10.7581 53.6954 10.4929ZM40.4492 41.7609C40.6656 41.8993 40.7963 41.9988 40.9425 42.0729C45.8591 44.5793 50.7796 47.0779 55.7039 49.5686C55.8593 49.6313 56.0257 49.6621 56.1932 49.659C56.3607 49.656 56.5259 49.6193 56.6789 49.5511C61.5214 47.111 66.3554 44.6534 71.181 42.1782C71.3896 42.0709 71.5904 41.9442 71.8966 41.7687L65.9667 38.5746C63.5429 41.9383 60.2942 43.7986 56.1661 43.7967C52.0379 43.7947 48.7893 41.9442 46.3674 38.5785L40.4492 41.7609Z" fill="#BAEAFF"/>
</g>
<path d="M54.6704 34.2203C56.4761 32.3269 58.2077 30.4822 59.9803 28.6765C60.2572 28.3937 60.7271 28.1285 61.0898 28.15C61.4057 28.1675 61.8483 28.5497 61.9595 28.8676C62.0026 29.0584 62.0041 29.2562 61.9641 29.4476C61.9241 29.639 61.8434 29.8196 61.7274 29.9771C61.1737 30.683 60.5126 31.3051 59.8925 31.9564C58.5171 33.4033 57.1404 34.8482 55.7624 36.2912C55.0234 37.0712 54.4871 37.0809 53.7091 36.3614C52.6691 35.4033 51.635 34.4419 50.6067 33.4773C49.9827 32.8924 49.8988 32.2567 50.3571 31.7536C50.8153 31.2505 51.4861 31.2934 52.0945 31.8452C52.9389 32.6174 53.7754 33.3935 54.6704 34.2203Z" fill="#0FB7FF"/>
</g>
<defs>
<filter id="filter0_d_253_415" x="-3.46118" y="-4.0011" width="82.8931" height="81.9983" filterUnits="userSpaceOnUse" color-interpolation-filters="sRGB">
<feFlood flood-opacity="0" result="BackgroundImageFix"/>
<feColorMatrix in="SourceAlpha" type="matrix" values="0 0 0 0 0 0 0 0 0 0 0 0 0 0 0 0 0 0 127 0" result="hardAlpha"/>
<feOffset/>
<feGaussianBlur stdDeviation="2"/>
<feComposite in2="hardAlpha" operator="out"/>
<feColorMatrix type="matrix" values="0 0 0 0 1 0 0 0 0 1 0 0 0 0 1 0 0 0 0.4 0"/>
<feBlend mode="normal" in2="BackgroundImageFix" result="effect1_dropShadow_253_415"/>
<feBlend mode="normal" in="SourceGraphic" in2="effect1_dropShadow_253_415" result="shape"/>
</filter>
<clipPath id="clip0_253_415">
<rect width="74.8834" height="74" fill="white" transform="translate(0.55835)"/>
</clipPath>
</defs>
</svg>
