<svg width="55" height="60" viewBox="0 0 55 60" fill="none" xmlns="http://www.w3.org/2000/svg">
<g clip-path="url(#clip0_180_531)">
<g filter="url(#filter0_d_180_531)">
<path d="M26.8538 54.9718C25.5898 57.0245 24.0122 58.5693 21.8073 59.3885C19.9139 60.0987 17.8397 60.1675 15.9034 59.5843C13.9672 59.0012 12.2759 57.7984 11.0895 56.1608C10.7733 55.7323 10.3592 55.3857 9.88177 55.1496C6.18823 53.3918 4.26422 50.5198 4.13081 46.4073C4.11215 46.1385 4.0405 45.876 3.91999 45.635C3.79948 45.394 3.63248 45.1792 3.42862 45.003C0.0955391 42.5008 -0.974137 38.1191 0.987322 34.4701C1.32906 33.8334 1.2799 33.4027 0.97094 32.7801C-0.597291 29.6226 -0.26258 26.6196 1.83698 23.7851C2.08274 23.4527 2.35426 22.9331 2.26765 22.589C1.14649 18.1207 4.29231 13.5775 8.4727 12.6647C8.50079 12.6647 8.52186 12.6085 8.60378 12.5078C8.53356 12.1193 8.41887 11.6746 8.36971 11.2228C8.09352 8.41407 9.16319 6.31919 11.6209 4.8914C13.4349 3.83812 15.1318 2.55076 17.0043 1.61451C18.4441 0.938001 19.9647 0.448726 21.5288 0.158628C23.5792 -0.265028 25.3768 0.392692 26.8233 2.08263C29.7328 -1.08191 33.0495 -0.0965017 36.1859 1.38044C38.667 2.55076 41.003 4.08622 43.2242 5.70829C45.2231 7.16885 45.7123 9.38075 45.2583 11.794C45.2091 12.0514 45.16 12.3089 45.1014 12.6108C48.1443 13.4862 50.3304 15.2698 51.2573 18.322C51.5125 19.1646 51.791 20.1383 51.6061 20.9482C51.2409 22.5422 51.8027 23.6844 52.6079 24.9835C54.1621 27.4856 54.0848 30.1703 52.7577 32.7801C52.444 33.3981 52.3832 33.8287 52.7296 34.4701C54.6957 38.1168 53.6284 42.5078 50.3047 45.003C49.8955 45.3559 49.643 45.8568 49.6025 46.3956C49.4784 50.5081 47.5544 53.3871 43.8562 55.1379C43.4388 55.323 43.0708 55.6036 42.7819 55.9572C38.6413 61.5232 31.0248 61.3125 27.2564 55.5078C27.151 55.358 27.034 55.2058 26.8538 54.9718ZM27.8345 13.3083C28.8269 13.0204 29.7304 12.6342 30.662 12.543C31.0646 12.5032 31.528 13.0743 31.9634 13.3669C31.6217 13.7156 31.3361 14.2633 30.9288 14.3757C28.5203 15.0404 27.8134 15.8994 27.8111 18.4226C27.8111 26.6929 27.8111 34.9632 27.8111 43.2334C27.8111 45.7683 27.7573 48.3033 27.8275 50.8358C27.8516 52.428 28.3937 53.9689 29.3719 55.2253C30.35 56.4818 31.7109 57.3853 33.2484 57.7993C36.3076 58.6255 39.4418 57.3733 41.3119 54.6792C41.7143 54.1307 42.2602 53.7038 42.8895 53.4457C45.8738 52.2379 48.0389 49.0804 47.5849 46.0937C47.3953 44.8251 47.7346 44.2212 48.8043 43.5822C51.7395 41.8501 52.6734 37.8219 51.0607 35.5795C49.3544 36.139 47.7674 36.7077 46.1454 37.1712C45.4876 37.3584 44.741 37.2695 44.6052 36.3824C44.4695 35.4953 45.1576 35.3057 45.8621 35.2121C46.2498 35.1886 46.6353 35.1386 47.0161 35.0623C48.0789 34.7979 49.0533 34.2581 49.8412 33.4974C50.6291 32.7366 51.2026 31.7816 51.504 30.7287C51.8053 29.6757 51.824 28.562 51.5579 27.4995C51.2919 26.4371 50.7507 25.4635 49.9887 24.6768C49.3005 23.9746 49.0969 23.3427 49.3942 22.4041C49.6143 21.7 49.6992 20.9606 49.6446 20.2249C49.5293 18.6539 48.8265 17.184 47.6762 16.1078C46.5259 15.0317 45.0124 14.4283 43.4372 14.4178C40.1908 14.4014 37.4428 16.9668 37.1666 20.3069C37.1105 20.9856 37.0122 21.6083 36.1766 21.6036C35.2146 21.6036 35.2403 20.871 35.2543 20.1781C35.341 16.6672 38.1404 13.409 41.6911 12.6881C43.0955 12.4049 43.3974 12.0514 43.4723 10.6049C43.5269 9.68381 43.2763 8.7704 42.7592 8.00619C42.2421 7.24197 41.4874 6.66959 40.6121 6.37771C38.674 5.74106 36.8834 6.39176 35.678 8.22682C35.2637 8.85879 34.8003 9.30117 34.0747 8.819C33.3491 8.33683 33.5878 7.66038 34.0442 7.19927C35.0999 6.1296 36.2421 5.14653 37.3656 4.11431C35.6382 3.07975 33.5972 2.17392 31.2987 2.00773C29.5034 1.87666 27.9328 3.12422 27.8579 4.93821C27.7526 7.73294 27.8345 10.53 27.8345 13.3083ZM16.0026 4.33901C16.4566 4.53328 16.8265 4.59882 17.0722 4.80714C17.9886 5.56915 18.8659 6.37691 19.7008 7.22736C20.1689 7.71187 20.3164 8.39768 19.6118 8.84006C18.9518 9.25202 18.4298 8.93369 18.0927 8.27831C18.0385 8.17457 17.9775 8.07449 17.9102 7.97871C17.3938 7.21385 16.638 6.64209 15.7615 6.35318C14.885 6.06426 13.9374 6.07454 13.0674 6.38239C12.2156 6.67993 11.4819 7.24305 10.9741 7.98886C10.4664 8.73467 10.2115 9.62378 10.2469 10.5253C10.3007 12.028 10.605 12.3978 12.0703 12.6904C15.6444 13.4347 18.4743 16.8193 18.4743 20.3303C18.4743 20.9646 18.4087 21.5591 17.6223 21.6036C16.8358 21.6481 16.6205 21.0886 16.5573 20.3818C16.1992 16.4027 12.8497 13.828 8.9736 14.5723C5.46263 15.2394 3.33499 18.8791 4.36487 22.5469C4.59894 23.3427 4.49595 23.9185 3.86865 24.5247C1.97741 26.3621 1.4812 28.6466 2.35192 31.0785C3.23668 33.5432 5.08345 34.9897 7.77519 35.2121C8.46334 35.2682 9.20298 35.3759 9.12808 36.2911C9.0485 37.2625 8.25268 37.3608 7.54815 37.1595C5.93076 36.6913 4.34849 36.1202 2.74983 35.5913C2.72408 35.418 2.60003 35.5702 2.51576 35.741C1.15819 38.6832 2.2817 42.0959 5.23091 43.7905C5.95183 44.2048 6.3474 44.6331 6.21398 45.539C5.97665 47.1504 6.28236 48.7949 7.08291 50.2133C7.88346 51.6318 9.13332 52.7434 10.6355 53.3731C11.3857 53.7217 12.042 54.244 12.5501 54.8969C14.5209 57.3967 17.0324 58.5225 20.1502 57.8461C23.0619 57.2141 24.9766 55.3322 25.6624 52.4251C26.3833 49.3636 25.3839 46.8076 22.8911 44.9023C22.1889 44.371 21.2526 44.158 20.5504 43.6501C20.2017 43.4043 20.0823 42.8191 19.8716 42.3885C20.2906 42.2129 20.7002 41.9344 21.1309 41.8923C21.5228 41.896 21.9041 42.0193 22.224 42.2457C23.4528 43.0204 24.6536 43.842 25.9199 44.6823V43.8397C25.9199 36.6617 25.9199 29.4876 25.9199 22.3175C25.9199 20.0634 25.0164 19.0406 22.7834 18.5256C22.3855 18.432 22.1023 17.8586 21.7676 17.5075C22.1701 17.2313 22.5985 16.6906 22.9706 16.728C23.9444 16.824 24.89 17.1727 25.9058 17.4302C25.9058 13.3294 25.962 9.16775 25.8801 5.01077C25.8721 4.59687 25.7803 4.18888 25.6102 3.81143C25.4402 3.43398 25.1954 3.09492 24.8907 2.81469C24.586 2.53447 24.2276 2.31891 23.8373 2.18102C23.4469 2.04313 23.0327 1.98577 22.6195 2.01241C20.2274 2.1154 18.1091 3.03996 16.0026 4.35072V4.33901Z" fill="#BAEAFF"/>
</g>
<g filter="url(#filter1_d_180_531)">
<path d="M39.379 27.877C39.826 29.567 40.8325 30.5266 42.368 30.9643C42.705 31.0603 43.124 30.9994 43.3862 31.182C43.7747 31.4512 44.0556 31.8725 44.3809 32.2283C43.9737 32.5045 43.5734 33.0054 43.1568 33.0241C40.8887 33.1201 38.4287 31.3225 37.6797 28.9935C37.4081 28.1509 37.0383 27.8232 36.1606 27.5727C35.0324 27.2568 33.9861 26.578 32.9773 25.9343C32.3641 25.5458 31.6993 24.9231 32.4062 24.1203C33.0756 23.3596 33.6514 24.0009 34.1968 24.4386C37.8061 27.3457 42.9578 25.7915 44.2615 21.3958C44.3745 20.9041 44.4527 20.4051 44.4956 19.9025C44.5939 19.226 44.8467 18.5449 45.6378 18.8211C46.0194 18.9545 46.4454 19.6637 46.4384 20.1061C46.3798 23.3596 44.0205 26.3977 40.8489 27.4487C40.4135 27.5985 39.9641 27.7108 39.379 27.877Z" fill="#BAEAFF"/>
</g>
<g filter="url(#filter2_d_180_531)">
<path d="M39.3345 42.5809C39.5943 42.5622 39.7488 42.5552 39.9032 42.5388C40.6171 42.4639 41.2819 42.7003 41.2117 43.454C41.1765 43.8332 40.5095 44.2334 40.0647 44.4698C39.709 44.6547 39.2198 44.5541 38.8102 44.6594C37.5334 44.9707 36.3888 45.6804 35.5425 46.6858C34.6962 47.6912 34.192 48.94 34.1031 50.2512C34.0376 50.9979 33.9065 51.7539 32.9328 51.6299C32.041 51.5152 32.0995 50.7825 32.1627 50.0804C32.4296 47.1358 33.8714 44.9473 36.4414 43.5383C37.1038 43.1755 37.2911 42.7635 37.2443 42.0613C37.0289 38.9366 34.8147 36.6568 31.4559 36.1886C30.7747 36.0927 30.0281 36.0903 30.1077 35.14C30.1919 34.1336 30.9994 34.2038 31.704 34.26C35.1985 34.494 38.3795 37.3262 39.0302 40.7786C39.1449 41.3498 39.2268 41.9256 39.3345 42.5809Z" fill="#BAEAFF"/>
</g>
<g filter="url(#filter3_d_180_531)">
<path d="M16.34 28.8858C14.4909 28.4762 12.8291 27.7155 11.509 26.276C10.2662 24.9122 9.50339 23.1795 9.33684 21.342C9.2596 20.6398 9.30642 19.9048 10.1607 19.7854C11.0549 19.659 11.2398 20.3659 11.2772 21.0798C11.5488 26.042 17.6227 29.0871 21.9038 25.293C22.2104 25.0215 22.9055 25.1923 23.4228 25.1595C23.3315 25.6745 23.4228 26.4586 23.1185 26.6576C21.9321 27.4391 20.6789 28.1143 19.3735 28.6752C18.7696 28.9373 18.3834 29.1246 18.1751 29.8455C17.8271 31.0102 17.1288 32.0394 16.1752 32.7932C15.2216 33.547 14.059 33.9889 12.8455 34.0587C12.169 34.0914 11.5136 34.0587 11.4411 33.2231C11.3685 32.3874 11.9771 32.2283 12.6676 32.1464C14.6899 31.8912 15.9983 30.7396 16.34 28.8858Z" fill="#BAEAFF"/>
</g>
<g filter="url(#filter4_d_180_531)">
<path d="M11.3381 44.5729C11.6494 40.7295 13.4306 38.0401 17.0516 36.7458C17.7566 36.5347 18.4827 36.402 19.2167 36.3502C19.8978 36.2683 20.6024 36.4461 20.4853 37.2607C20.4315 37.6328 19.7831 38.1431 19.3454 38.1969C16.0381 38.6417 13.8941 40.6172 13.3698 43.8028C13.2293 44.6595 13.3908 45.1931 14.2545 45.6753C16.8644 47.1008 18.2758 49.3642 18.4677 52.3578C18.5075 53.0202 18.4841 53.6826 17.604 53.7107C16.7848 53.7365 16.6256 53.1607 16.5648 52.4608C16.3003 49.3665 14.0603 46.9767 11.1649 46.6233C10.4206 46.532 9.37431 46.649 9.38367 45.5723C9.38367 44.3809 10.4604 44.6173 11.3381 44.5729Z" fill="#BAEAFF"/>
</g>
<g filter="url(#filter5_d_180_531)">
<path d="M51.1992 10.4393H47.6766L47.0633 11.8436C47.0288 11.9223 46.9721 11.9892 46.9002 12.0361C46.8283 12.0831 46.7443 12.1081 46.6584 12.1081C46.5844 12.1081 46.5117 12.0895 46.4468 12.0541C46.3819 12.0186 46.3269 11.9675 46.2868 11.9053C46.2468 11.8432 46.223 11.772 46.2176 11.6982C46.2121 11.6245 46.2253 11.5505 46.2558 11.4832L48.8563 5.73925C48.8913 5.66186 48.9479 5.59619 49.0193 5.55012C49.0907 5.50405 49.1739 5.47951 49.2588 5.47944H49.6263C49.7113 5.47951 49.7944 5.50405 49.8658 5.55012C49.9372 5.59619 49.9938 5.66186 50.0289 5.73925L52.6387 11.4832C52.6692 11.5505 52.6824 11.6245 52.677 11.6982C52.6715 11.772 52.6477 11.8432 52.6077 11.9053C52.5676 11.9675 52.5126 12.0186 52.4477 12.0541C52.3828 12.0895 52.3101 12.1081 52.2361 12.1081H52.2174C52.1315 12.1081 52.0475 12.0831 51.9756 12.0361C51.9037 11.9892 51.847 11.9223 51.8125 11.8436L51.1992 10.4393ZM50.8669 9.68089L49.4438 6.43208L48.0136 9.68089H50.8669Z" fill="#0FB7FF"/>
</g>
<g filter="url(#filter6_d_180_531)">
<path d="M54.3825 5.46774C54.5067 5.46774 54.6257 5.51706 54.7135 5.60485C54.8013 5.69264 54.8506 5.81171 54.8506 5.93586V11.6236C54.8506 11.7478 54.8013 11.8668 54.7135 11.9546C54.6257 12.0424 54.5067 12.0917 54.3825 12.0917C54.2584 12.0917 54.1393 12.0424 54.0515 11.9546C53.9637 11.8668 53.9144 11.7478 53.9144 11.6236V5.94054C53.9138 5.87867 53.9254 5.8173 53.9487 5.75997C53.9719 5.70263 54.0063 5.65046 54.0498 5.6065C54.0934 5.56253 54.1452 5.52763 54.2023 5.50381C54.2594 5.48 54.3206 5.46773 54.3825 5.46774Z" fill="#0FB7FF"/>
</g>
</g>
<defs>
<filter id="filter0_d_180_531" x="-4.00824" y="-4.01063" width="61.7717" height="68.0107" filterUnits="userSpaceOnUse" color-interpolation-filters="sRGB">
<feFlood flood-opacity="0" result="BackgroundImageFix"/>
<feColorMatrix in="SourceAlpha" type="matrix" values="0 0 0 0 0 0 0 0 0 0 0 0 0 0 0 0 0 0 127 0" result="hardAlpha"/>
<feOffset/>
<feGaussianBlur stdDeviation="2"/>
<feComposite in2="hardAlpha" operator="out"/>
<feColorMatrix type="matrix" values="0 0 0 0 1 0 0 0 0 1 0 0 0 0 1 0 0 0 0.4 0"/>
<feBlend mode="normal" in2="BackgroundImageFix" result="effect1_dropShadow_180_531"/>
<feBlend mode="normal" in="SourceGraphic" in2="effect1_dropShadow_180_531" result="shape"/>
</filter>
<filter id="filter1_d_180_531" x="28.1018" y="14.7581" width="22.3366" height="22.2697" filterUnits="userSpaceOnUse" color-interpolation-filters="sRGB">
<feFlood flood-opacity="0" result="BackgroundImageFix"/>
<feColorMatrix in="SourceAlpha" type="matrix" values="0 0 0 0 0 0 0 0 0 0 0 0 0 0 0 0 0 0 127 0" result="hardAlpha"/>
<feOffset/>
<feGaussianBlur stdDeviation="2"/>
<feComposite in2="hardAlpha" operator="out"/>
<feColorMatrix type="matrix" values="0 0 0 0 1 0 0 0 0 1 0 0 0 0 1 0 0 0 0.4 0"/>
<feBlend mode="normal" in2="BackgroundImageFix" result="effect1_dropShadow_180_531"/>
<feBlend mode="normal" in="SourceGraphic" in2="effect1_dropShadow_180_531" result="shape"/>
</filter>
<filter id="filter2_d_180_531" x="26.1018" y="30.2322" width="19.115" height="25.4111" filterUnits="userSpaceOnUse" color-interpolation-filters="sRGB">
<feFlood flood-opacity="0" result="BackgroundImageFix"/>
<feColorMatrix in="SourceAlpha" type="matrix" values="0 0 0 0 0 0 0 0 0 0 0 0 0 0 0 0 0 0 127 0" result="hardAlpha"/>
<feOffset/>
<feGaussianBlur stdDeviation="2"/>
<feComposite in2="hardAlpha" operator="out"/>
<feColorMatrix type="matrix" values="0 0 0 0 1 0 0 0 0 1 0 0 0 0 1 0 0 0 0.4 0"/>
<feBlend mode="normal" in2="BackgroundImageFix" result="effect1_dropShadow_180_531"/>
<feBlend mode="normal" in="SourceGraphic" in2="effect1_dropShadow_180_531" result="shape"/>
</filter>
<filter id="filter3_d_180_531" x="5.31085" y="15.7707" width="22.112" height="22.2959" filterUnits="userSpaceOnUse" color-interpolation-filters="sRGB">
<feFlood flood-opacity="0" result="BackgroundImageFix"/>
<feColorMatrix in="SourceAlpha" type="matrix" values="0 0 0 0 0 0 0 0 0 0 0 0 0 0 0 0 0 0 127 0" result="hardAlpha"/>
<feOffset/>
<feGaussianBlur stdDeviation="2"/>
<feComposite in2="hardAlpha" operator="out"/>
<feColorMatrix type="matrix" values="0 0 0 0 1 0 0 0 0 1 0 0 0 0 1 0 0 0 0.4 0"/>
<feBlend mode="normal" in2="BackgroundImageFix" result="effect1_dropShadow_180_531"/>
<feBlend mode="normal" in="SourceGraphic" in2="effect1_dropShadow_180_531" result="shape"/>
</filter>
<filter id="filter4_d_180_531" x="5.38361" y="32.3321" width="19.1146" height="25.3795" filterUnits="userSpaceOnUse" color-interpolation-filters="sRGB">
<feFlood flood-opacity="0" result="BackgroundImageFix"/>
<feColorMatrix in="SourceAlpha" type="matrix" values="0 0 0 0 0 0 0 0 0 0 0 0 0 0 0 0 0 0 127 0" result="hardAlpha"/>
<feOffset/>
<feGaussianBlur stdDeviation="2"/>
<feComposite in2="hardAlpha" operator="out"/>
<feColorMatrix type="matrix" values="0 0 0 0 1 0 0 0 0 1 0 0 0 0 1 0 0 0 0.4 0"/>
<feBlend mode="normal" in2="BackgroundImageFix" result="effect1_dropShadow_180_531"/>
<feBlend mode="normal" in="SourceGraphic" in2="effect1_dropShadow_180_531" result="shape"/>
</filter>
<filter id="filter5_d_180_531" x="42.2164" y="1.47944" width="14.4618" height="14.6287" filterUnits="userSpaceOnUse" color-interpolation-filters="sRGB">
<feFlood flood-opacity="0" result="BackgroundImageFix"/>
<feColorMatrix in="SourceAlpha" type="matrix" values="0 0 0 0 0 0 0 0 0 0 0 0 0 0 0 0 0 0 127 0" result="hardAlpha"/>
<feOffset/>
<feGaussianBlur stdDeviation="2"/>
<feComposite in2="hardAlpha" operator="out"/>
<feColorMatrix type="matrix" values="0 0 0 0 1 0 0 0 0 1 0 0 0 0 1 0 0 0 0.4 0"/>
<feBlend mode="normal" in2="BackgroundImageFix" result="effect1_dropShadow_180_531"/>
<feBlend mode="normal" in="SourceGraphic" in2="effect1_dropShadow_180_531" result="shape"/>
</filter>
<filter id="filter6_d_180_531" x="49.9144" y="1.46774" width="8.93628" height="14.624" filterUnits="userSpaceOnUse" color-interpolation-filters="sRGB">
<feFlood flood-opacity="0" result="BackgroundImageFix"/>
<feColorMatrix in="SourceAlpha" type="matrix" values="0 0 0 0 0 0 0 0 0 0 0 0 0 0 0 0 0 0 127 0" result="hardAlpha"/>
<feOffset/>
<feGaussianBlur stdDeviation="2"/>
<feComposite in2="hardAlpha" operator="out"/>
<feColorMatrix type="matrix" values="0 0 0 0 1 0 0 0 0 1 0 0 0 0 1 0 0 0 0.4 0"/>
<feBlend mode="normal" in2="BackgroundImageFix" result="effect1_dropShadow_180_531"/>
<feBlend mode="normal" in="SourceGraphic" in2="effect1_dropShadow_180_531" result="shape"/>
</filter>
<clipPath id="clip0_180_531">
<rect width="54.8553" height="60" fill="white"/>
</clipPath>
</defs>
</svg>
