<svg width="36" height="30" viewBox="0 0 36 30" fill="none" xmlns="http://www.w3.org/2000/svg">
<g clip-path="url(#clip0_237_1055)">
<path d="M28.4893 3.77711C27.9646 3.26872 27.4064 2.73676 26.868 2.1903C26.4476 1.76346 26.385 1.37468 26.6216 0.912505C26.8173 0.529168 27.1435 0.345202 27.564 0.32164C28.8479 0.252162 30.1317 0.184497 31.4155 0.118644C32.2311 0.0778634 33.0468 0.0497698 33.8624 0.00355179C34.8239 -0.0499161 35.3287 0.396857 35.2924 1.35656C35.2154 3.39831 35.1112 5.44005 35.0097 7.48089C35.0064 7.68291 34.955 7.88123 34.8596 8.05935C34.7642 8.23747 34.6277 8.39024 34.4614 8.50494C34.0173 8.81578 33.5742 8.82575 33.1754 8.46144C32.6752 8.00832 32.2012 7.52077 31.7255 7.04228C31.597 6.8975 31.476 6.74626 31.363 6.58916C31.2343 6.78491 31.1745 6.91722 31.0793 7.01328C26.5554 11.5372 22.03 16.0587 17.503 20.5778C16.7581 21.3218 15.9198 21.4713 15.1468 20.9883C14.9655 20.8679 14.7983 20.7274 14.6484 20.5696C12.9404 18.8695 11.2337 17.1655 9.52815 15.4576C9.43829 15.3545 9.35505 15.2458 9.27893 15.1322C9.13575 15.2645 9.04331 15.3443 8.95722 15.4304C7.1375 17.2483 5.31778 19.0665 3.49806 20.885C2.85554 21.5257 2.11152 21.7006 1.40103 21.3708C0.781169 21.0789 -0.0797557 20.2362 0.000899232 19.3263C0.0308025 18.8753 0.224121 18.4506 0.54464 18.1319C3.02168 15.6548 5.50144 13.1808 7.98392 10.7098C8.7506 9.95129 9.78733 10.0093 10.5893 10.8077C12.3227 12.5338 14.0524 14.2635 15.7784 15.9968C15.8515 16.0787 15.9176 16.1666 15.976 16.2596L28.4893 3.77711Z" fill="white"/>
<path d="M31.3575 9.71851C31.7744 9.91878 31.8233 10.2369 31.8233 10.6247C31.8137 16.734 31.811 22.8435 31.8152 28.9533C31.8156 29.1136 31.8059 29.2737 31.7862 29.4327C31.7775 29.5659 31.7225 29.6917 31.6306 29.7885C31.5387 29.8852 31.4157 29.9466 31.2832 29.962C31.1595 29.985 31.0339 29.9972 30.908 29.9982C29.6103 29.9982 28.3114 29.9982 27.0112 29.9982C26.3198 29.9982 26.1005 29.7825 26.0996 29.0992C26.0996 24.4829 26.1017 19.8665 26.1059 15.2502C26.1063 15.0842 26.1653 14.9237 26.2727 14.797C27.9202 13.1314 29.5747 11.473 31.2361 9.82182C31.2778 9.78104 31.3258 9.7466 31.3575 9.71851Z" fill="white"/>
<path d="M23.9155 17.2564V17.5872C23.9155 21.4109 23.9155 25.2343 23.9155 29.0574C23.9155 29.7824 23.7017 29.999 22.9703 29.9999C21.6841 29.9999 20.3981 29.9999 19.1125 29.9999C18.4201 29.9999 18.2063 29.7833 18.2063 29.1009C18.2063 27.0918 18.2063 25.0827 18.2063 23.0726C18.2063 22.8497 18.2461 22.6929 18.4509 22.5588C18.6651 22.4043 18.8631 22.2285 19.0418 22.0341C20.5576 20.5195 22.0729 19 23.5875 17.4757C23.6727 17.3905 23.7071 17.2555 23.7687 17.144L23.9155 17.2564Z" fill="white"/>
<path d="M15.9996 23.3628C15.9996 23.6437 15.9996 23.883 15.9996 24.1222C15.9996 25.7982 15.9996 27.4738 15.9996 29.1491C15.9996 29.7653 15.7721 29.9946 15.1468 29.9964C13.8177 30.0007 12.4861 30.0007 11.1521 29.9964C10.5486 29.9964 10.2903 29.7527 10.2903 29.1808C10.2867 25.9444 10.2867 22.7076 10.2903 19.4705C10.2903 19.4161 10.2976 19.3618 10.3057 19.2385C10.4253 19.3436 10.5078 19.4089 10.5821 19.4832C11.3624 20.2617 12.159 21.0238 12.9157 21.824C13.7467 22.7049 14.6883 23.3401 15.9996 23.3628Z" fill="white"/>
<path d="M2.4133 23.6055C3.71284 23.5231 4.62089 22.7972 5.45825 21.9226C6.22039 21.1261 7.01335 20.3594 7.79362 19.58C7.87337 19.5003 7.95855 19.426 8.10989 19.2837C8.10989 19.4803 8.10989 19.5991 8.10989 19.7187C8.10989 22.8198 8.10989 25.921 8.10989 29.0221C8.10989 29.7951 7.90599 29.9972 7.12844 29.9972C5.85367 29.9972 4.5786 29.9972 3.30322 29.9972C2.61267 29.9972 2.39699 29.7824 2.39699 29.091C2.39699 27.3794 2.39699 25.6681 2.39699 23.9571C2.39699 23.8593 2.40605 23.7578 2.4133 23.6055Z" fill="white"/>
</g>
<defs>
<clipPath id="clip0_237_1055">
<rect width="35.2906" height="30" fill="white"/>
</clipPath>
</defs>
</svg>
