<svg xmlns="http://www.w3.org/2000/svg" width="81" height="80" viewBox="0 0 81 80" fill="none">
  <g clip-path="url(#clip0_237_1351)">
    <g filter="url(#filter0_d_237_1351)">
      <path d="M0.416297 34.6882C0.625464 33.6215 0.801167 32.5443 1.06053 31.488C1.82608 28.3693 3.3279 25.6794 5.71449 23.4873C6.6411 22.636 7.71413 22.316 8.81435 22.7427C10.084 23.2363 11.385 23.8325 12.435 24.6796C16.3966 27.884 19.189 31.9732 21.0109 36.7213C21.1879 37.2126 21.3066 37.723 21.3644 38.242C21.446 38.6934 21.4121 39.1582 21.2658 39.593C21.1196 40.0279 20.8656 40.4187 20.5277 40.7289C17.5993 43.5276 17.3463 47.4516 19.9127 50.5786C21.9528 53.0635 24.0194 55.5268 26.1124 57.9685C28.8149 61.129 32.6614 61.5724 36.029 59.121C36.3946 58.8424 36.8276 58.6661 37.2838 58.6103C37.74 58.5544 38.2028 58.6209 38.6248 58.803C39.4859 59.1037 40.3087 59.5046 41.0762 59.9974C44.6634 62.4697 47.7465 65.4566 50.0244 69.2007C50.9635 70.7486 51.7437 72.3717 51.6977 74.2584C51.7015 74.7167 51.5977 75.1695 51.3947 75.5804C51.1916 75.9913 50.8949 76.3487 50.5285 76.6241C47.0124 79.3955 42.9671 80.2845 38.606 79.9247C32.4167 79.4123 26.9575 76.9336 21.973 73.3966C12.5877 66.7346 5.78352 58.0584 2.14611 47.073C1.36592 44.7157 1.07517 42.1973 0.556435 39.7521C0.518785 39.5785 0.460218 39.4091 0.412109 39.2376L0.416297 34.6882ZM3.59773 37.1104C3.69394 38.2817 3.72113 39.4614 3.9031 40.6181C4.09544 41.9864 4.38625 43.339 4.77324 44.6655C8.73277 57.4142 16.633 66.9857 28.2773 73.4405C32.2975 75.6703 36.6335 76.9776 41.3126 76.7349C43.7546 76.6446 46.1175 75.8451 48.1126 74.4341C48.5497 74.1224 48.6271 73.8463 48.4431 73.3297C47.4349 70.4955 45.6402 68.1925 43.4921 66.1866C41.9171 64.7225 40.1454 63.4675 38.4407 62.1225C38.1542 61.8966 37.8571 61.7816 37.4723 62.0995C33.9164 65.0278 27.288 64.4003 23.9517 60.3906C21.745 57.7405 19.4902 55.1301 17.3086 52.459C13.8908 48.2757 14.1878 42.5048 17.9968 38.677C18.3231 38.3486 18.3503 38.0914 18.1578 37.7253C17.6726 36.8029 17.25 35.8428 16.7041 34.958C14.9806 32.151 13.2759 29.2854 10.5797 27.29C7.77479 25.2151 8.25377 25.0373 6.06171 28.0262C4.106 30.6994 3.63119 33.8599 3.59773 37.1104Z" fill="#BAEAFF"/>
    </g>
    <g filter="url(#filter1_d_237_1351)">
      <path d="M44.1573 3.20234C33.3225 3.47007 24.5061 7.76217 17.7563 16.2292C16.8715 17.3399 16.1478 17.5407 15.2463 16.8839C14.4242 16.2773 14.3134 15.4302 14.9702 14.5664C18.8358 9.4201 23.9961 5.39005 29.9256 2.8865C35.6472 0.447273 41.9006 -0.477654 48.0834 0.200793C63.8483 1.82602 76.9881 13.8531 80.0482 29.4277C83.1857 45.3662 75.48 61.472 61.1291 68.9602C60.7001 69.1963 60.2173 69.3174 59.7277 69.3116C59.0102 69.2677 58.5626 68.7698 58.4266 68.0566C58.276 67.2597 58.6233 66.7116 59.2947 66.2975C60.968 65.2726 62.6999 64.3439 64.2498 63.16C71.3176 57.7802 75.6139 50.6623 77.0801 41.9107C79.9729 24.6419 68.6298 7.86048 51.5723 4.07665C50.4804 3.82195 49.3759 3.62506 48.2632 3.4868C46.9037 3.33829 45.5169 3.29437 44.1573 3.20234Z" fill="#BAEAFF"/>
    </g>
    <g filter="url(#filter2_d_237_1351)">
      <path d="M36.1319 43.6301H38.1441C40.6541 43.6301 43.1641 43.6301 45.6741 43.6301C46.7199 43.6301 47.4583 44.2576 47.5085 45.1549C47.5587 46.0522 46.8601 46.8282 45.8226 46.8429C41.6915 46.8763 37.5605 46.891 33.4295 46.8429C31.9193 46.8241 31.2039 45.5398 32.0134 44.268C33.145 42.4901 34.3686 40.7603 35.6675 39.0995C36.6904 37.7922 38.0688 36.8719 39.5601 36.1189C40.5217 35.6493 41.4455 35.106 42.3232 34.4937C44.5592 32.8894 44.9169 30.233 43.2436 28.135C42.8542 27.6506 42.3723 27.2485 41.8259 26.9524C41.2794 26.6562 40.6795 26.4719 40.0611 26.4102C39.4426 26.3485 38.8181 26.4106 38.2239 26.5929C37.6297 26.7752 37.0778 27.074 36.6004 27.472C36.1045 27.8799 35.6994 28.387 35.4112 28.9609C35.123 29.5348 34.9581 30.1626 34.9271 30.804C34.8497 31.9858 34.2996 32.5965 33.4023 32.6467C33.1873 32.6673 32.9704 32.643 32.7654 32.5755C32.5603 32.5079 32.3715 32.3985 32.2108 32.2542C32.0502 32.1099 31.9213 31.9338 31.8322 31.7371C31.7431 31.5404 31.6959 31.3274 31.6934 31.1115C31.4968 27.3716 34.7263 23.6254 38.4808 23.2405C43.1829 22.7573 46.9374 25.7045 47.4583 30.3856C47.749 33.0065 46.7429 35.1818 44.6492 36.7464C43.3795 37.6603 42.0426 38.477 40.6499 39.1895C38.7486 40.2123 37.4455 41.7873 36.1319 43.6301Z" fill="#BAEAFF"/>
    </g>
    <g filter="url(#filter3_d_237_1351)">
      <path d="M61.2988 38.1729C61.2988 40.3608 61.2988 42.4211 61.2988 44.4814C61.3086 44.8201 61.2876 45.1589 61.2361 45.4938C61.1766 45.8869 60.9716 46.2434 60.6617 46.4925C60.3518 46.7417 59.9595 46.8652 59.5628 46.8387C59.1527 46.8192 58.7664 46.6408 58.4857 46.3413C58.205 46.0418 58.0519 45.6448 58.0588 45.2344C58.0379 43.1971 58.0588 41.1598 58.0588 39.1205C58.0588 38.8381 58.0588 38.5578 58.0588 38.1834H55.9672C54.0596 38.1834 52.152 38.1729 50.2465 38.1834C49.4328 38.1834 48.73 38.0181 48.364 37.2108C47.9979 36.4034 48.364 35.8093 48.8576 35.2174C51.9881 31.4691 55.1152 27.7174 58.2387 23.9621C58.8474 23.2321 59.5209 22.9853 60.2258 23.2635C61.0437 23.5877 61.3009 24.2675 61.2988 25.0895C61.2988 28.0416 61.2988 30.9936 61.2988 33.9457C61.2988 34.2552 61.2988 34.5732 61.2988 34.981C61.9619 34.981 62.5538 34.9685 63.1437 34.981C64.1268 35.0082 64.7626 35.6085 64.7961 36.4933C64.8296 37.4388 64.2188 38.1018 63.2169 38.1667C62.6208 38.1918 62.0267 38.1729 61.2988 38.1729ZM58.0337 29.2415L53.3066 34.9246H58.0337V29.2415Z" fill="#BAEAFF"/>
    </g>
    <g filter="url(#filter4_d_237_1351)">
      <path d="M12.8409 22.5042C12.4209 22.4911 12.0228 22.3137 11.7322 22.0102C11.4415 21.7067 11.2816 21.3013 11.2867 20.8811C11.316 20.4759 11.493 20.0956 11.7841 19.8122C12.0752 19.5288 12.4601 19.3621 12.866 19.3437C13.2861 19.354 13.686 19.5266 13.9816 19.8253C14.2772 20.1241 14.4456 20.5257 14.4514 20.9459C14.4484 21.1541 14.4044 21.3597 14.3217 21.5508C14.2391 21.742 14.1195 21.9149 13.9699 22.0597C13.8202 22.2044 13.6434 22.3183 13.4497 22.3945C13.256 22.4708 13.049 22.5081 12.8409 22.5042Z" fill="#BAEAFF"/>
    </g>
    <g filter="url(#filter5_d_237_1351)">
      <path d="M54.2224 68.5105C54.642 68.5231 55.0397 68.7005 55.3295 69.0043C55.6192 69.3081 55.7775 69.7139 55.7702 70.1336C55.7439 70.5529 55.5576 70.946 55.2496 71.2318C54.9417 71.5175 54.5357 71.674 54.1157 71.6689C53.9081 71.6574 53.7048 71.605 53.5176 71.5144C53.3304 71.4239 53.163 71.2972 53.0251 71.1416C52.8872 70.986 52.7815 70.8046 52.7141 70.6079C52.6468 70.4112 52.6191 70.203 52.6327 69.9956C52.6474 69.5881 52.823 69.2031 53.1209 68.9248C53.4188 68.6464 53.8149 68.4975 54.2224 68.5105Z" fill="#BAEAFF"/>
    </g>
  </g>
  <defs>
    <filter id="filter0_d_237_1351" x="-3.58789" y="18.5545" width="59.2875" height="65.4462" filterUnits="userSpaceOnUse" color-interpolation-filters="sRGB">
      <feFlood flood-opacity="0" result="BackgroundImageFix"/>
      <feColorMatrix in="SourceAlpha" type="matrix" values="0 0 0 0 0 0 0 0 0 0 0 0 0 0 0 0 0 0 127 0" result="hardAlpha"/>
      <feOffset/>
      <feGaussianBlur stdDeviation="2"/>
      <feComposite in2="hardAlpha" operator="out"/>
      <feColorMatrix type="matrix" values="0 0 0 0 1 0 0 0 0 1 0 0 0 0 1 0 0 0 0.4 0"/>
      <feBlend mode="normal" in2="BackgroundImageFix" result="effect1_dropShadow_237_1351"/>
      <feBlend mode="normal" in="SourceGraphic" in2="effect1_dropShadow_237_1351" result="shape"/>
    </filter>
    <filter id="filter1_d_237_1351" x="10.5442" y="-4.01537" width="74.1982" height="77.3271" filterUnits="userSpaceOnUse" color-interpolation-filters="sRGB">
      <feFlood flood-opacity="0" result="BackgroundImageFix"/>
      <feColorMatrix in="SourceAlpha" type="matrix" values="0 0 0 0 0 0 0 0 0 0 0 0 0 0 0 0 0 0 127 0" result="hardAlpha"/>
      <feOffset/>
      <feGaussianBlur stdDeviation="2"/>
      <feComposite in2="hardAlpha" operator="out"/>
      <feColorMatrix type="matrix" values="0 0 0 0 1 0 0 0 0 1 0 0 0 0 1 0 0 0 0.4 0"/>
      <feBlend mode="normal" in2="BackgroundImageFix" result="effect1_dropShadow_237_1351"/>
      <feBlend mode="normal" in="SourceGraphic" in2="effect1_dropShadow_237_1351" result="shape"/>
    </filter>
    <filter id="filter2_d_237_1351" x="27.676" y="19.1889" width="23.835" height="31.6849" filterUnits="userSpaceOnUse" color-interpolation-filters="sRGB">
      <feFlood flood-opacity="0" result="BackgroundImageFix"/>
      <feColorMatrix in="SourceAlpha" type="matrix" values="0 0 0 0 0 0 0 0 0 0 0 0 0 0 0 0 0 0 127 0" result="hardAlpha"/>
      <feOffset/>
      <feGaussianBlur stdDeviation="2"/>
      <feComposite in2="hardAlpha" operator="out"/>
      <feColorMatrix type="matrix" values="0 0 0 0 1 0 0 0 0 1 0 0 0 0 1 0 0 0 0.4 0"/>
      <feBlend mode="normal" in2="BackgroundImageFix" result="effect1_dropShadow_237_1351"/>
      <feBlend mode="normal" in="SourceGraphic" in2="effect1_dropShadow_237_1351" result="shape"/>
    </filter>
    <filter id="filter3_d_237_1351" x="44.2154" y="19.1522" width="24.582" height="31.6901" filterUnits="userSpaceOnUse" color-interpolation-filters="sRGB">
      <feFlood flood-opacity="0" result="BackgroundImageFix"/>
      <feColorMatrix in="SourceAlpha" type="matrix" values="0 0 0 0 0 0 0 0 0 0 0 0 0 0 0 0 0 0 127 0" result="hardAlpha"/>
      <feOffset/>
      <feGaussianBlur stdDeviation="2"/>
      <feComposite in2="hardAlpha" operator="out"/>
      <feColorMatrix type="matrix" values="0 0 0 0 1 0 0 0 0 1 0 0 0 0 1 0 0 0 0.4 0"/>
      <feBlend mode="normal" in2="BackgroundImageFix" result="effect1_dropShadow_237_1351"/>
      <feBlend mode="normal" in="SourceGraphic" in2="effect1_dropShadow_237_1351" result="shape"/>
    </filter>
    <filter id="filter4_d_237_1351" x="7.28662" y="15.3437" width="11.1648" height="11.1608" filterUnits="userSpaceOnUse" color-interpolation-filters="sRGB">
      <feFlood flood-opacity="0" result="BackgroundImageFix"/>
      <feColorMatrix in="SourceAlpha" type="matrix" values="0 0 0 0 0 0 0 0 0 0 0 0 0 0 0 0 0 0 127 0" result="hardAlpha"/>
      <feOffset/>
      <feGaussianBlur stdDeviation="2"/>
      <feComposite in2="hardAlpha" operator="out"/>
      <feColorMatrix type="matrix" values="0 0 0 0 1 0 0 0 0 1 0 0 0 0 1 0 0 0 0.4 0"/>
      <feBlend mode="normal" in2="BackgroundImageFix" result="effect1_dropShadow_237_1351"/>
      <feBlend mode="normal" in="SourceGraphic" in2="effect1_dropShadow_237_1351" result="shape"/>
    </filter>
    <filter id="filter5_d_237_1351" x="48.6293" y="64.5097" width="11.1411" height="11.1593" filterUnits="userSpaceOnUse" color-interpolation-filters="sRGB">
      <feFlood flood-opacity="0" result="BackgroundImageFix"/>
      <feColorMatrix in="SourceAlpha" type="matrix" values="0 0 0 0 0 0 0 0 0 0 0 0 0 0 0 0 0 0 127 0" result="hardAlpha"/>
      <feOffset/>
      <feGaussianBlur stdDeviation="2"/>
      <feComposite in2="hardAlpha" operator="out"/>
      <feColorMatrix type="matrix" values="0 0 0 0 1 0 0 0 0 1 0 0 0 0 1 0 0 0 0.4 0"/>
      <feBlend mode="normal" in2="BackgroundImageFix" result="effect1_dropShadow_237_1351"/>
      <feBlend mode="normal" in="SourceGraphic" in2="effect1_dropShadow_237_1351" result="shape"/>
    </filter>
    <clipPath id="clip0_237_1351">
      <rect width="80.3347" height="80" fill="white" transform="translate(0.416321)"/>
    </clipPath>
  </defs>
</svg>