<svg width="66" height="60" viewBox="0 0 66 60" fill="none" xmlns="http://www.w3.org/2000/svg">
<g clip-path="url(#clip0_180_532)">
<g filter="url(#filter0_d_180_532)">
<path d="M32.6568 59.9489C24.3079 59.9489 15.9538 59.821 7.59717 60C2.89721 60.0997 -0.0485838 56.4584 -0.0102271 52.3287C0.130414 37.3338 0.0434725 22.3389 0.0460296 7.34402C0.0460296 2.82049 2.82305 1.86171e-06 7.34146 -0.00255525C24.2968 -0.0144884 41.2513 -0.0144884 58.2049 -0.00255525C62.7259 -0.00255525 65.4978 2.81027 65.4978 7.34658C65.4978 22.4267 65.4978 37.5068 65.4978 52.5869C65.4978 57.1105 62.7208 59.9258 58.2024 59.9335C49.6906 59.954 41.1754 59.9591 32.6568 59.9489ZM2.81793 13.6447V14.9949C2.81793 27.4327 2.87931 39.8704 2.77958 52.3057C2.75145 55.814 4.90454 57.3125 7.79151 57.3048C24.446 57.2588 41.1004 57.2844 57.7523 57.2818C61.253 57.2818 62.7489 55.7987 62.7514 52.3338C62.7514 39.8892 62.7514 27.4523 62.7514 15.023V13.6473L2.81793 13.6447ZM62.7208 10.7833C62.7208 9.23116 62.7719 7.82731 62.708 6.43624C62.6664 5.57841 62.3381 4.75936 61.7757 4.11027C61.2133 3.46118 60.4494 3.01961 59.6062 2.85629C58.9804 2.73376 58.3439 2.67465 57.7063 2.67985C41.0919 2.67133 24.4775 2.67133 7.86311 2.67985C7.18239 2.66608 6.50247 2.7339 5.83788 2.88186C4.24736 3.27566 3.14525 4.33686 2.93045 5.92227C2.71565 7.50767 2.88442 9.12121 2.88442 10.7808L62.7208 10.7833Z" fill="#BAEAFF"/>
</g>
<g filter="url(#filter1_d_180_532)">
<path d="M8.47937 7.93727C9.20385 7.93727 9.79117 7.34996 9.79117 6.62547C9.79117 5.90099 9.20385 5.31367 8.47937 5.31367C7.75488 5.31367 7.16757 5.90099 7.16757 6.62547C7.16757 7.34996 7.75488 7.93727 8.47937 7.93727Z" fill="#BAEAFF"/>
</g>
<g filter="url(#filter2_d_180_532)">
<path d="M13.3149 7.93727C14.0393 7.93727 14.6267 7.34996 14.6267 6.62547C14.6267 5.90099 14.0393 5.31367 13.3149 5.31367C12.5904 5.31367 12.0031 5.90099 12.0031 6.62547C12.0031 7.34996 12.5904 7.93727 13.3149 7.93727Z" fill="#BAEAFF"/>
</g>
<g filter="url(#filter3_d_180_532)">
<path d="M18.1504 7.93727C18.8748 7.93727 19.4622 7.34996 19.4622 6.62547C19.4622 5.90099 18.8748 5.31367 18.1504 5.31367C17.4259 5.31367 16.8386 5.90099 16.8386 6.62547C16.8386 7.34996 17.4259 7.93727 18.1504 7.93727Z" fill="#BAEAFF"/>
</g>
<g filter="url(#filter4_d_180_532)">
<path d="M35.1679 25.86C35.1321 25.0776 34.723 24.5508 34.0888 24.4818C34.0147 24.4777 33.9404 24.4777 33.8663 24.4818C33.1989 24.4818 32.7872 24.8525 32.6108 25.612C31.6084 29.9079 30.606 34.278 29.6318 38.5049L28.6575 42.737C28.5061 43.2288 28.5539 43.7605 28.7905 44.2175C28.8778 44.3477 28.9909 44.4584 29.1229 44.5429C29.2549 44.6274 29.4029 44.6837 29.5576 44.7085C30.6265 44.9335 31.0101 43.8084 31.1277 43.3123C31.8403 40.2762 32.546 37.2383 33.245 34.1988L33.92 31.2811C34.2218 29.9795 34.5235 28.6754 34.8074 27.4454L35.1679 25.86Z" fill="#0FB7FF"/>
</g>
<g filter="url(#filter5_d_180_532)">
<path d="M21.9144 36.1089L21.0169 35.0554L20.5924 34.544L21.0194 34.0479L21.917 33.0072C22.5767 32.24 23.1955 31.524 23.8118 30.785C24.4281 30.046 24.3769 29.307 23.776 28.8033C23.562 28.6214 23.2897 28.5225 23.0089 28.5246C22.7948 28.5321 22.5848 28.5853 22.393 28.6805C22.2012 28.7758 22.0319 28.9109 21.8965 29.0769C20.8737 30.2353 19.8662 31.4345 18.8842 32.5955L18.0174 33.6183C17.4599 34.2755 17.4625 34.8406 18.0174 35.5106C19.4468 37.2162 20.7228 38.6916 21.9144 40.0239C22.2647 40.4151 22.9731 40.97 23.7811 40.3026C24.3718 39.8167 24.3744 39.0394 23.7811 38.326C23.1879 37.6125 22.5716 36.8761 21.9144 36.1089Z" fill="#0FB7FF"/>
</g>
<g filter="url(#filter6_d_180_532)">
<path d="M45.5779 33.5263C44.5551 32.2835 43.4734 31.0331 42.4378 29.8236L41.957 29.2636C41.6118 28.8621 41.1413 28.5348 40.6555 28.5348C40.3818 28.5373 40.1183 28.6391 39.9139 28.8212C39.7905 28.9155 39.6877 29.034 39.6116 29.1694C39.5356 29.3048 39.4879 29.4543 39.4715 29.6088C39.4383 30.0205 39.6429 30.5089 40.0494 30.9845L43.1026 34.5644L42.2051 35.6333L41.2947 36.6945L40.7833 37.2801C40.5097 37.5972 40.2361 37.9143 39.9702 38.2364C39.7042 38.5586 38.9985 39.561 39.9037 40.3077C40.5225 40.8191 41.1822 40.6887 41.8522 39.9293C43.0668 38.5612 44.2866 37.1446 45.5805 35.6026C46.2709 34.8074 46.2683 34.3573 45.5779 33.5263Z" fill="#0FB7FF"/>
</g>
</g>
<defs>
<filter id="filter0_d_180_532" x="-4.0106" y="-4.01151" width="73.5084" height="68.0135" filterUnits="userSpaceOnUse" color-interpolation-filters="sRGB">
<feFlood flood-opacity="0" result="BackgroundImageFix"/>
<feColorMatrix in="SourceAlpha" type="matrix" values="0 0 0 0 0 0 0 0 0 0 0 0 0 0 0 0 0 0 127 0" result="hardAlpha"/>
<feOffset/>
<feGaussianBlur stdDeviation="2"/>
<feComposite in2="hardAlpha" operator="out"/>
<feColorMatrix type="matrix" values="0 0 0 0 1 0 0 0 0 1 0 0 0 0 1 0 0 0 0.4 0"/>
<feBlend mode="normal" in2="BackgroundImageFix" result="effect1_dropShadow_180_532"/>
<feBlend mode="normal" in="SourceGraphic" in2="effect1_dropShadow_180_532" result="shape"/>
</filter>
<filter id="filter1_d_180_532" x="3.16757" y="1.31367" width="10.6236" height="10.6236" filterUnits="userSpaceOnUse" color-interpolation-filters="sRGB">
<feFlood flood-opacity="0" result="BackgroundImageFix"/>
<feColorMatrix in="SourceAlpha" type="matrix" values="0 0 0 0 0 0 0 0 0 0 0 0 0 0 0 0 0 0 127 0" result="hardAlpha"/>
<feOffset/>
<feGaussianBlur stdDeviation="2"/>
<feComposite in2="hardAlpha" operator="out"/>
<feColorMatrix type="matrix" values="0 0 0 0 1 0 0 0 0 1 0 0 0 0 1 0 0 0 0.4 0"/>
<feBlend mode="normal" in2="BackgroundImageFix" result="effect1_dropShadow_180_532"/>
<feBlend mode="normal" in="SourceGraphic" in2="effect1_dropShadow_180_532" result="shape"/>
</filter>
<filter id="filter2_d_180_532" x="8.00307" y="1.31367" width="10.6236" height="10.6236" filterUnits="userSpaceOnUse" color-interpolation-filters="sRGB">
<feFlood flood-opacity="0" result="BackgroundImageFix"/>
<feColorMatrix in="SourceAlpha" type="matrix" values="0 0 0 0 0 0 0 0 0 0 0 0 0 0 0 0 0 0 127 0" result="hardAlpha"/>
<feOffset/>
<feGaussianBlur stdDeviation="2"/>
<feComposite in2="hardAlpha" operator="out"/>
<feColorMatrix type="matrix" values="0 0 0 0 1 0 0 0 0 1 0 0 0 0 1 0 0 0 0.4 0"/>
<feBlend mode="normal" in2="BackgroundImageFix" result="effect1_dropShadow_180_532"/>
<feBlend mode="normal" in="SourceGraphic" in2="effect1_dropShadow_180_532" result="shape"/>
</filter>
<filter id="filter3_d_180_532" x="12.8386" y="1.31367" width="10.6236" height="10.6236" filterUnits="userSpaceOnUse" color-interpolation-filters="sRGB">
<feFlood flood-opacity="0" result="BackgroundImageFix"/>
<feColorMatrix in="SourceAlpha" type="matrix" values="0 0 0 0 0 0 0 0 0 0 0 0 0 0 0 0 0 0 127 0" result="hardAlpha"/>
<feOffset/>
<feGaussianBlur stdDeviation="2"/>
<feComposite in2="hardAlpha" operator="out"/>
<feColorMatrix type="matrix" values="0 0 0 0 1 0 0 0 0 1 0 0 0 0 1 0 0 0 0.4 0"/>
<feBlend mode="normal" in2="BackgroundImageFix" result="effect1_dropShadow_180_532"/>
<feBlend mode="normal" in="SourceGraphic" in2="effect1_dropShadow_180_532" result="shape"/>
</filter>
<filter id="filter4_d_180_532" x="24.5706" y="20.4787" width="14.5973" height="28.2591" filterUnits="userSpaceOnUse" color-interpolation-filters="sRGB">
<feFlood flood-opacity="0" result="BackgroundImageFix"/>
<feColorMatrix in="SourceAlpha" type="matrix" values="0 0 0 0 0 0 0 0 0 0 0 0 0 0 0 0 0 0 127 0" result="hardAlpha"/>
<feOffset/>
<feGaussianBlur stdDeviation="2"/>
<feComposite in2="hardAlpha" operator="out"/>
<feColorMatrix type="matrix" values="0 0 0 0 1 0 0 0 0 1 0 0 0 0 1 0 0 0 0.4 0"/>
<feBlend mode="normal" in2="BackgroundImageFix" result="effect1_dropShadow_180_532"/>
<feBlend mode="normal" in="SourceGraphic" in2="effect1_dropShadow_180_532" result="shape"/>
</filter>
<filter id="filter5_d_180_532" x="13.6003" y="24.5245" width="14.6507" height="20.0894" filterUnits="userSpaceOnUse" color-interpolation-filters="sRGB">
<feFlood flood-opacity="0" result="BackgroundImageFix"/>
<feColorMatrix in="SourceAlpha" type="matrix" values="0 0 0 0 0 0 0 0 0 0 0 0 0 0 0 0 0 0 127 0" result="hardAlpha"/>
<feOffset/>
<feGaussianBlur stdDeviation="2"/>
<feComposite in2="hardAlpha" operator="out"/>
<feColorMatrix type="matrix" values="0 0 0 0 1 0 0 0 0 1 0 0 0 0 1 0 0 0 0.4 0"/>
<feBlend mode="normal" in2="BackgroundImageFix" result="effect1_dropShadow_180_532"/>
<feBlend mode="normal" in="SourceGraphic" in2="effect1_dropShadow_180_532" result="shape"/>
</filter>
<filter id="filter6_d_180_532" x="35.4566" y="24.5348" width="14.6404" height="20.0794" filterUnits="userSpaceOnUse" color-interpolation-filters="sRGB">
<feFlood flood-opacity="0" result="BackgroundImageFix"/>
<feColorMatrix in="SourceAlpha" type="matrix" values="0 0 0 0 0 0 0 0 0 0 0 0 0 0 0 0 0 0 127 0" result="hardAlpha"/>
<feOffset/>
<feGaussianBlur stdDeviation="2"/>
<feComposite in2="hardAlpha" operator="out"/>
<feColorMatrix type="matrix" values="0 0 0 0 1 0 0 0 0 1 0 0 0 0 1 0 0 0 0.4 0"/>
<feBlend mode="normal" in2="BackgroundImageFix" result="effect1_dropShadow_180_532"/>
<feBlend mode="normal" in="SourceGraphic" in2="effect1_dropShadow_180_532" result="shape"/>
</filter>
<clipPath id="clip0_180_532">
<rect width="65.5131" height="60" fill="white"/>
</clipPath>
</defs>
</svg>
