<svg width="60" height="60" viewBox="0 0 60 60" fill="none" xmlns="http://www.w3.org/2000/svg">
<g clip-path="url(#clip0_180_533)">
<g filter="url(#filter0_d_180_533)">
<path d="M59.8657 28.5556C59.7938 26.7359 59.3862 24.8635 59.0051 23.0559C58.9092 22.6148 58.8157 22.1736 58.7246 21.7325C58.6967 21.5483 58.631 21.3718 58.5316 21.2141C58.4321 21.0565 58.3011 20.9212 58.1468 20.8167C58.0092 20.7349 57.8563 20.6823 57.6975 20.6621C57.5387 20.6419 57.3775 20.6545 57.2238 20.6992C56.5549 20.8743 56.248 21.5551 56.459 22.3966L56.6124 23.0032L56.6652 23.2069C57.748 27.3073 57.8351 31.607 56.9193 35.7478C55.3035 42.8969 51.1871 48.9983 45.3254 52.9252C39.4638 56.8522 32.2619 58.3458 25.0362 57.1303C17.6545 55.886 11.0329 51.47 6.86618 45.009C4.7814 41.8063 3.38517 38.2053 2.7661 34.4343C2.14704 30.6634 2.31865 26.8049 3.27007 23.1038C4.21663 19.5561 5.85341 16.2298 8.08675 13.3152C10.3201 10.4006 13.1062 7.95498 16.2856 6.11819C19.4742 4.28586 22.9971 3.10968 26.647 2.65885C30.2968 2.20802 34 2.49164 37.5387 3.49303C38.4161 3.73277 39.0682 3.47864 39.2816 2.80257C39.3364 2.64939 39.3578 2.48622 39.3441 2.32409C39.3305 2.16195 39.2822 2.00464 39.2025 1.86279C39.0946 1.69892 38.9535 1.55959 38.7883 1.45385C38.6231 1.34811 38.4375 1.27833 38.2435 1.24905L38.1716 1.23467C35.6087 0.707235 33.3767 0.246932 30.5502 0.0359603L30.519 0.153433L29.8765 0.0071907L28.7737 0.0863057C27.7932 0.155831 26.7791 0.225355 25.7961 0.342829C24.8298 0.463313 23.8721 0.645083 22.9288 0.88704C6.847 4.88832 -2.72346 20.1406 0.673667 36.3687C4.01326 52.3403 19.781 62.6707 35.8221 59.3982C50.5782 56.3871 60.4627 43.7024 59.8657 28.5556Z" fill="#BAEAFF"/>
</g>
<g filter="url(#filter1_d_180_533)">
<path d="M34.422 12.5409C34.8701 12.6774 35.3539 12.6326 35.7694 12.4162C35.8813 12.343 35.977 12.2476 36.0504 12.1358C36.1238 12.024 36.1734 11.8983 36.1961 11.7665C36.2584 11.4716 36.4358 10.5678 34.9758 10.2178C34.0061 9.96884 33.0199 9.78938 32.0246 9.68074C29.1776 9.39961 26.3032 9.71621 23.5857 10.6103C20.8681 11.5044 18.3672 12.9562 16.2432 14.8727C14.1192 16.7893 12.419 19.1284 11.2513 21.7401C10.0837 24.3519 9.47445 27.1787 9.46259 30.0396C9.50574 30.4447 9.53929 30.8523 9.57286 31.2598C9.6279 32.1296 9.73115 32.9956 9.88213 33.8538C10.6713 37.9914 12.7201 41.7839 15.748 44.7119C18.776 47.64 22.6351 49.5605 26.7968 50.2104C30.9585 50.8603 35.2193 50.2079 38.9959 48.3424C42.7724 46.477 45.88 43.4898 47.8931 39.7898C50.3528 35.3211 51.0097 30.3848 49.811 25.1177C49.672 24.5039 49.3938 24.0556 49.0246 23.8518C48.8809 23.7769 48.7225 23.7343 48.5605 23.7273C48.3985 23.7203 48.237 23.7489 48.0873 23.8111C47.8475 23.8974 47.0971 24.1611 47.4975 25.8968C48.1806 28.7888 48.1373 31.805 47.3715 34.6762C46.6056 37.5474 45.141 40.1844 43.1082 42.352C41.0755 44.5195 38.5378 46.1503 35.7217 47.0987C32.9055 48.0472 29.8983 48.2838 26.9685 47.7876C19.7355 46.6105 14.1447 41.3362 12.3778 34.0193C10.7212 27.1651 13.4639 19.7475 19.2009 15.5592C23.708 12.2723 28.8289 11.2558 34.422 12.5409Z" fill="#BAEAFF"/>
</g>
<g filter="url(#filter2_d_180_533)">
<path d="M39.6436 18.5895C37.8911 20.3948 36.081 22.1856 34.3309 23.9405L32.6264 25.6403L31.5859 26.6736C30.7875 27.4671 29.9604 28.287 29.1693 29.107C28.8912 29.3971 28.4812 29.9508 28.8672 30.4159C29.2137 30.8055 29.6866 31.0602 30.2026 31.1352C30.2889 31.1352 30.6341 31.0129 31.2263 30.4279C32.8229 28.8552 34.4364 27.2442 35.9971 25.6883C37.7424 23.9453 39.5477 22.1449 41.3385 20.3876C41.8734 19.8889 42.5506 19.5695 43.2757 19.4742C44.6757 19.2992 46.0998 19.1481 47.4759 18.9947C48.852 18.8412 50.3049 18.6974 51.7097 18.5152C52.1363 18.4538 52.5355 18.2688 52.8581 17.983C54.836 16.065 56.9649 13.9505 59.3671 11.486C59.5702 11.2465 59.7381 10.9793 59.8657 10.6925L59.9401 10.5486C59.7291 9.49614 59.2856 9.36428 58.8468 9.32113L58.329 9.27079C56.7131 9.11495 55.0421 8.95193 53.4071 8.90158C51.82 8.85364 51.0696 8.08647 51.0457 6.48979C51.0394 4.77162 50.9015 3.05645 50.6333 1.35933C50.5542 0.896631 50.0843 0.275702 49.8134 0.186997C49.7652 0.172853 49.715 0.16638 49.6648 0.167818C49.2179 0.196254 48.7912 0.363929 48.4445 0.6473C46.1334 2.80497 43.9038 5.08731 42.0266 7.0412C41.7128 7.39138 41.5079 7.82542 41.4368 8.29025C41.2474 9.77424 41.0868 11.2894 40.9334 12.7566C40.7967 14.056 40.6553 15.3938 40.4923 16.7243C40.4117 17.4196 40.1148 18.072 39.6436 18.5895ZM43.0431 16.1729C43.0983 15.564 43.1534 14.9742 43.2037 14.3941C43.362 12.6511 43.5082 11.0065 43.6832 9.35949C43.7697 8.86012 44.0123 8.40101 44.3761 8.04811C45.0162 7.35046 45.6635 6.67919 46.4139 5.89044L47.3321 4.93147L48.4373 3.77832L48.5691 5.3702C48.6099 5.87126 48.6507 6.32916 48.689 6.77748C48.7681 7.70768 48.8376 8.51081 48.8904 9.32833C48.9719 10.5894 49.3507 10.9777 50.5854 11.0593C51.3957 11.112 52.194 11.1743 53.1194 11.2486L54.5243 11.3589L56.4278 11.5052L54.9007 12.6511C54.3719 13.0764 53.8854 13.5517 53.4479 14.0704C52.4314 15.1996 51.2758 16.4798 49.1181 16.4223C47.948 16.4262 46.7801 16.5224 45.6251 16.71C45.0449 16.7867 44.448 16.8682 43.8271 16.9329L42.9568 17.0216L43.0431 16.1729Z" fill="#0FB7FF"/>
</g>
<g filter="url(#filter3_d_180_533)">
<path d="M30.694 21.6366C31.0537 21.663 31.5451 21.6366 31.8472 21.3729C31.9511 21.2689 32.0328 21.1451 32.0876 21.0087C32.1424 20.8723 32.1691 20.7263 32.1661 20.5794C32.2092 19.769 31.7249 19.3231 30.7276 19.2512C30.4879 19.2336 30.2481 19.2248 30.0084 19.2248C27.3166 19.2443 24.7253 20.2499 22.7251 22.0514C21.6726 22.9649 20.8158 24.0819 20.2065 25.3353C19.5971 26.5886 19.2477 27.9524 19.1793 29.3443C19.1073 30.8348 19.3359 32.3246 19.8516 33.725C20.3672 35.1253 21.1594 36.4076 22.1808 37.4955C23.1777 38.5552 24.3762 39.4051 25.7059 39.9955C27.0356 40.5858 28.4699 40.9047 29.9245 40.9334C30.2625 40.8711 30.6053 40.8183 30.9458 40.7632C31.6942 40.6638 32.4351 40.514 33.1634 40.3149C37.565 38.9939 40.8974 34.5395 40.7488 30.1762C40.7248 29.457 40.4779 29.0494 40.0176 28.9775C39.5443 28.9189 39.066 29.0376 38.675 29.3107C38.6079 29.3659 38.4185 29.6967 38.3634 30.5286C38.2186 32.7095 37.2354 34.7498 35.6198 36.2219C34.0043 37.694 31.8816 38.4838 29.6967 38.4257C25.2471 38.3226 21.5983 34.5898 21.5647 30.1139C21.5629 28.9443 21.8031 27.7869 22.2701 26.7146C22.7372 25.6423 23.421 24.6782 24.2787 23.8829C25.1363 23.0876 26.1492 22.4784 27.2537 22.0935C28.3581 21.7086 29.5303 21.5563 30.6964 21.6462L30.694 21.6366Z" fill="#BAEAFF"/>
</g>
</g>
<defs>
<filter id="filter0_d_180_533" x="-4.00906" y="-3.99281" width="67.9004" height="67.9961" filterUnits="userSpaceOnUse" color-interpolation-filters="sRGB">
<feFlood flood-opacity="0" result="BackgroundImageFix"/>
<feColorMatrix in="SourceAlpha" type="matrix" values="0 0 0 0 0 0 0 0 0 0 0 0 0 0 0 0 0 0 127 0" result="hardAlpha"/>
<feOffset/>
<feGaussianBlur stdDeviation="2"/>
<feComposite in2="hardAlpha" operator="out"/>
<feColorMatrix type="matrix" values="0 0 0 0 1 0 0 0 0 1 0 0 0 0 1 0 0 0 0.4 0"/>
<feBlend mode="normal" in2="BackgroundImageFix" result="effect1_dropShadow_180_533"/>
<feBlend mode="normal" in="SourceGraphic" in2="effect1_dropShadow_180_533" result="shape"/>
</filter>
<filter id="filter1_d_180_533" x="5.46259" y="5.58131" width="48.931" height="48.8737" filterUnits="userSpaceOnUse" color-interpolation-filters="sRGB">
<feFlood flood-opacity="0" result="BackgroundImageFix"/>
<feColorMatrix in="SourceAlpha" type="matrix" values="0 0 0 0 0 0 0 0 0 0 0 0 0 0 0 0 0 0 127 0" result="hardAlpha"/>
<feOffset/>
<feGaussianBlur stdDeviation="2"/>
<feComposite in2="hardAlpha" operator="out"/>
<feColorMatrix type="matrix" values="0 0 0 0 1 0 0 0 0 1 0 0 0 0 1 0 0 0 0.4 0"/>
<feBlend mode="normal" in2="BackgroundImageFix" result="effect1_dropShadow_180_533"/>
<feBlend mode="normal" in="SourceGraphic" in2="effect1_dropShadow_180_533" result="shape"/>
</filter>
<filter id="filter2_d_180_533" x="24.7096" y="-3.83238" width="39.2305" height="38.9676" filterUnits="userSpaceOnUse" color-interpolation-filters="sRGB">
<feFlood flood-opacity="0" result="BackgroundImageFix"/>
<feColorMatrix in="SourceAlpha" type="matrix" values="0 0 0 0 0 0 0 0 0 0 0 0 0 0 0 0 0 0 127 0" result="hardAlpha"/>
<feOffset/>
<feGaussianBlur stdDeviation="2"/>
<feComposite in2="hardAlpha" operator="out"/>
<feColorMatrix type="matrix" values="0 0 0 0 1 0 0 0 0 1 0 0 0 0 1 0 0 0 0.4 0"/>
<feBlend mode="normal" in2="BackgroundImageFix" result="effect1_dropShadow_180_533"/>
<feBlend mode="normal" in="SourceGraphic" in2="effect1_dropShadow_180_533" result="shape"/>
</filter>
<filter id="filter3_d_180_533" x="15.1663" y="15.2248" width="29.5872" height="29.7086" filterUnits="userSpaceOnUse" color-interpolation-filters="sRGB">
<feFlood flood-opacity="0" result="BackgroundImageFix"/>
<feColorMatrix in="SourceAlpha" type="matrix" values="0 0 0 0 0 0 0 0 0 0 0 0 0 0 0 0 0 0 127 0" result="hardAlpha"/>
<feOffset/>
<feGaussianBlur stdDeviation="2"/>
<feComposite in2="hardAlpha" operator="out"/>
<feColorMatrix type="matrix" values="0 0 0 0 1 0 0 0 0 1 0 0 0 0 1 0 0 0 0.4 0"/>
<feBlend mode="normal" in2="BackgroundImageFix" result="effect1_dropShadow_180_533"/>
<feBlend mode="normal" in="SourceGraphic" in2="effect1_dropShadow_180_533" result="shape"/>
</filter>
<clipPath id="clip0_180_533">
<rect width="59.9449" height="60" fill="white"/>
</clipPath>
</defs>
</svg>
