<svg xmlns="http://www.w3.org/2000/svg" width="60" height="60" viewBox="0 0 60 60" fill="none">
	<g clip-path="url(#clip0_258_611)">
		<g filter="url(#filter0_d_258_611)">
			<path d="M43.0897 32.6C42.9525 33.0445 42.8253 33.456 42.7014 33.8691C42.6927 33.9503 42.6927 34.0323 42.7014 34.1136C46.3217 33.2874 49.7174 33.7997 52.9247 35.7197C53.6119 33.1528 53.9016 30.4958 53.784 27.8411C53.5674 22.7389 51.8549 17.8131 48.8598 13.6768C48.4533 13.1084 48.4979 12.5813 48.9507 12.269C49.3737 11.9782 49.8843 12.1038 50.2726 12.6441C52.6719 15.9385 54.3087 19.7252 55.0646 23.73C55.8787 27.9369 55.6982 32.2758 54.5374 36.4005C54.4416 36.7492 54.5374 36.9111 54.7737 37.1325C58.6998 40.9132 60.0399 45.4986 58.4652 50.6821C56.9103 55.8046 53.2734 58.9111 47.994 59.7918C43.5044 60.542 39.6031 59.1308 36.4074 55.8607C36.1496 55.5964 35.9513 55.4989 35.563 55.6079C28.8047 57.5098 22.2299 57.0108 15.8549 54.0431C15.7641 54.0002 15.6666 53.9737 15.4303 53.8878L16.587 56.0128C16.696 56.211 16.8117 56.4077 16.9075 56.6126C17.1306 57.0885 17.0513 57.5065 16.6018 57.8007C16.1904 58.0683 15.6616 57.9246 15.384 57.4503C14.9478 56.7035 14.5429 55.9368 14.1265 55.1783C13.5697 54.167 13.0046 53.1607 12.4593 52.1429C11.995 51.277 12.3585 50.6673 13.335 50.6821C15.3179 50.7102 17.3008 50.7515 19.2837 50.7978C19.9198 50.8127 20.2751 51.1283 20.2916 51.6455C20.3032 52.1858 19.9132 52.5246 19.2556 52.5312C18.5153 52.5312 17.7684 52.5312 17.0314 52.5923C22.7966 55.2196 28.737 55.6393 34.9169 53.9952C33.9637 52.4726 33.3129 50.7805 33.0002 49.0116C32.7189 47.2783 32.775 45.507 33.1654 43.795C33.1033 43.7895 33.0408 43.7895 32.9787 43.795C31.4436 44.2048 31.4436 44.2048 31.4436 45.7993C31.4436 46.2124 31.4552 46.6255 31.4436 47.0386C31.4188 47.6847 31.1346 48.0301 30.5084 48.0301C28.6918 48.0554 26.8742 48.0554 25.0555 48.0301C24.4424 48.0201 24.1351 47.6517 24.1202 47.0188C24.102 46.2339 24.1367 45.449 24.0987 44.6658C24.0827 44.5589 24.0423 44.4571 23.9807 44.3683C23.9191 44.2795 23.838 44.206 23.7435 44.1535C22.3555 43.5901 20.9526 43.0646 19.4324 42.4813C18.9499 42.9671 18.3451 43.5818 17.7354 44.1916C17.0843 44.8393 16.701 44.8525 16.0664 44.2147C14.8657 43.0206 13.6672 41.8242 12.4708 40.6257C11.909 40.0622 11.9107 39.6524 12.4708 39.0873C12.9913 38.5552 13.5085 38.0215 14.0505 37.5142C14.305 37.2763 14.3149 37.1011 14.1695 36.7773C13.6187 35.5413 13.0977 34.2899 12.6063 33.023C12.489 32.7173 12.3816 32.5901 12.0561 32.5967C11.2712 32.6132 10.4863 32.6116 9.70144 32.5967C9.019 32.5835 8.72818 32.2927 8.72487 31.6053C8.71606 29.8295 8.71606 28.0537 8.72487 26.278C8.72487 25.617 9.04544 25.2998 9.71631 25.2865C10.5012 25.2733 11.2861 25.2717 12.071 25.2865C12.3915 25.2865 12.5006 25.1808 12.6179 24.8685C13.1004 23.6027 13.6259 22.3502 14.1827 21.1142C14.3298 20.7838 14.3116 20.6185 14.0588 20.3773C13.5003 19.8568 12.9649 19.3098 12.4312 18.7629C11.9355 18.249 11.9239 17.8227 12.4312 17.3137C13.665 16.0656 14.9059 14.8241 16.154 13.5893C16.6497 13.0935 17.1008 13.0935 17.6098 13.5893C18.16 14.1197 18.7053 14.6567 19.2258 15.2136C19.4638 15.468 19.6373 15.4746 19.9611 15.3292C21.1971 14.7784 22.4491 14.259 23.717 13.771C24.0376 13.6487 24.1268 13.5116 24.1219 13.2026C24.107 12.4392 24.1086 11.6741 24.1219 10.9107C24.1318 10.2051 24.4325 9.87137 25.1348 9.86311C26.9105 9.84438 28.6863 9.84438 30.4621 9.86311C31.1561 9.86311 31.4221 10.1688 31.4337 10.8694C31.4469 11.6328 31.4486 12.3979 31.4337 13.1613C31.4337 13.4918 31.5213 13.6421 31.8666 13.7727C33.134 14.2519 34.3865 14.7757 35.6209 15.3325C35.9513 15.4812 36.1166 15.4598 36.3545 15.2086C36.8618 14.6666 37.3972 14.1478 37.9276 13.6289C38.458 13.1101 38.9058 13.0803 39.4263 13.5942C40.6689 14.8379 41.9055 16.0849 43.1359 17.3352C43.6317 17.8409 43.6317 18.2771 43.1359 18.7877C42.4998 19.4354 41.8388 20.0567 41.2076 20.6697C41.5976 21.4745 41.9875 22.1982 42.3015 22.9534C42.6154 23.7085 42.8534 24.4934 43.1277 25.2981C44.0084 25.2981 44.8941 25.2981 45.7798 25.2981C46.5465 25.2981 46.867 25.6286 46.8703 26.3953C46.8781 28.1094 46.8781 29.8235 46.8703 31.5375C46.8703 32.2828 46.5547 32.5885 45.8161 32.5934C44.9354 32.6 44.0481 32.6 43.0897 32.6ZM16.9654 42.5623C17.504 42.0021 18.0262 41.4453 18.5632 40.9099C19.2027 40.2638 19.4605 40.2324 20.2288 40.7347C21.6205 41.625 23.1564 42.2663 24.7679 42.63C25.7676 42.868 25.8949 43.0183 25.8965 44.0594C25.8965 44.793 25.8965 45.5267 25.8965 46.2769H29.6838C29.6838 45.4788 29.6838 44.7187 29.6838 43.9635C29.6838 43.0547 29.8573 42.8845 30.7199 42.6416C31.6667 42.369 32.6036 42.0517 33.5289 41.6964C33.7987 41.5707 34.0182 41.3576 34.1519 41.0917C35.297 38.8494 36.8519 36.9359 39.0727 35.7544C40.3054 35.0935 40.8903 34.188 41.1845 32.9454C41.2671 32.605 41.3646 32.2695 41.4439 31.9275C41.6438 31.0567 41.8471 30.8931 42.7658 30.8914H45.1006V27.0463C44.2348 27.0463 43.4135 27.0463 42.5923 27.0463C41.8818 27.0463 41.6009 26.8299 41.4703 26.1557C41.1177 24.4351 40.4415 22.7972 39.4775 21.3291C39.0545 20.6681 39.0876 20.3723 39.6593 19.8138C40.231 19.2553 40.8226 18.7199 41.3431 18.2242L38.5819 15.4317C38.0317 15.9935 37.4467 16.5784 36.8783 17.1749C36.457 17.6178 36.0158 17.6822 35.5019 17.3402C34.0081 16.3386 32.3323 15.6396 30.5695 15.283C29.9317 15.1491 29.6623 14.7872 29.6739 14.1593C29.6904 13.3331 29.6739 12.5202 29.6739 11.6807H25.8503C25.8503 12.5069 25.8503 13.31 25.8503 14.1098C25.8503 14.9095 25.6933 15.1458 24.9117 15.311C23.1953 15.68 21.5611 16.3604 20.09 17.3187C19.4505 17.7301 19.1696 17.6905 18.6244 17.1452C18.0444 16.5652 17.4776 15.9737 16.972 15.4498L14.2009 18.1846C14.771 18.7315 15.3576 19.3065 15.959 19.87C16.425 20.3079 16.4713 20.7722 16.1111 21.3026C15.1447 22.7692 14.4589 24.4025 14.0885 26.1193C13.9002 26.929 13.692 27.0876 12.8492 27.0942C12.071 27.0942 11.2927 27.0942 10.4913 27.0942V30.8848H12.8162C13.6837 30.8848 13.9332 31.0616 14.11 31.8763C14.4768 33.5716 15.1517 35.1852 16.1011 36.6368C16.5242 37.2862 16.4928 37.5572 15.9359 38.1008C15.3526 38.6775 14.7511 39.2344 14.1827 39.7764L16.9654 42.5623ZM57.3151 46.9081C57.3174 44.6617 56.6538 42.4651 55.4082 40.5957C54.1627 38.7263 52.391 37.268 50.317 36.405C48.243 35.5421 45.9598 35.3132 43.7557 35.7473C41.5517 36.1813 39.5258 37.2589 37.9339 38.8439C36.3421 40.4288 35.2557 42.45 34.812 44.6521C34.3683 46.8543 34.5872 49.1385 35.4411 51.2162C36.295 53.2939 37.7456 55.072 39.6096 56.3257C41.4735 57.5794 43.6673 58.2525 45.9136 58.26C47.4081 58.2639 48.8887 57.9732 50.2707 57.4045C51.6527 56.8358 52.9091 56.0003 53.968 54.9457C55.0269 53.8911 55.8676 52.6381 56.4419 51.2584C57.0162 49.8786 57.3129 48.3993 57.3151 46.9048V46.9081Z" fill="#BAEAFF" />
		</g>
		<g filter="url(#filter1_d_258_611)">
			<path d="M40.1069 3.98725C39.631 3.12139 39.1931 2.33485 38.7635 1.54336C38.4082 0.8824 38.5041 0.365205 39.013 0.105779C39.5219 -0.153646 39.9549 0.0462911 40.3068 0.687419C41.2322 2.36625 42.1537 4.04729 43.0713 5.73052C43.5753 6.65751 43.2084 7.28542 42.1625 7.2722C40.2226 7.24576 38.281 7.20115 36.3411 7.16149C35.9032 7.15323 35.4637 7.05078 35.3497 6.58481C35.2852 6.30886 35.3497 5.8908 35.5248 5.70078C35.7 5.51075 36.1064 5.43144 36.4154 5.41656C37.164 5.37856 37.9142 5.40335 38.7866 5.40335C37.1261 4.60195 35.3776 3.99747 33.5766 3.60224C19.3231 0.411472 5.35709 9.30299 2.32825 23.5962C0.801443 30.8039 2.20928 37.5192 6.294 43.6628C6.45923 43.9041 6.63439 44.1305 6.78971 44.3734C7.12019 44.8691 7.03757 45.3978 6.61291 45.6854C6.18824 45.9729 5.69252 45.8886 5.37857 45.3929C4.50776 44.0181 3.58738 42.6648 2.85867 41.2156C0.575067 36.6683 -0.280874 31.8185 0.0793479 26.7589C0.872496 15.7457 8.56769 5.97012 19.0934 2.59263C26.0748 0.351983 32.9041 0.796477 39.5732 3.82696C39.6674 3.86993 39.7599 3.91454 39.8557 3.9542C39.9385 3.97135 40.0225 3.98239 40.1069 3.98725Z" fill="#BAEAFF" />
		</g>
		<g filter="url(#filter2_d_258_611)">
			<path d="M36.3609 28.9367C36.3659 31.2186 35.4642 33.4091 33.8542 35.0262C32.2442 36.6433 30.0578 37.5546 27.7759 37.5597C25.4939 37.5647 23.3035 36.6631 21.6863 35.0531C20.0692 33.4431 19.1579 31.2566 19.1529 28.9747C19.1429 24.2472 23.0459 20.3459 27.7849 20.3492C30.0609 20.3509 32.2429 21.2566 33.8512 22.867C35.4594 24.4775 36.3622 26.6607 36.3609 28.9367ZM20.9407 28.9895C20.9407 29.8886 21.1181 30.7789 21.4627 31.6094C21.8072 32.4398 22.3123 33.1941 22.9488 33.8291C23.5853 34.4641 24.3408 34.9673 25.1721 35.3099C26.0034 35.6525 26.8941 35.8277 27.7932 35.8255C29.6073 35.815 31.3437 35.0881 32.6241 33.803C33.9046 32.5179 34.6253 30.7789 34.6292 28.9648C34.6274 28.0661 34.4485 27.1765 34.1026 26.3471C33.7568 25.5176 33.2508 24.7645 32.6135 24.1308C31.9763 23.4971 31.2204 22.9952 30.389 22.654C29.5576 22.3127 28.6671 22.1388 27.7684 22.142C26.8695 22.1387 25.9789 22.3138 25.1481 22.6571C24.3173 23.0003 23.5629 23.505 22.9285 24.1419C22.2941 24.7787 21.7923 25.5351 21.4522 26.3672C21.1122 27.1993 20.9406 28.0907 20.9473 28.9895H20.9407Z" fill="#BAEAFF" />
		</g>
		<g filter="url(#filter3_d_258_611)">
			<path d="M43.0184 50.0757C43.2894 49.7453 43.4909 49.4577 43.7355 49.2132C46.2108 46.728 48.6894 44.2467 51.1713 41.7692C51.3089 41.6158 51.4586 41.4738 51.6191 41.3445C51.7797 41.2083 51.9873 41.1404 52.1974 41.1556C52.4075 41.1707 52.6032 41.2676 52.7427 41.4255C53.0732 41.7559 53.088 42.1608 52.8336 42.5541C52.7362 42.6862 52.6254 42.8081 52.5031 42.9176C49.5563 45.8655 46.609 48.8133 43.6611 51.7612C42.8564 52.5659 42.3723 52.4982 41.7939 51.5001C40.905 49.9667 40.0094 48.4366 39.1385 46.8949C39.0047 46.657 38.8543 46.3116 38.9336 46.1001C39.0411 45.8175 39.3567 45.4391 39.5946 45.4259C39.7779 45.4303 39.9579 45.4751 40.1218 45.5571C40.2858 45.6391 40.4296 45.7562 40.5431 45.9002C41.2767 47.0436 41.9245 48.2416 42.6069 49.4181C42.7127 49.5899 42.8234 49.7601 43.0184 50.0757Z" fill="#0FB7FF" />
		</g>
	</g>
	<defs>
		<filter id="filter0_d_258_611" x="4.71826" y="5.84906" width="58.3916" height="58.1396" filterUnits="userSpaceOnUse" color-interpolation-filters="sRGB">
			<feFlood flood-opacity="0" result="BackgroundImageFix" />
			<feColorMatrix in="SourceAlpha" type="matrix" values="0 0 0 0 0 0 0 0 0 0 0 0 0 0 0 0 0 0 127 0" result="hardAlpha" />
			<feOffset />
			<feGaussianBlur stdDeviation="2" />
			<feComposite in2="hardAlpha" operator="out" />
			<feColorMatrix type="matrix" values="0 0 0 0 1 0 0 0 0 1 0 0 0 0 1 0 0 0 0.4 0" />
			<feBlend mode="normal" in2="BackgroundImageFix" result="effect1_dropShadow_258_611" />
			<feBlend mode="normal" in="SourceGraphic" in2="effect1_dropShadow_258_611" result="shape" />
		</filter>
		<filter id="filter1_d_258_611" x="-4" y="-4.00452" width="51.2949" height="53.8544" filterUnits="userSpaceOnUse" color-interpolation-filters="sRGB">
			<feFlood flood-opacity="0" result="BackgroundImageFix" />
			<feColorMatrix in="SourceAlpha" type="matrix" values="0 0 0 0 0 0 0 0 0 0 0 0 0 0 0 0 0 0 127 0" result="hardAlpha" />
			<feOffset />
			<feGaussianBlur stdDeviation="2" />
			<feComposite in2="hardAlpha" operator="out" />
			<feColorMatrix type="matrix" values="0 0 0 0 1 0 0 0 0 1 0 0 0 0 1 0 0 0 0.4 0" />
			<feBlend mode="normal" in2="BackgroundImageFix" result="effect1_dropShadow_258_611" />
			<feBlend mode="normal" in="SourceGraphic" in2="effect1_dropShadow_258_611" result="shape" />
		</filter>
		<filter id="filter2_d_258_611" x="15.1528" y="16.3492" width="25.208" height="25.2105" filterUnits="userSpaceOnUse" color-interpolation-filters="sRGB">
			<feFlood flood-opacity="0" result="BackgroundImageFix" />
			<feColorMatrix in="SourceAlpha" type="matrix" values="0 0 0 0 0 0 0 0 0 0 0 0 0 0 0 0 0 0 127 0" result="hardAlpha" />
			<feOffset />
			<feGaussianBlur stdDeviation="2" />
			<feComposite in2="hardAlpha" operator="out" />
			<feColorMatrix type="matrix" values="0 0 0 0 1 0 0 0 0 1 0 0 0 0 1 0 0 0 0.4 0" />
			<feBlend mode="normal" in2="BackgroundImageFix" result="effect1_dropShadow_258_611" />
			<feBlend mode="normal" in="SourceGraphic" in2="effect1_dropShadow_258_611" result="shape" />
		</filter>
		<filter id="filter3_d_258_611" x="34.9116" y="37.1535" width="22.0977" height="19.1588" filterUnits="userSpaceOnUse" color-interpolation-filters="sRGB">
			<feFlood flood-opacity="0" result="BackgroundImageFix" />
			<feColorMatrix in="SourceAlpha" type="matrix" values="0 0 0 0 0 0 0 0 0 0 0 0 0 0 0 0 0 0 127 0" result="hardAlpha" />
			<feOffset />
			<feGaussianBlur stdDeviation="2" />
			<feComposite in2="hardAlpha" operator="out" />
			<feColorMatrix type="matrix" values="0 0 0 0 1 0 0 0 0 1 0 0 0 0 1 0 0 0 0.4 0" />
			<feBlend mode="normal" in2="BackgroundImageFix" result="effect1_dropShadow_258_611" />
			<feBlend mode="normal" in="SourceGraphic" in2="effect1_dropShadow_258_611" result="shape" />
		</filter>
		<clipPath id="clip0_258_611">
			<rect width="59.1127" height="60" fill="white" />
		</clipPath>
	</defs>
</svg>
