<svg width="21" height="10" viewBox="0 0 21 10" fill="none" xmlns="http://www.w3.org/2000/svg">
<g clip-path="url(#clip0_227_310)">
<path d="M17.8468 5.8042H1.11246C0.97809 5.80992 0.843506 5.80776 0.709392 5.79775C0.514272 5.77457 0.334336 5.68092 0.203407 5.5344C0.0724777 5.38789 -0.000429792 5.1986 -0.00161184 5.00211C-0.00202361 4.80575 0.0692482 4.61599 0.198824 4.46846C0.328399 4.32092 0.507368 4.22575 0.702136 4.20082C0.836232 4.19042 0.97084 4.18827 1.1052 4.19437H17.846C17.7033 4.0404 17.6195 3.94366 17.5292 3.85418C16.7312 3.05692 15.9291 2.26369 15.1326 1.46482C14.7473 1.07869 14.7134 0.584533 15.0351 0.248378C15.3567 -0.0877767 15.8533 -0.0853583 16.2443 0.301582C17.6131 1.6505 18.9757 3.00372 20.3321 4.36124C20.7513 4.78042 20.7545 5.21412 20.3378 5.63169C18.9717 6.99996 17.5996 8.36231 16.2217 9.71875C15.8493 10.0855 15.3664 10.0888 15.0407 9.75422C14.715 9.41968 14.7408 8.92714 15.0996 8.5676C15.9057 7.75745 16.7118 6.95535 17.5236 6.14922C17.6155 6.05894 17.7001 5.9622 17.8468 5.8042Z" fill="#0FB7FF"/>
</g>
<defs>
<clipPath id="clip0_227_310">
<rect width="20.6481" height="10" fill="white"/>
</clipPath>
</defs>
</svg>
