<svg width="69" height="68" viewBox="0 0 69 68" fill="none" xmlns="http://www.w3.org/2000/svg">
<g filter="url(#filter0_d_180_535)">
<g clip-path="url(#clip0_180_535)">
<path d="M63.0454 51.3609C63.3886 51.7297 63.649 52.1675 63.8091 52.645C63.9692 53.1226 64.0254 53.6288 63.9739 54.1299C63.936 54.7528 64.0213 55.39 63.9147 55.9987C63.6281 57.6307 62.2922 58.6824 60.5465 58.699C58.6516 58.7164 56.7567 58.7164 54.8618 58.699C54.6862 58.682 54.5095 58.7166 54.3534 58.7986C54.1973 58.8807 54.0685 59.0066 53.983 59.1609C51.5836 62.8133 47.1613 64.6703 43.0328 63.7868C38.5727 62.8394 35.3371 59.5233 34.5791 55.0821C34.1124 52.4549 34.6711 49.7489 36.1401 47.5214L36.4503 47.0334C35.3892 47.3887 34.4086 47.7014 33.4422 48.052C33.3119 48.0993 33.2266 48.3267 33.165 48.4878C32.8121 49.3855 32.4545 50.2856 32.1347 51.1904C32.0616 51.4537 31.8975 51.6825 31.6715 51.836C31.4455 51.9896 31.1723 52.0579 30.9006 52.0289C28.9868 52.0052 27.0729 52.0005 25.159 52.0289C24.4485 52.0289 24.0813 51.7399 23.8563 51.1122C23.546 50.2406 23.2215 49.3737 22.8544 48.5281C22.7311 48.2754 22.5245 48.0729 22.2693 47.9548C20.8363 47.3295 19.389 46.7326 17.9371 46.1523C17.7106 46.0606 17.4591 46.0514 17.2265 46.1263C16.3145 46.4958 15.4121 46.8961 14.5239 47.3106C14.2972 47.4455 14.0301 47.4957 13.7699 47.4523C13.5097 47.409 13.2733 47.2748 13.1027 47.0737C11.7131 45.6715 10.3172 44.2748 8.91492 42.8836C8.73098 42.7241 8.60718 42.5065 8.56408 42.2669C8.52099 42.0273 8.56121 41.7802 8.67806 41.5666C9.08546 40.6689 9.49997 39.7759 9.86238 38.8593C9.95157 38.5941 9.94655 38.3063 9.84816 38.0445C9.28443 36.6075 8.69543 35.1808 8.08116 33.7643C7.96739 33.5051 7.76734 33.2934 7.51505 33.1651C6.63155 32.7837 5.722 32.4545 4.81718 32.1205C4.56271 32.0514 4.34078 31.8947 4.19044 31.6781C4.0401 31.4614 3.97099 31.1987 3.99526 30.9362C4.01737 28.9813 4.01737 27.0271 3.99526 25.0738C3.96893 24.8112 4.03694 24.5478 4.18711 24.3308C4.33728 24.1138 4.55979 23.9574 4.81481 23.8895C5.71963 23.5579 6.62682 23.2239 7.51032 22.8402C7.7618 22.713 7.96174 22.503 8.07642 22.2456C8.69069 20.8244 9.27969 19.3977 9.84343 17.9655C9.94276 17.7031 9.94861 17.4145 9.86 17.1483C9.50708 16.2506 9.10441 15.3742 8.697 14.4978C8.56547 14.2685 8.51924 14.0001 8.56649 13.7401C8.61374 13.48 8.75142 13.245 8.95519 13.0766C10.3464 11.7044 11.7289 10.3227 13.1027 8.93151C13.2648 8.7369 13.4896 8.60472 13.7385 8.55762C13.9874 8.51052 14.245 8.55143 14.467 8.67333C15.3789 9.09258 16.2956 9.50946 17.2265 9.88607C17.4594 9.9596 17.7107 9.94955 17.9371 9.85765C19.3898 9.2797 20.8347 8.68201 22.2717 8.06459C22.515 7.96014 22.7143 7.77421 22.8354 7.53875C23.2144 6.65288 23.546 5.74569 23.8776 4.84087C24.0884 4.26055 24.4461 3.97395 25.0951 3.98342C27.0492 4.00711 29.0034 4.00237 30.9575 3.98342C31.2097 3.95997 31.4622 4.02553 31.6712 4.16873C31.8801 4.31193 32.0324 4.52374 32.1015 4.76744C32.4402 5.66989 32.7671 6.57945 33.1556 7.46058C33.2898 7.72957 33.5122 7.94442 33.7856 8.06932C35.2068 8.68754 36.628 9.27733 38.061 9.8458C38.3058 9.9415 38.5763 9.94904 38.8261 9.86712C39.7214 9.50945 40.6002 9.10916 41.4742 8.69938C41.7105 8.56197 41.9877 8.51251 42.2569 8.55976C42.526 8.607 42.7698 8.74791 42.9452 8.95756C44.3032 10.3361 45.6707 11.7036 47.0476 13.06C47.2584 13.2341 47.3999 13.4778 47.4468 13.7471C47.4937 14.0163 47.4429 14.2935 47.3034 14.5286C46.8866 15.3979 46.4934 16.2814 46.1381 17.1767C46.0569 17.425 46.0644 17.6938 46.1594 17.9371C46.7279 19.3725 47.3437 20.7794 47.9098 22.2243C47.9528 22.3743 48.0321 22.5114 48.1408 22.6234C48.2495 22.7354 48.3841 22.8188 48.5328 22.8662C49.4234 23.1789 50.2927 23.5484 51.1809 23.8705C51.4442 23.9422 51.6735 24.1052 51.8276 24.3305C51.9816 24.5557 52.0505 24.8284 52.0218 25.0998C51.9981 26.8716 52.0218 28.6528 52.0218 30.4198C52.0218 30.6377 52.0218 30.8556 52.0218 31.1304C52.2823 31.1304 52.4955 31.1588 52.7111 31.1588C55.2502 31.1588 57.7894 31.2204 60.3262 31.1422C62.6641 31.0712 64.1705 32.895 63.9787 34.8373C63.9516 35.1794 63.9516 35.5232 63.9787 35.8653C64.0215 36.3343 63.9659 36.807 63.8154 37.2533C63.6649 37.6995 63.4228 38.1094 63.1046 38.4566C64.3577 40.6452 64.3624 42.7865 63.1212 45.0082C63.7424 45.9544 64.0671 47.0644 64.0536 48.1962C64.0401 49.3279 63.689 50.4299 63.0454 51.3609ZM5.96123 30.4553C6.95132 30.8367 7.93904 31.2275 8.93387 31.5947C9.15416 31.6653 9.35146 31.7938 9.50519 31.9667C9.65892 32.1396 9.76345 32.3506 9.80789 32.5776C10.2371 34.3591 10.9412 36.0628 11.8947 37.6276C12.0296 37.828 12.1082 38.0611 12.1224 38.3023C12.1366 38.5435 12.0857 38.7841 11.9752 38.999C11.5962 39.8209 11.2646 40.6571 10.8643 41.4742C10.7904 41.5918 10.7639 41.7331 10.7903 41.8695C10.8167 42.0058 10.894 42.127 11.0064 42.2085C11.9539 43.137 12.8934 44.0774 13.8251 45.0296C13.9046 45.1426 14.0248 45.2203 14.1605 45.2464C14.2961 45.2724 14.4366 45.2448 14.5523 45.1693C15.3671 44.7761 16.2103 44.4398 17.0275 44.0584C17.2411 43.9462 17.4809 43.8936 17.7218 43.9061C17.9627 43.9186 18.1958 43.9958 18.3966 44.1295C19.9616 45.0825 21.6653 45.7865 23.4465 46.2163C23.6743 46.2596 23.8861 46.3637 24.0596 46.5176C24.233 46.6714 24.3617 46.8693 24.4319 47.0903C24.7469 47.9596 25.0761 48.8241 25.4291 49.6768C25.4954 49.8403 25.7062 50.0534 25.8531 50.0558C27.3832 50.0842 28.9133 50.0724 30.4648 50.0724C30.8462 49.0776 31.2346 48.1088 31.5899 47.1282C31.6616 46.8974 31.7947 46.6904 31.9749 46.5293C32.1551 46.3683 32.3758 46.2593 32.6132 46.2139C34.357 45.7989 36.025 45.1131 37.5565 44.1816C37.7771 44.023 38.0382 43.9301 38.3094 43.9137C38.5806 43.8974 38.8509 43.9582 39.089 44.0892C39.2369 44.1802 39.4139 44.2115 39.5841 44.1769C40.6097 43.7363 41.6211 43.2649 42.6633 42.7912C42.7154 41.37 42.3577 39.7878 43.4307 38.7337C43.1489 37.8431 42.8315 37.1065 42.6988 36.339C42.6178 35.6587 42.6131 34.9715 42.6846 34.2902C42.7217 33.4785 43.0635 32.7108 43.6417 32.14C44.2199 31.5693 44.9921 31.2375 45.8041 31.2109C46.3269 31.1742 46.8517 31.1742 47.3745 31.2109C48.2912 31.2986 49.0515 30.8533 49.8497 30.5477C49.9705 30.5027 50.0676 30.2374 50.07 30.074C50.0866 28.7239 50.07 27.3737 50.089 26.026C50.1123 25.8903 50.0825 25.7509 50.0058 25.6367C49.929 25.5225 49.8112 25.4422 49.6768 25.4125C48.8052 25.1069 47.9501 24.7517 47.0713 24.4366C46.8582 24.3692 46.6673 24.2457 46.5185 24.079C46.3697 23.9122 46.2685 23.7085 46.2257 23.4892C45.7944 21.6875 45.0839 19.9644 44.12 18.3824C43.9884 18.1804 43.9134 17.9468 43.903 17.7059C43.8926 17.4651 43.9471 17.2259 44.0608 17.0133C44.4421 16.1938 44.788 15.3553 45.1717 14.5381C45.242 14.4309 45.2688 14.301 45.2468 14.1748C45.2249 14.0485 45.1556 13.9354 45.0532 13.8583C44.0868 12.9108 43.1323 11.9563 42.1896 10.9946C42.1041 10.885 41.9802 10.8121 41.843 10.7905C41.7057 10.769 41.5655 10.8004 41.4506 10.8785C40.6689 11.248 39.8683 11.5725 39.0819 11.942C38.8433 12.0707 38.5739 12.1312 38.3032 12.117C38.0325 12.1028 37.7709 12.0144 37.547 11.8615C36.0183 10.9262 34.3516 10.2379 32.6084 9.82211C32.3633 9.77524 32.1358 9.66216 31.9504 9.49515C31.765 9.32813 31.6288 9.11354 31.5567 8.87466C31.2551 8.02353 30.9291 7.18029 30.5785 6.34495C30.5122 6.18389 30.299 5.97781 30.1498 5.97545C28.622 5.94939 27.0919 5.95886 25.557 5.95886C25.1614 6.98922 24.7753 7.97932 24.4034 8.97652C24.3341 9.18777 24.2098 9.37677 24.0433 9.52413C23.8768 9.67148 23.6741 9.77187 23.456 9.81501C21.6629 10.2428 19.9467 10.9451 18.3682 11.897C18.1747 12.0248 17.9508 12.0987 17.7193 12.1112C17.4879 12.1237 17.2572 12.0743 17.0512 11.9681C16.2293 11.5891 15.3931 11.2433 14.576 10.8572C14.4606 10.7799 14.3203 10.7492 14.1832 10.7712C14.0461 10.7931 13.9224 10.8662 13.837 10.9756C12.8895 11.942 11.9231 12.8706 10.9946 13.8559C10.926 13.9498 10.8798 14.0583 10.8597 14.1728C10.8396 14.2874 10.846 14.4051 10.8785 14.5168C11.1888 15.3221 11.537 16.1156 11.916 16.8854C12.0538 17.1306 12.12 17.4096 12.1071 17.6906C12.0941 17.9716 12.0024 18.2433 11.8426 18.4748C10.9264 19.9684 10.2503 21.5965 9.83869 23.2997C9.79039 23.5766 9.66534 23.8344 9.47774 24.0438C9.29014 24.2532 9.04754 24.4057 8.77754 24.484C7.83009 24.8203 6.88263 25.2135 5.95886 25.5712L5.96123 30.4553ZM36.3982 53.2866C36.3908 55.0096 36.8945 56.6961 37.8456 58.1327C38.7968 59.5693 40.1528 60.6915 41.7419 61.3573C43.331 62.0232 45.0819 62.2027 46.7731 61.8733C48.4643 61.5438 50.0197 60.7201 51.2427 59.5064C52.4656 58.2928 53.3011 56.7436 53.6435 55.055C53.9858 53.3664 53.8196 51.6142 53.1659 50.02C52.5122 48.4259 51.4003 47.0615 49.971 46.0993C48.5417 45.1372 46.8591 44.6207 45.1362 44.6151C42.8276 44.61 40.6111 45.52 38.972 47.1457C37.333 48.7715 36.4049 50.9805 36.3911 53.289L36.3982 53.2866ZM53.3695 33.1319C50.9725 33.1319 48.5746 33.1319 46.176 33.1319C45.1362 33.1319 44.6316 33.6483 44.6221 34.6952C44.6221 35.0576 44.6221 35.42 44.6221 35.7824C44.6221 37.1207 45.0556 37.5589 46.3892 37.5613H55.39C57.0836 37.5613 58.7748 37.5613 60.4683 37.5613C61.5106 37.5613 62.0245 37.0259 62.0411 35.9956C62.0411 35.5716 62.0411 35.15 62.0411 34.726C62.0269 33.6625 61.5011 33.1366 60.4376 33.1343C58.0784 33.1311 55.72 33.1311 53.3624 33.1343L53.3695 33.1319ZM44.6293 42.642C44.8188 42.642 44.9538 42.6633 45.103 42.6633C46.4034 42.6633 47.7085 42.8031 48.8644 43.3739C49.9445 43.9021 51.0341 43.9803 52.1805 43.9708C54.9376 43.9447 57.6947 43.9708 60.4518 43.9566C61.5248 43.9566 62.0269 43.426 62.0388 42.353C62.0388 41.9717 62.0388 41.5879 62.0388 41.2066C62.0388 40.0507 61.5366 39.5485 60.3926 39.5485C57.4539 39.5485 54.5152 39.5485 51.5765 39.5485C49.7455 39.5485 47.9122 39.5485 46.0812 39.5485C45.3043 39.5485 44.7074 39.9773 44.6435 40.6476C44.5795 41.3179 44.6293 41.9503 44.6293 42.642ZM52.794 45.9462C53.8916 47.1337 54.7305 48.5364 55.2573 50.0653C55.3042 50.141 55.3684 50.2045 55.4446 50.2506C55.5207 50.2967 55.6067 50.3241 55.6955 50.3306C57.3678 50.3472 59.0401 50.3519 60.71 50.3306C61.0481 50.337 61.375 50.2097 61.6198 49.9764C61.8646 49.7431 62.0075 49.4227 62.0174 49.0847C62.0613 48.4617 62.0613 47.8364 62.0174 47.2134C62.0151 46.8851 61.8854 46.5704 61.6556 46.3358C61.4259 46.1012 61.114 45.9649 60.7858 45.9557C58.1755 45.932 55.5582 45.9439 52.7963 45.9439L52.794 45.9462ZM55.3474 56.7378C57.0457 56.7378 58.8103 56.7378 60.5749 56.7378C61.4584 56.7378 61.9961 56.2095 62.0293 55.3166C62.0506 54.7955 62.0482 54.272 62.0293 53.7485C61.9961 52.865 61.4679 52.3439 60.5726 52.3273C59.2864 52.3108 58.0002 52.3273 56.7141 52.3273H55.8613L55.3474 56.7378Z" fill="#BAEAFF"/>
<path d="M43.2934 28.0038C43.2943 31.0288 42.3976 33.986 40.7169 36.501C39.0361 39.0161 36.6469 40.9759 33.8517 42.1323C31.0565 43.2887 27.981 43.5897 25.0147 42.9972C22.0483 42.4047 19.3244 40.9454 17.1879 38.8039C15.0515 36.6624 13.5984 33.9352 13.0128 30.9674C12.4272 27.9997 12.7354 24.9249 13.8983 22.1324C15.0612 19.3399 17.0266 16.9553 19.5456 15.2804C22.0645 13.6055 25.0238 12.7157 28.0488 12.7237C32.094 12.7369 35.9693 14.3521 38.8263 17.2158C41.6834 20.0796 43.2896 23.9586 43.2934 28.0038ZM14.6897 28.397C14.7652 31.0319 15.6204 33.5853 17.1471 35.7342C18.6738 37.8832 20.8035 39.5311 23.2667 40.4697C25.73 41.4083 28.4163 41.5954 30.9859 41.0074C33.5555 40.4193 35.893 39.0825 37.7029 37.166C39.5127 35.2495 40.7137 32.8393 41.1538 30.2403C41.5939 27.6412 41.2534 24.9701 40.1755 22.5645C39.0975 20.159 37.3304 18.1271 35.0977 16.7258C32.865 15.3245 30.2669 14.6168 27.6319 14.692C25.8816 14.7405 24.1581 15.1336 22.5598 15.8488C20.9616 16.5641 19.5201 17.5874 18.3178 18.8604C17.1155 20.1333 16.176 21.6308 15.553 23.2672C14.9301 24.9036 14.6359 26.6468 14.6873 28.397H14.6897Z" fill="#BAEAFF"/>
<path d="M46.0931 59.033C46.0931 59.168 46.0931 59.3267 46.0623 59.4854C46.0428 59.7408 45.9284 59.9796 45.7417 60.155C45.555 60.3303 45.3094 60.4294 45.0533 60.4328C44.9309 60.4313 44.8101 60.4055 44.6979 60.3569C44.5856 60.3083 44.4841 60.2379 44.3992 60.1497C44.3144 60.0616 44.2479 59.9575 44.2037 59.8434C44.1594 59.7294 44.1382 59.6077 44.1413 59.4854C44.1413 59.0495 43.9566 58.9145 43.5847 58.7937C42.9906 58.6278 42.4485 58.3133 42.0096 57.8798C41.5708 57.4463 41.2496 56.9082 41.0763 56.3161C40.8845 55.6932 41.1213 55.1981 41.6827 55.0063C41.8058 54.9576 41.9382 54.9366 42.0704 54.9448C42.2025 54.953 42.3313 54.9901 42.4475 55.0536C42.5637 55.1172 42.6645 55.2055 42.7427 55.3123C42.8209 55.4192 42.8747 55.5419 42.9002 55.6719C43.2673 57.221 45.6952 57.4981 46.8677 56.553C46.9914 56.4464 47.0877 56.3115 47.1484 56.1598C47.2091 56.0082 47.2324 55.8441 47.2163 55.6816C47.2003 55.519 47.1454 55.3626 47.0563 55.2257C46.9672 55.0888 46.8464 54.9754 46.7042 54.895C46.2321 54.6359 45.7291 54.4377 45.2072 54.3052C44.634 54.1251 44.0229 54.0446 43.4686 53.8314C42.0475 53.2914 41.3369 52.2989 41.3369 50.9322C41.3369 49.5655 42.128 48.4167 43.5042 47.9004C43.9305 47.7417 44.1579 47.5782 44.1532 47.0713C44.1484 46.5645 44.5416 46.2518 45.0627 46.2139C45.1843 46.2042 45.3065 46.2192 45.4221 46.258C45.5377 46.2967 45.6443 46.3584 45.7354 46.4394C45.8266 46.5204 45.9004 46.6189 45.9525 46.7292C46.0046 46.8394 46.0339 46.959 46.0386 47.0808C46.0386 47.6043 46.2755 47.7464 46.6947 47.8956C47.1415 48.0563 47.5515 48.3049 47.9006 48.6267C48.2496 48.9485 48.5306 49.337 48.727 49.7692C49.0349 50.3945 48.8952 50.9725 48.3859 51.2354C47.8767 51.4983 47.358 51.3017 47.0003 50.674C46.8637 50.4154 46.676 50.1872 46.4486 50.0032C46.2212 49.8192 45.9589 49.6832 45.6775 49.6035C45.3961 49.5238 45.1014 49.502 44.8113 49.5394C44.5212 49.5769 44.2417 49.6728 43.9897 49.8213C43.7682 49.9228 43.5822 50.0882 43.4555 50.2963C43.3289 50.5044 43.2674 50.7457 43.2792 50.9891C43.2862 51.2135 43.3657 51.4295 43.5057 51.605C43.6458 51.7805 43.8388 51.9059 44.0561 51.9626C44.698 52.1829 45.3849 52.2776 46.0268 52.4955C46.6616 52.678 47.2688 52.9457 47.8317 53.2914C49.7455 54.6155 49.5868 57.3181 47.5498 58.4337C47.0759 58.6607 46.5896 58.8608 46.0931 59.033Z" fill="#0FB7FF"/>
<path d="M28.9962 27.0824H33.6625C33.8235 27.0824 33.9846 27.0824 34.1362 27.0824C34.3827 27.0946 34.615 27.2012 34.7851 27.3799C34.9553 27.5587 35.0501 27.7961 35.0501 28.0429C35.0501 28.2897 34.9553 28.527 34.7851 28.7058C34.615 28.8846 34.3827 28.9911 34.1362 29.0033C32.1023 29.0191 30.0692 29.0128 28.0369 28.9844C27.4021 28.9844 27.0326 28.5841 27.0255 27.9327C27.005 25.6983 27.005 23.4639 27.0255 21.2295C27.0255 20.552 27.4329 20.1731 28.0204 20.1802C28.6078 20.1873 28.9844 20.5852 28.9915 21.2579C29.0081 22.9278 28.9915 24.6 28.9915 26.2723C28.9962 26.4997 28.9962 26.72 28.9962 27.0824Z" fill="#0FB7FF"/>
<path d="M27.0066 17.2383C27.0255 16.9754 27.0255 16.7125 27.0682 16.4567C27.0913 16.2314 27.1986 16.0232 27.3685 15.8735C27.5384 15.7238 27.7585 15.6436 27.9848 15.649C28.2094 15.6242 28.4347 15.6888 28.6121 15.8289C28.7894 15.969 28.9044 16.1732 28.9323 16.3975C29.0025 16.9542 29.0025 17.5177 28.9323 18.0744C28.905 18.2989 28.7901 18.5036 28.6126 18.6437C28.4352 18.7839 28.2095 18.8483 27.9848 18.8229C27.7588 18.8284 27.5391 18.7485 27.3692 18.5993C27.1994 18.4501 27.0919 18.2424 27.0682 18.0176C27.0255 17.7642 27.0255 17.5012 27.0066 17.2383Z" fill="#0FB7FF"/>
<path d="M17.2667 27.0137C17.5273 27.0327 17.7902 27.0326 18.046 27.0753C18.2598 27.1023 18.4564 27.2061 18.5994 27.3673C18.7423 27.5285 18.8218 27.7362 18.8229 27.9517C18.8537 28.4112 18.6334 28.8399 18.1621 28.8991C17.5489 28.9809 16.9277 28.9809 16.3145 28.8991C15.8408 28.8352 15.6182 28.4254 15.649 27.9517C15.6488 27.7361 15.7271 27.5279 15.8692 27.3658C16.0112 27.2036 16.2074 27.0987 16.4211 27.0705C16.6983 27.0303 16.9849 27.0327 17.2667 27.0137Z" fill="#0FB7FF"/>
<path d="M38.6508 29.027C38.4033 29.016 38.1571 28.9859 37.9142 28.937C37.6913 28.8948 37.4931 28.7684 37.3609 28.5841C37.2286 28.3998 37.1723 28.1716 37.2036 27.9469C37.2009 27.7206 37.2864 27.502 37.4421 27.3375C37.5977 27.1731 37.8112 27.0756 38.0374 27.0658C38.518 27.0231 39.0016 27.0231 39.4822 27.0658C39.7181 27.0743 39.9417 27.1733 40.1067 27.3422C40.2716 27.5111 40.3652 27.7369 40.3681 27.973C40.3814 28.2179 40.3012 28.4588 40.1438 28.6469C39.9864 28.8351 39.7636 28.9565 39.5201 28.9868C39.2314 29.0167 38.9411 29.0302 38.6508 29.027Z" fill="#0FB7FF"/>
<path d="M29.0247 38.7811C29.0222 39.0621 28.9976 39.3425 28.9512 39.6196C28.9142 39.8402 28.7971 40.0393 28.6222 40.1788C28.4473 40.3183 28.2271 40.3882 28.0038 40.3752C27.7775 40.3877 27.5553 40.3116 27.3841 40.1631C27.213 40.0145 27.1065 39.8051 27.0871 39.5793C27.0317 39.0806 27.0254 38.5776 27.0682 38.0776C27.0756 37.841 27.176 37.6168 27.3476 37.4536C27.5192 37.2905 27.7481 37.2015 27.9848 37.206C28.2298 37.19 28.4714 37.2697 28.6587 37.4283C28.846 37.5869 28.9645 37.8121 28.9891 38.0563C29.0076 38.2928 29.0076 38.5304 28.9891 38.7669L29.0247 38.7811Z" fill="#0FB7FF"/>
<path d="M21.7908 21.0329C21.6866 21.1655 21.5279 21.5516 21.2532 21.6653C21.09 21.7218 20.9168 21.7436 20.7446 21.7293C20.5725 21.7151 20.4053 21.665 20.2536 21.5824C19.8299 21.3098 19.4703 20.9486 19.1996 20.5236C19.1167 20.3731 19.0679 20.2061 19.0569 20.0345C19.0458 19.863 19.0727 19.6911 19.1356 19.5312C19.2348 19.3923 19.3618 19.2757 19.5087 19.1888C19.6555 19.1019 19.8189 19.0467 19.9883 19.0267C20.5805 18.9556 21.7766 20.2133 21.7908 21.0329Z" fill="#0FB7FF"/>
<path d="M35.1263 34.1315C35.3698 34.2154 35.6027 34.3275 35.8203 34.4654C36.1711 34.7666 36.4996 35.0927 36.8033 35.4413C36.9651 35.6259 37.0504 35.8652 37.0418 36.1105C37.0333 36.3559 36.9314 36.5887 36.7571 36.7615C36.5828 36.9343 36.3491 37.0341 36.1037 37.0405C35.8583 37.047 35.6198 36.9596 35.4366 36.7962C35.0705 36.5182 34.7508 36.184 34.4891 35.8061C34.4038 35.6474 34.3506 35.4735 34.3327 35.2942C34.3149 35.1149 34.3326 34.9339 34.3849 34.7615C34.4749 34.4939 34.8705 34.3328 35.1263 34.1315Z" fill="#0FB7FF"/>
<path d="M35.2329 21.7885C34.4418 21.7766 33.9443 20.9831 34.3636 20.3815C34.7053 19.8888 35.1388 19.4666 35.6403 19.138C35.8772 18.9888 36.3817 19.0906 36.6754 19.2446C36.7661 19.2926 36.8458 19.3592 36.9093 19.4398C36.9728 19.5205 37.0187 19.6136 37.0441 19.713C37.0696 19.8125 37.0739 19.9162 37.0569 20.0174C37.0399 20.1187 37.0019 20.2153 36.9454 20.301C36.5168 20.8235 36.041 21.3056 35.5242 21.7411C35.4555 21.8051 35.2969 21.779 35.2329 21.7885Z" fill="#0FB7FF"/>
<path d="M21.8903 35.0789C21.8253 35.3281 21.7265 35.5671 21.5966 35.7895C21.2869 36.159 20.9462 36.5014 20.5781 36.8128C20.4049 36.9726 20.1763 37.0588 19.9406 37.0531C19.705 37.0473 19.4808 36.9501 19.3156 36.782C19.2223 36.704 19.1454 36.6083 19.0894 36.5004C19.0333 36.3925 18.9992 36.2745 18.9891 36.1533C18.979 36.0322 18.993 35.9102 19.0303 35.7945C19.0677 35.6788 19.1276 35.5716 19.2067 35.4792C19.5101 35.0784 19.8736 34.7268 20.2844 34.437C20.4377 34.3596 20.6052 34.3142 20.7767 34.3036C20.9481 34.293 21.1199 34.3174 21.2816 34.3754C21.5327 34.4749 21.689 34.8397 21.8903 35.0789Z" fill="#0FB7FF"/>
</g>
</g>
<defs>
<filter id="filter0_d_180_535" x="0" y="0" width="68.0521" height="68" filterUnits="userSpaceOnUse" color-interpolation-filters="sRGB">
<feFlood flood-opacity="0" result="BackgroundImageFix"/>
<feColorMatrix in="SourceAlpha" type="matrix" values="0 0 0 0 0 0 0 0 0 0 0 0 0 0 0 0 0 0 127 0" result="hardAlpha"/>
<feOffset/>
<feGaussianBlur stdDeviation="2"/>
<feComposite in2="hardAlpha" operator="out"/>
<feColorMatrix type="matrix" values="0 0 0 0 1 0 0 0 0 1 0 0 0 0 1 0 0 0 0.4 0"/>
<feBlend mode="normal" in2="BackgroundImageFix" result="effect1_dropShadow_180_535"/>
<feBlend mode="normal" in="SourceGraphic" in2="effect1_dropShadow_180_535" result="shape"/>
</filter>
<clipPath id="clip0_180_535">
<rect width="60.0521" height="60" fill="white" transform="translate(4 4)"/>
</clipPath>
</defs>
</svg>
