<svg width="20" height="20" viewBox="0 0 20 20" fill="none" xmlns="http://www.w3.org/2000/svg">
<g clip-path="url(#clip0_237_1308)">
<path d="M-0.0010376 9.84321C0.143762 9.51924 0.390128 9.39684 0.745355 9.40882C1.30424 9.42861 1.86469 9.41298 2.42461 9.41455C2.80171 9.41455 3.05641 9.65831 3.04964 10.0088C3.04496 10.3484 2.78921 10.5818 2.42461 10.5818C1.86469 10.5818 1.30476 10.5677 0.745355 10.5875C0.390649 10.6 0.144283 10.4766 -0.0010376 10.1531V9.84321Z" fill="white"/>
<path d="M20 10.1557C19.8521 10.4906 19.5932 10.6031 19.2343 10.5901C18.6817 10.5703 18.128 10.5859 17.5744 10.5844C17.1983 10.5844 16.9431 10.3396 16.9493 9.98957C16.9535 9.64996 17.2098 9.41662 17.5744 9.41662C18.1343 9.41662 18.6947 9.43068 19.2536 9.41089C19.6088 9.39839 19.8547 9.52183 20 9.84529V10.1557Z" fill="white"/>
<path d="M9.84324 20C9.52031 19.8547 9.39634 19.6088 9.40884 19.2536C9.42864 18.6947 9.41301 18.1343 9.41457 17.5744C9.41457 17.1988 9.65938 16.9425 10.0094 16.9493C10.349 16.9535 10.5823 17.2097 10.5823 17.5744C10.5823 18.1275 10.5683 18.6812 10.5881 19.2338C10.6006 19.5922 10.4901 19.8526 10.1542 19.9995L9.84324 20Z" fill="white"/>
<path d="M14.9857 10.0083C14.9722 12.7522 12.7361 14.9867 10 14.9867C7.26394 14.9867 4.99976 12.7231 5.01278 9.99062C5.02632 7.23944 7.29415 4.98411 10.0182 5.01328C12.7731 5.04245 14.9992 7.27798 14.9857 10.0083ZM10.0026 13.7981C10.7535 13.7974 11.4873 13.5742 12.1113 13.1566C12.7354 12.7391 13.2217 12.146 13.5089 11.4522C13.796 10.7584 13.8711 9.99509 13.7247 9.25865C13.5782 8.52221 13.2168 7.84569 12.6861 7.31454C12.1554 6.78339 11.4792 6.42143 10.7429 6.27439C10.0065 6.12735 9.24316 6.20183 8.54915 6.4884C7.85513 6.77498 7.26162 7.26081 6.84356 7.88452C6.42551 8.50824 6.20168 9.24185 6.20034 9.9927C6.19807 10.4928 6.29484 10.9884 6.48508 11.4509C6.67532 11.9134 6.95526 12.3337 7.30875 12.6875C7.66223 13.0413 8.08227 13.3216 8.54463 13.5122C9.00699 13.7028 9.50252 13.8 10.0026 13.7981Z" fill="white"/>
<path d="M3.40227 17.2478C3.09912 17.2285 2.91266 17.1269 2.81213 16.903C2.71161 16.679 2.73192 16.4467 2.90432 16.2686C3.35574 15.8015 3.81479 15.3423 4.28148 14.8909C4.33569 14.8389 4.39965 14.7981 4.46968 14.771C4.53972 14.7438 4.61443 14.7308 4.68953 14.7326C4.76462 14.7344 4.83861 14.7511 4.90723 14.7817C4.97585 14.8122 5.03774 14.8561 5.08933 14.9107C5.30653 15.1284 5.33674 15.4748 5.1185 15.7034C4.66119 16.1821 4.19033 16.6483 3.71218 17.1061C3.62155 17.1926 3.47206 17.2176 3.40227 17.2478Z" fill="white"/>
<path d="M17.2467 16.5977C17.2295 16.8978 17.1301 17.0806 16.9176 17.1811C16.6931 17.2853 16.4602 17.2754 16.2811 17.103C15.8034 16.6441 15.3331 16.1774 14.8747 15.6967C14.6586 15.4696 14.6924 15.1211 14.9122 14.9044C15.132 14.6878 15.4696 14.6601 15.6899 14.8695C16.1743 15.33 16.6446 15.8071 17.1071 16.2894C17.1952 16.3805 17.2181 16.5311 17.2467 16.5977Z" fill="white"/>
<path d="M3.41736 2.74911C3.49601 2.7913 3.65956 2.83922 3.76947 2.94392C4.21168 3.36425 4.63982 3.79969 5.06797 4.23513C5.32475 4.49556 5.3284 4.84766 5.08985 5.08778C4.85129 5.3279 4.49763 5.32581 4.23772 5.07007C3.8028 4.64192 3.37205 4.20909 2.94234 3.77573C2.75535 3.58718 2.7043 3.36217 2.80431 3.11424C2.90015 2.87829 3.09026 2.77151 3.41736 2.74911Z" fill="white"/>
<path d="M17.2493 3.41267C17.2082 3.49132 17.1624 3.65643 17.0577 3.76581C16.6326 4.21271 16.193 4.64607 15.7524 5.07734C15.4998 5.32475 15.1503 5.32422 14.9143 5.09244C14.6784 4.86066 14.6721 4.49866 14.9258 4.24084C15.3539 3.8054 15.7868 3.37569 16.2201 2.94546C16.4082 2.75847 16.6326 2.7043 16.8811 2.80222C17.1176 2.89597 17.2254 3.08557 17.2493 3.41267Z" fill="white"/>
<path d="M9.41455 1.52872C9.41455 1.2162 9.41195 0.903688 9.41455 0.591172C9.41186 0.513024 9.42489 0.435132 9.45285 0.362109C9.48082 0.289087 9.52315 0.222418 9.57734 0.166052C9.63154 0.109686 9.69649 0.0647688 9.76836 0.0339616C9.84023 0.00315429 9.91755 -0.0129152 9.99575 -0.0132986C10.0739 -0.0136821 10.1514 0.00162895 10.2236 0.0317298C10.2957 0.0618307 10.3611 0.10611 10.4159 0.161942C10.4706 0.217773 10.5136 0.284023 10.5423 0.356768C10.571 0.429513 10.5848 0.507273 10.5828 0.585443C10.5867 1.21048 10.5867 1.83551 10.5828 2.46054C10.5832 2.53729 10.5685 2.61335 10.5395 2.6844C10.5104 2.75545 10.4677 2.82008 10.4137 2.87462C10.3597 2.92915 10.2955 2.97251 10.2247 3.00223C10.154 3.03194 10.078 3.04743 10.0013 3.04781C9.92456 3.04818 9.84849 3.03344 9.77744 3.00442C9.70639 2.9754 9.64176 2.93267 9.58722 2.87867C9.53269 2.82467 9.48933 2.76045 9.45961 2.68969C9.4299 2.61894 9.41441 2.54301 9.41403 2.46627C9.41143 2.15375 9.41455 1.84124 9.41455 1.52872Z" fill="white"/>
</g>
<defs>
<clipPath id="clip0_237_1308">
<rect width="20.001" height="20" fill="white" transform="translate(-0.0010376)"/>
</clipPath>
</defs>
</svg>
