<svg width="23" height="23" viewBox="0 0 23 23" fill="none" xmlns="http://www.w3.org/2000/svg">
<path opacity="0.4" d="M11.5168 0.111556C13.2114 0.111556 14.9097 0.0272508 16.5966 0.111556C19.9666 0.310824 22.3742 2.07741 22.8343 5.79452C22.9527 6.82098 23.0078 7.85377 22.9991 8.887C22.9991 11.4353 22.9991 13.9837 22.9071 16.5282C22.8113 18.8044 21.9755 20.7434 19.9129 21.9889C18.9001 22.5845 17.7487 22.9042 16.5736 22.9162C13.5602 22.9814 10.5469 23.0159 7.5373 22.9929C6.56438 22.9812 5.5964 22.8526 4.65426 22.6097C3.44363 22.3107 2.3586 21.6367 1.55432 20.6842C0.750046 19.7316 0.267738 18.5492 0.176364 17.3061C0.0634311 16.2649 0.00455844 15.2187 0 14.1714C0 11.5963 4.21037e-06 9.01729 0.0881822 6.44214C0.184028 3.41097 1.91307 1.07724 4.63125 0.410458C5.74362 0.175374 6.87591 0.0470554 8.01269 0.0272503C9.16284 -0.0340629 10.3513 0.0272503 11.5206 0.0272503L11.5168 0.111556ZM20.8598 11.5005C20.8598 9.83736 20.8598 8.17807 20.8598 6.51879C20.846 6.31037 20.8192 6.10303 20.7793 5.89799C20.5378 4.07009 19.5678 2.9013 17.7775 2.46828C16.8608 2.25483 15.9237 2.14049 14.9826 2.12723C12.6018 2.08125 10.2172 2.09657 7.83635 2.12723C7.08786 2.13162 6.34074 2.19182 5.60122 2.30734C3.90284 2.57942 2.76803 3.54126 2.35781 5.23504C2.1922 5.9027 2.09838 6.58613 2.07794 7.2737C2.03193 9.44266 2.02043 11.6154 2.0281 13.7882C2.0281 14.8497 2.07027 15.915 2.16612 16.9688C2.33097 18.7967 3.40827 20.1686 5.02231 20.6093C5.6471 20.7837 6.2908 20.8815 6.93922 20.9006C9.32131 20.9593 11.7034 20.9874 14.0855 20.9849C15.0886 20.9847 16.0908 20.9271 17.0874 20.8124C18.8088 20.6131 20.0586 19.7433 20.5838 18.038C20.7592 17.4662 20.8559 16.8731 20.8714 16.2752C20.8867 14.6581 20.8598 13.0716 20.8598 11.5005Z" fill="white"/>
<path opacity="0.4" d="M17.25 11.4963C17.2507 12.6335 16.9142 13.7454 16.283 14.6914C15.6518 15.6374 14.7543 16.375 13.7039 16.8109C12.6535 17.2468 11.4974 17.3614 10.3819 17.1402C9.26636 16.9191 8.24144 16.3721 7.43677 15.5685C6.6321 14.7649 6.0838 13.7407 5.86121 12.6254C5.63863 11.5102 5.75175 10.354 6.18628 9.303C6.6208 8.25205 7.3572 7.35355 8.30237 6.72112C9.24754 6.08869 10.359 5.75074 11.4963 5.75C13.0186 5.75781 14.4764 6.36549 15.5535 7.44123C16.6306 8.51697 17.2402 9.974 17.25 11.4963ZM15.2353 11.4963C15.2353 10.7597 15.0168 10.0397 14.6076 9.42728C14.1984 8.81486 13.6168 8.33753 12.9363 8.05566C12.2558 7.77379 11.507 7.70004 10.7846 7.84373C10.0622 7.98743 9.39867 8.34211 8.87785 8.86294C8.35703 9.38376 8.00233 10.0473 7.85864 10.7697C7.71494 11.4921 7.7887 12.2409 8.07057 12.9214C8.35244 13.6019 8.82975 14.1835 9.44217 14.5927C10.0546 15.002 10.7746 15.2204 11.5112 15.2204C12.4924 15.2098 13.4307 14.8166 14.1263 14.1245C14.8219 13.4324 15.2198 12.496 15.2353 11.5149V11.4963Z" fill="white"/>
<path opacity="0.4" d="M17.2441 7.1875C17.0539 7.187 16.8657 7.14875 16.6905 7.07498C16.5152 7.00122 16.3563 6.8934 16.2232 6.7578C16.09 6.6222 15.9851 6.46151 15.9146 6.28509C15.8442 6.10866 15.8095 5.92001 15.8127 5.73009C15.8229 5.3546 15.9779 4.99756 16.2454 4.73344C16.5128 4.46932 16.872 4.31852 17.2481 4.3125C17.6321 4.32284 17.997 4.48194 18.2657 4.75616C18.5343 5.03039 18.6856 5.39822 18.6875 5.78184C18.6752 6.15692 18.518 6.51269 18.249 6.77469C17.98 7.03669 17.6199 7.18462 17.2441 7.1875Z" fill="white"/>
</svg>
