<svg width="200" height="60" viewBox="0 0 1097 310" fill="none" xmlns="http://www.w3.org/2000/svg">
<g clip-path="url(#clip0_562_1003)">
<path d="M423.91 206.8C423.136 206.811 422.367 206.665 421.65 206.371C420.933 206.078 420.284 205.642 419.74 205.09C418.622 203.973 417.989 202.46 417.98 200.88L417.88 136.53H426.75L426.9 197.89H481.51L486.8 206.81L423.91 206.8Z" fill="white"/>
<path d="M498.12 206.8V136.52H506.99V206.8H498.12Z" fill="white"/>
<path d="M601.67 206.8L565.79 146.47L535.11 197.88H561.91L567.2 206.8H519.2L561.25 136.52H570.25L612.15 206.8H601.67Z" fill="white"/>
<path d="M641.22 206.8L635.91 197.88H669.01C672.468 197.925 675.897 197.247 679.077 195.89C682.258 194.534 685.12 192.527 687.48 190C689.949 187.605 691.901 184.73 693.217 181.551C694.533 178.373 695.184 174.959 695.13 171.52C695.138 168.132 694.507 164.774 693.27 161.62C690.488 155.161 685.329 150.019 678.86 147.26C675.716 145.983 672.353 145.335 668.96 145.35H618.57V175.49H609.7V136.49H668.91C675.098 136.388 681.191 138.02 686.5 141.2C691.775 144.34 696.19 148.737 699.35 154C702.482 159.313 704.094 165.384 704.01 171.55C704.056 175.834 703.307 180.09 701.8 184.1C700.346 187.859 698.255 191.34 695.62 194.39C688.48 202.683 679.577 206.82 668.91 206.8H641.22Z" fill="white"/>
<path d="M745.8 206.8V145.44H710.75L705.41 136.52H790.98L796.32 145.44H754.91V206.8H745.8Z" fill="white"/>
<path d="M812.91 145.39L807.62 136.52H890.06L895.4 145.39H812.91ZM815.65 176.22V167.35H877.26L882.55 176.22H815.65ZM815.65 206.8V197.88H890.05L895.39 206.8H815.65Z" fill="white"/>
<path d="M935.91 206.8C930.71 206.8 926.5 205.87 923.22 204.06C919.654 202.13 916.543 199.456 914.1 196.22C908.95 189.31 906.41 181.12 906.41 171.57C906.41 162.02 908.96 153.63 914.06 146.87C919.16 140.11 926.51 136.53 935.77 136.53H981.3L986.59 145.4H936.19C933.671 145.337 931.166 145.791 928.83 146.735C926.494 147.68 924.377 149.094 922.61 150.89C918.749 154.905 916.203 160.002 915.31 165.5C914.942 167.704 914.761 169.935 914.77 172.17C914.672 177.632 916.054 183.02 918.77 187.76C920.461 190.77 922.89 193.3 925.83 195.11C928.948 197.031 932.559 198.001 936.22 197.9H991.31V206.82L935.91 206.8Z" fill="white"/>
<path d="M1087.57 206.8V175.63H1017.04V206.8H1008.12V136.52H1017.04V168H1087.57V136.52H1096.49V206.8H1087.57Z" fill="white"/>
<g opacity="0.4">
<path d="M64.57 177.93C63.797 178.713 63.2509 179.691 62.99 180.76H27.23L9.23 198.76C7.94377 197.995 6.42256 197.727 4.95221 198.004C3.48186 198.282 2.16358 199.088 1.24507 200.269C0.326572 201.45 -0.128923 202.926 -0.0358281 204.42C0.0572671 205.913 0.692545 207.321 1.75064 208.379C2.80874 209.437 4.21681 210.073 5.71028 210.166C7.20376 210.259 8.67982 209.803 9.86113 208.885C11.0424 207.966 11.8477 206.648 12.1255 205.178C12.4034 203.707 12.1347 202.186 11.37 200.9L28.45 183.82H62.95C63.2911 185.126 64.0543 186.282 65.1208 187.11C66.1874 187.937 67.4975 188.388 68.8472 188.394C70.1969 188.399 71.5105 187.958 72.5836 187.139C73.6567 186.32 74.429 185.17 74.7804 183.867C75.1317 182.564 75.0424 181.181 74.5264 179.934C74.0103 178.686 73.0965 177.645 71.927 176.971C70.7575 176.297 69.3981 176.029 68.0603 176.208C66.7225 176.386 65.4813 177.003 64.53 177.96L64.57 177.93Z" fill="url(#paint0_linear_562_1003)"/>
</g>
<path d="M243.02 0.99999C242.386 1.63557 242.029 2.49693 242.029 3.39499C242.029 4.29305 242.386 5.15441 243.02 5.78999C243.452 6.21583 243.991 6.51652 244.58 6.65999V25.66L225.26 45C224.55 44.5775 223.71 44.4289 222.898 44.5821C222.086 44.7354 221.358 45.1798 220.851 45.8321C220.344 46.4843 220.092 47.2993 220.143 48.124C220.195 48.9486 220.545 49.7262 221.13 50.3104C221.714 50.8947 222.491 51.2454 223.316 51.2968C224.141 51.3481 224.956 51.0965 225.608 50.5892C226.26 50.0819 226.705 49.3539 226.858 48.542C227.011 47.73 226.863 46.8901 226.44 46.18L246.26 26.36V6.65999C246.763 6.52958 247.229 6.28491 247.623 5.945C248.016 5.60508 248.325 5.17907 248.527 4.70009C248.729 4.22112 248.817 3.70206 248.786 3.18329C248.754 2.66452 248.604 2.15999 248.345 1.70894C248.087 1.25788 247.728 0.872445 247.297 0.582588C246.866 0.292732 246.373 0.106263 245.858 0.0376776C245.343 -0.0309079 244.819 0.0202378 244.327 0.187137C243.834 0.354037 243.387 0.632195 243.02 0.99999Z" fill="url(#paint1_linear_562_1003)"/>
<g opacity="0.8">
<path d="M384.28 297.34V271.67L320.83 237.41C321.217 235.973 321.066 234.444 320.406 233.11C319.746 231.777 318.622 230.73 317.245 230.166C315.867 229.602 314.332 229.561 312.926 230.049C311.52 230.537 310.341 231.522 309.609 232.818C308.878 234.114 308.645 235.632 308.953 237.088C309.262 238.544 310.091 239.837 311.286 240.725C312.48 241.612 313.957 242.034 315.44 241.909C316.923 241.785 318.31 241.124 319.34 240.05L381.25 273.43V297.33C379.798 297.696 378.529 298.58 377.683 299.816C376.838 301.051 376.472 302.554 376.657 304.04C376.841 305.526 377.562 306.893 378.684 307.885C379.807 308.877 381.252 309.424 382.75 309.424C384.248 309.424 385.693 308.877 386.816 307.885C387.938 306.893 388.659 305.526 388.843 304.04C389.028 302.554 388.662 301.051 387.817 299.816C386.971 298.58 385.702 297.696 384.25 297.33L384.28 297.34Z" fill="url(#paint2_linear_562_1003)"/>
</g>
<path d="M221.73 280.13H178.78L113.77 200.98H156.72L221.73 280.13Z" fill="white"/>
<path d="M221.73 121.83H178.78L113.77 200.98H156.72L221.73 121.83Z" fill="white"/>
<path d="M212.06 72.14H255.01L320.02 151.29H277.07L212.06 72.14Z" fill="white"/>
<path d="M212.06 230.44H255.01L320.02 151.29H277.07L212.06 230.44Z" fill="white"/>
</g>
<defs>
<linearGradient id="paint0_linear_562_1003" x1="52.9817" y1="208.596" x2="21.6569" y2="177.271" gradientUnits="userSpaceOnUse">
<stop stop-color="#C9D1DB"/>
<stop offset="1" stop-color="#798FA5"/>
</linearGradient>
<linearGradient id="paint1_linear_562_1003" x1="243.002" y1="34.187" x2="225.72" y2="16.9053" gradientUnits="userSpaceOnUse">
<stop stop-color="#C9D1DB"/>
<stop offset="1" stop-color="#798FA5"/>
</linearGradient>
<linearGradient id="paint2_linear_562_1003" x1="348.85" y1="311.74" x2="348.85" y2="226.22" gradientUnits="userSpaceOnUse">
<stop stop-color="#C9D1DB"/>
<stop offset="1" stop-color="#798FA5"/>
</linearGradient>
<clipPath id="clip0_562_1003">
<rect width="1096.49" height="309.41" fill="white"/>
</clipPath>
</defs>
</svg>
