<svg width="80" height="40" viewBox="0 0 80 40" fill="none" xmlns="http://www.w3.org/2000/svg">
<path d="M0 38.4573V33.0034H2.15813C3.88775 33.0034 5.05641 34.1409 5.05641 35.7304C5.05641 37.3198 3.88775 38.4573 2.15813 38.4573H0ZM0.397345 38.0989H2.12696C3.6696 38.0989 4.65906 37.1172 4.65906 35.7304C4.65906 34.3435 3.6696 33.3618 2.12696 33.3618H0.397345V38.0989Z" fill="#FCFCFC"/>
<path d="M6.50688 33.4007C6.32769 33.4007 6.18745 33.2605 6.18745 33.0891C6.18745 32.9177 6.32769 32.7696 6.50688 32.7696C6.68608 32.7696 6.82632 32.9099 6.82632 33.0813C6.82632 33.2605 6.68608 33.4007 6.50688 33.4007ZM6.31211 38.4573V34.3902H6.70166V38.4573H6.31211Z" fill="#FCFCFC"/>
<path d="M11.6314 34.3902H12.0054V38.021C12.0054 39.3845 11.3431 40 10.0342 40C9.29408 40 8.58509 39.7663 8.17217 39.3533L8.38252 39.0573C8.78766 39.4313 9.37199 39.6494 10.0264 39.6494C11.1094 39.6494 11.6158 39.1508 11.6158 38.0678V37.3821C11.2808 37.9743 10.6575 38.3093 9.92516 38.3093C8.77208 38.3093 7.89948 37.4912 7.89948 36.3303C7.89948 35.1694 8.77208 34.3591 9.92516 34.3591C10.6731 34.3591 11.3042 34.7019 11.6314 35.3096V34.3902ZM9.95632 37.9587C10.9224 37.9587 11.6236 37.2886 11.6236 36.3303C11.6236 35.372 10.9224 34.7097 9.95632 34.7097C8.99802 34.7097 8.29682 35.372 8.29682 36.3303C8.29682 37.2886 8.99802 37.9587 9.95632 37.9587Z" fill="#FCFCFC"/>
<path d="M13.8491 33.4007C13.6699 33.4007 13.5296 33.2605 13.5296 33.0891C13.5296 32.9177 13.6699 32.7696 13.8491 32.7696C14.0283 32.7696 14.1685 32.9099 14.1685 33.0813C14.1685 33.2605 14.0283 33.4007 13.8491 33.4007ZM13.6543 38.4573V34.3902H14.0438V38.4573H13.6543Z" fill="#FCFCFC"/>
<path d="M17.54 37.9275L17.7036 38.2002C17.5011 38.395 17.1738 38.4885 16.87 38.4885C16.1532 38.4885 15.7637 38.0678 15.7637 37.3821V34.7253H15.0157V34.3902H15.7637V33.502H16.1532V34.3902H17.4465V34.7253H16.1532V37.3432C16.1532 37.8652 16.4103 38.1535 16.9089 38.1535C17.1505 38.1535 17.3764 38.0756 17.54 37.9275Z" fill="#FCFCFC"/>
<path d="M20.1612 34.3591C21.1663 34.3591 21.7272 34.8733 21.7272 35.8784V38.4573H21.3533V37.7327C21.0962 38.2002 20.5975 38.4885 19.8885 38.4885C18.977 38.4885 18.4238 38.021 18.4238 37.3276C18.4238 36.7121 18.8134 36.19 19.9431 36.19H21.3377V35.8628C21.3377 35.107 20.9248 34.7019 20.1301 34.7019C19.5691 34.7019 19.0627 34.9123 18.7277 35.2161L18.5329 34.9356C18.938 34.5772 19.5301 34.3591 20.1612 34.3591ZM19.9431 38.1691C20.6287 38.1691 21.1039 37.8418 21.3377 37.2575V36.4939H19.9509C19.1094 36.4939 18.8134 36.8445 18.8134 37.312C18.8134 37.8418 19.2263 38.1691 19.9431 38.1691Z" fill="#FCFCFC"/>
<path d="M23.3323 38.4573V32.6761H23.7218V38.4573H23.3323Z" fill="#FCFCFC"/>
<path d="M31.5641 38.4573L30.8629 36.9224H27.6998L27.0064 38.4573H26.5778L29.0866 33.0034H29.4839L31.9926 38.4573H31.5641ZM27.8556 36.5874H30.7149L29.2813 33.4397L27.8556 36.5874Z" fill="#FCFCFC"/>
<path d="M36.1078 34.3902H36.4818V38.021C36.4818 39.3845 35.8196 40 34.5107 40C33.7705 40 33.0615 39.7663 32.6486 39.3533L32.859 39.0573C33.2641 39.4313 33.8484 39.6494 34.5029 39.6494C35.5858 39.6494 36.0923 39.1508 36.0923 38.0678V37.3821C35.7573 37.9743 35.134 38.3093 34.4016 38.3093C33.2485 38.3093 32.3759 37.4912 32.3759 36.3303C32.3759 35.1694 33.2485 34.3591 34.4016 34.3591C35.1495 34.3591 35.7806 34.7019 36.1078 35.3096V34.3902ZM34.4328 37.9587C35.3989 37.9587 36.1001 37.2886 36.1001 36.3303C36.1001 35.372 35.3989 34.7097 34.4328 34.7097C33.4745 34.7097 32.7733 35.372 32.7733 36.3303C32.7733 37.2886 33.4745 37.9587 34.4328 37.9587Z" fill="#FCFCFC"/>
<path d="M41.5744 36.4082C41.5744 36.4394 41.5666 36.4783 41.5666 36.5173H38.0684C38.1074 37.4834 38.8163 38.1379 39.7902 38.1379C40.3044 38.1379 40.7797 37.9509 41.0913 37.5691L41.3173 37.8262C40.9589 38.2625 40.3979 38.4885 39.7824 38.4885C38.5514 38.4885 37.6866 37.6314 37.6866 36.4238C37.6866 35.2161 38.5203 34.3591 39.6344 34.3591C40.7485 34.3591 41.5744 35.2005 41.5744 36.4082ZM39.6344 34.7019C38.7696 34.7019 38.1385 35.3252 38.0762 36.2134H41.1926C41.1381 35.333 40.4992 34.7019 39.6344 34.7019Z" fill="#FCFCFC"/>
<path d="M44.7662 34.3591C45.7557 34.3591 46.4179 34.9434 46.4179 36.081V38.4573H46.0284V36.1121C46.0284 35.1928 45.5375 34.7097 44.7117 34.7097C43.7534 34.7097 43.1691 35.3252 43.1691 36.2913V38.4573H42.7795V34.3902H43.1535V35.2707C43.4262 34.7019 43.9949 34.3591 44.7662 34.3591Z" fill="#FCFCFC"/>
<path d="M49.6421 38.4885C48.4501 38.4885 47.5853 37.6314 47.5853 36.4238C47.5853 35.2083 48.4501 34.3591 49.6421 34.3591C50.2888 34.3591 50.8497 34.6084 51.1847 35.107L50.8965 35.3174C50.6004 34.9045 50.1485 34.7097 49.6421 34.7097C48.6838 34.7097 47.9826 35.3953 47.9826 36.4238C47.9826 37.4522 48.6838 38.1379 49.6421 38.1379C50.1485 38.1379 50.6004 37.9431 50.8965 37.5302L51.1847 37.7405C50.8497 38.2314 50.2888 38.4885 49.6421 38.4885Z" fill="#FCFCFC"/>
<path d="M55.1496 34.3902H55.5469L53.4589 39.0105C53.1317 39.7585 52.7266 40 52.189 40C51.8228 40 51.48 39.8754 51.2463 39.6338L51.441 39.3378C51.6514 39.5559 51.8929 39.6572 52.1968 39.6572C52.5707 39.6572 52.8434 39.4858 53.0928 38.9326L53.3109 38.4417L51.48 34.3902H51.8929L53.5213 38.0288L55.1496 34.3902Z" fill="#FCFCFC"/>
<path d="M55.4041 12.0016V24.296C55.4038 24.688 55.3262 25.0762 55.1758 25.4381C55.0253 25.8001 54.805 26.1288 54.5274 26.4053C54.2498 26.6819 53.9204 26.9009 53.5581 27.0499C53.1957 27.1988 52.8076 27.2747 52.4159 27.2732H52.2164C51.4792 27.2732 50.7722 26.9801 50.2509 26.4583C49.7296 25.9366 49.4368 25.229 49.4368 24.4912C49.437 23.4435 49.7005 22.4126 50.2031 21.4936L55.4041 12.0016Z" fill="url(#paint0_linear_237_1302)"/>
<path d="M42.6261 21.7999L39.6447 27.2731L35.7972 20.191V9.23093L42.6261 21.7999Z" fill="url(#paint1_linear_237_1302)"/>
<path style="mix-blend-mode:multiply" d="M42.6261 21.7999L39.6447 27.2731L35.7904 20.191L30.5758 10.6129C30.9088 10.1823 31.336 9.83384 31.8245 9.59427C32.313 9.35471 32.8499 9.23042 33.394 9.23093H35.7791L42.6261 21.7999Z" fill="url(#paint2_linear_237_1302)"/>
<path d="M35.7972 9.23093V27.2731H32.8181C32.0289 27.2731 31.2721 26.9596 30.7139 26.4013C30.1557 25.843 29.8418 25.0858 29.8412 24.296V12.8049C29.8398 12.0115 30.104 11.2406 30.5916 10.6151C30.9246 10.1846 31.3518 9.83611 31.8403 9.59654C32.3289 9.35698 32.8658 9.23268 33.4098 9.23319L35.7972 9.23093Z" fill="url(#paint3_linear_237_1302)"/>
<path d="M60.3059 8.18485L56.8143 0.385689C56.7435 0.227877 56.613 0.10462 56.4515 0.042941C56.29 -0.0187379 56.1107 -0.0138042 55.9528 0.0566593L48.1604 3.55346C48.0431 3.60658 47.9442 3.69318 47.876 3.80238C47.8078 3.91158 47.7734 4.03851 47.777 4.16724C47.7806 4.29597 47.8222 4.42076 47.8964 4.52593C47.9707 4.63111 48.0743 4.71198 48.1944 4.75839L50.2349 5.54126C50.3638 5.58947 50.4808 5.66502 50.5778 5.76271C50.6748 5.86041 50.7495 5.97795 50.7969 6.10727C50.8443 6.23659 50.8632 6.37464 50.8523 6.51194C50.8413 6.64925 50.8009 6.78257 50.7337 6.90276L39.6243 27.2777H42.2724C43.2736 27.2774 44.2562 27.0076 45.1174 26.4966C45.9786 25.9856 46.6867 25.2522 47.1673 24.3731L55.81 8.56607C55.9205 8.36289 56.1009 8.20675 56.3177 8.12663C56.5345 8.0465 56.773 8.04784 56.9889 8.13039L59.4579 9.0721C59.5806 9.1259 59.7167 9.14067 59.848 9.11441C59.9793 9.08815 60.0994 9.02213 60.1919 8.92529C60.2845 8.82845 60.3451 8.70547 60.3654 8.57303C60.3858 8.44058 60.365 8.30507 60.3059 8.18485Z" fill="url(#paint4_linear_237_1302)"/>
<path style="mix-blend-mode:multiply" d="M53.7309 12.4032L47.1877 24.3686C46.7069 25.2479 45.9985 25.9816 45.1368 26.4926C44.2752 27.0037 43.2921 27.2733 42.2905 27.2731H39.6424L50.7518 6.90049C50.8434 6.7337 50.8832 6.54339 50.8663 6.35384C50.8493 6.16428 50.7763 5.98408 50.6566 5.83624C51.7176 6.66222 54.504 9.16512 53.7309 12.4032Z" fill="url(#paint5_linear_237_1302)"/>
<path d="M15.7595 27.2731H11.5764C11.0408 27.2731 10.5151 27.1284 10.0546 26.8545C9.59418 26.5805 9.21605 26.1874 8.96005 25.7165L5.95825 20.191V9.23093L15.7595 27.2731Z" fill="url(#paint6_linear_237_1302)"/>
<path style="mix-blend-mode:multiply" d="M15.7595 27.2731H11.5764C11.0408 27.2731 10.5151 27.1284 10.0546 26.8545C9.59419 26.5805 9.21607 26.1874 8.96006 25.7165L5.95826 20.191L0.743652 10.6129C1.07665 10.1823 1.50382 9.83384 1.99235 9.59427C2.48089 9.35471 3.01779 9.23042 3.56181 9.23093H5.94693L15.7595 27.2731Z" fill="url(#paint7_linear_237_1302)"/>
<path d="M5.956 9.23093V27.2731H2.97687C2.18793 27.2725 1.43145 26.9588 0.873372 26.4006C0.315297 25.8425 0.00120631 25.0856 5.71978e-06 24.296V12.8049C-0.0014175 12.0115 0.262795 11.2406 0.750456 10.6151C1.08345 10.1846 1.51062 9.83611 1.99916 9.59654C2.48769 9.35698 3.02459 9.23268 3.56861 9.23319L5.956 9.23093Z" fill="url(#paint8_linear_237_1302)"/>
<path d="M12.7781 21.7976L15.7595 27.2731L19.6069 20.1888V9.23093L12.7781 21.7976Z" fill="url(#paint9_linear_237_1302)"/>
<path style="mix-blend-mode:multiply" d="M12.7781 21.7999L15.7595 27.2731L19.6137 20.191L24.8284 10.6129C24.4954 10.1823 24.0682 9.83384 23.5797 9.59427C23.0911 9.35471 22.5542 9.23042 22.0102 9.23093H19.6251L12.7781 21.7999Z" fill="url(#paint10_linear_237_1302)"/>
<path d="M19.6069 9.23093V24.296C19.6069 25.0868 19.9208 25.8452 20.4795 26.4044C21.0382 26.9635 21.7959 27.2777 22.5861 27.2777C23.3762 27.2777 24.1339 26.9635 24.6926 26.4044C25.2513 25.8452 25.5652 25.0868 25.5652 24.296V12.8049C25.5666 12.0115 25.3024 11.2406 24.8147 10.6151C24.4817 10.1846 24.0546 9.83611 23.566 9.59654C23.0775 9.35698 22.5406 9.23268 21.9966 9.23319L19.6069 9.23093Z" fill="url(#paint11_linear_237_1302)"/>
<path d="M69.352 7.849C66.6591 7.852 64.0774 8.92401 62.1732 10.8298C60.269 12.7357 59.1979 15.3197 59.1949 18.0149C59.1979 20.7102 60.269 23.2941 62.1732 25.2C64.0774 27.1058 66.6591 28.1778 69.352 28.1808C72.045 28.1778 74.6267 27.1058 76.5309 25.2C78.4351 23.2941 79.5062 20.7102 79.5092 18.0149C79.5062 15.3197 78.4351 12.7357 76.5309 10.8298C74.6267 8.92401 72.045 7.852 69.352 7.849ZM69.352 23.3792C67.9312 23.3792 66.5685 22.8143 65.5638 21.8087C64.559 20.8031 63.9946 19.4393 63.9946 18.0172C63.9946 16.5951 64.559 15.2312 65.5638 14.2256C66.5685 13.22 67.9312 12.6551 69.352 12.6551C70.7729 12.6551 72.1356 13.22 73.1403 14.2256C74.145 15.2312 74.7095 16.5951 74.7095 18.0172C74.7107 18.7221 74.573 19.4203 74.3043 20.0719C74.0356 20.7235 73.6411 21.3157 73.1435 21.8146C72.6459 22.3135 72.0549 22.7092 71.4043 22.9793C70.7538 23.2493 70.0564 23.3883 69.352 23.3883V23.3792Z" fill="url(#paint12_linear_237_1302)"/>
<defs>
<linearGradient id="paint0_linear_237_1302" x1="58.2086" y1="15.9591" x2="47.5776" y2="26.581" gradientUnits="userSpaceOnUse">
<stop stop-color="#D1D3D4"/>
<stop offset="0.99" stop-color="white"/>
</linearGradient>
<linearGradient id="paint1_linear_237_1302" x1="35.7972" y1="18.2532" x2="42.6261" y2="18.2532" gradientUnits="userSpaceOnUse">
<stop stop-color="#D1D3D4"/>
<stop offset="0.99" stop-color="white"/>
</linearGradient>
<linearGradient id="paint2_linear_237_1302" x1="30.5917" y1="18.2532" x2="42.6261" y2="18.2532" gradientUnits="userSpaceOnUse">
<stop stop-color="#D1D3D4"/>
<stop offset="1" stop-color="#D1D3D4"/>
</linearGradient>
<linearGradient id="paint3_linear_237_1302" x1="26.2046" y1="10.7581" x2="40.0806" y2="24.6244" gradientUnits="userSpaceOnUse">
<stop stop-color="#D1D3D4"/>
<stop offset="0.29" stop-color="#E3E5E5"/>
<stop offset="0.71" stop-color="#F8F8F8"/>
<stop offset="0.99" stop-color="white"/>
</linearGradient>
<linearGradient id="paint4_linear_237_1302" x1="35.4662" y1="26.311" x2="57.7359" y2="4.06052" gradientUnits="userSpaceOnUse">
<stop stop-color="#E6E7E8"/>
<stop offset="1" stop-color="#E6E7E8"/>
</linearGradient>
<linearGradient id="paint5_linear_237_1302" x1="50.3346" y1="13.2791" x2="53.5984" y2="8.97268" gradientUnits="userSpaceOnUse">
<stop stop-color="white"/>
<stop offset="0.29" stop-color="#FBFBFB"/>
<stop offset="0.59" stop-color="#EFF0F0"/>
<stop offset="0.88" stop-color="#DBDDDD"/>
<stop offset="1" stop-color="#D1D3D4"/>
</linearGradient>
<linearGradient id="paint6_linear_237_1302" x1="5.95598" y1="18.2509" x2="15.7595" y2="18.2509" gradientUnits="userSpaceOnUse">
<stop stop-color="#D1D3D4"/>
<stop offset="0.99" stop-color="white"/>
</linearGradient>
<linearGradient id="paint7_linear_237_1302" x1="11.0777" y1="21.3256" x2="4.12238" y2="14.0816" gradientUnits="userSpaceOnUse">
<stop stop-color="white"/>
<stop offset="1" stop-color="#D1D3D4"/>
</linearGradient>
<linearGradient id="paint8_linear_237_1302" x1="-3.63662" y1="10.7581" x2="10.2417" y2="24.6244" gradientUnits="userSpaceOnUse">
<stop stop-color="#D1D3D4"/>
<stop offset="0.29" stop-color="#E3E5E5"/>
<stop offset="0.71" stop-color="#F8F8F8"/>
<stop offset="0.99" stop-color="white"/>
</linearGradient>
<linearGradient id="paint9_linear_237_1302" x1="19.6092" y1="18.2509" x2="12.7781" y2="18.2509" gradientUnits="userSpaceOnUse">
<stop stop-color="#D1D3D4"/>
<stop offset="0.99" stop-color="white"/>
</linearGradient>
<linearGradient id="paint10_linear_237_1302" x1="16.5145" y1="19.474" x2="22.1921" y2="13.5586" gradientUnits="userSpaceOnUse">
<stop stop-color="#D1D3D4"/>
<stop offset="1" stop-color="white"/>
</linearGradient>
<linearGradient id="paint11_linear_237_1302" x1="29.034" y1="10.926" x2="16.2631" y2="23.6859" gradientUnits="userSpaceOnUse">
<stop stop-color="#D1D3D4"/>
<stop offset="0.99" stop-color="white"/>
</linearGradient>
<linearGradient id="paint12_linear_237_1302" x1="59.1949" y1="18.0149" x2="79.5092" y2="18.0149" gradientUnits="userSpaceOnUse">
<stop stop-color="#D1D3D4"/>
<stop offset="0.29" stop-color="#E3E5E5"/>
<stop offset="0.71" stop-color="#F8F8F8"/>
<stop offset="0.99" stop-color="white"/>
</linearGradient>
</defs>
</svg>
