<svg width="200" height="60" viewBox="0 0 1097 310" fill="none" xmlns="http://www.w3.org/2000/svg">
<g clip-path="url(#clip0_562_985)">
<path d="M423.91 206.8C423.136 206.811 422.367 206.665 421.65 206.371C420.933 206.078 420.284 205.642 419.74 205.09C418.622 203.973 417.989 202.46 417.98 200.88L417.88 136.53H426.75L426.9 197.89H481.51L486.8 206.81L423.91 206.8Z" fill="#020288"/>
<path d="M498.12 206.8V136.52H506.99V206.8H498.12Z" fill="#020288"/>
<path d="M601.67 206.8L565.79 146.47L535.11 197.88H561.91L567.2 206.8H519.2L561.25 136.52H570.25L612.15 206.8H601.67Z" fill="#020288"/>
<path d="M641.22 206.8L635.91 197.88H669.01C672.468 197.925 675.897 197.247 679.077 195.89C682.258 194.533 685.12 192.527 687.48 190C689.949 187.605 691.901 184.73 693.217 181.551C694.533 178.373 695.184 174.959 695.13 171.52C695.138 168.132 694.507 164.774 693.27 161.62C690.488 155.161 685.329 150.019 678.86 147.26C675.716 145.983 672.353 145.335 668.96 145.35H618.57V175.49H609.7V136.49H668.91C675.098 136.388 681.191 138.02 686.5 141.2C691.775 144.34 696.19 148.737 699.35 154C702.482 159.313 704.094 165.384 704.01 171.55C704.056 175.834 703.307 180.09 701.8 184.1C700.346 187.859 698.255 191.34 695.62 194.39C688.48 202.683 679.577 206.82 668.91 206.8H641.22Z" fill="#020288"/>
<path d="M745.8 206.8V145.44H710.75L705.41 136.52H790.98L796.32 145.44H754.91V206.8H745.8Z" fill="#020288"/>
<path d="M812.91 145.39L807.62 136.52H890.06L895.4 145.39H812.91ZM815.65 176.22V167.35H877.26L882.55 176.22H815.65ZM815.65 206.8V197.88H890.05L895.39 206.8H815.65Z" fill="#020288"/>
<path d="M935.91 206.8C930.71 206.8 926.5 205.87 923.22 204.06C919.654 202.13 916.543 199.456 914.1 196.22C908.95 189.31 906.41 181.12 906.41 171.57C906.41 162.02 908.96 153.63 914.06 146.87C919.16 140.11 926.51 136.53 935.77 136.53H981.3L986.59 145.4H936.19C933.671 145.337 931.166 145.791 928.83 146.735C926.494 147.68 924.377 149.094 922.61 150.89C918.749 154.905 916.203 160.002 915.31 165.5C914.942 167.704 914.761 169.935 914.77 172.17C914.672 177.632 916.054 183.02 918.77 187.76C920.461 190.77 922.89 193.3 925.83 195.11C928.948 197.031 932.559 198.001 936.22 197.9H991.31V206.82L935.91 206.8Z" fill="#020288"/>
<path d="M1087.57 206.8V175.63H1017.04V206.8H1008.12V136.52H1017.04V168H1087.57V136.52H1096.49V206.8H1087.57Z" fill="#020288"/>
<g opacity="0.4">
<path d="M108.618 244.776C107.845 245.559 107.299 246.538 107.038 247.606H71.2777L53.2777 265.606C51.9915 264.842 50.4703 264.573 48.9999 264.851C47.5296 265.129 46.2113 265.934 45.2928 267.115C44.3743 268.297 43.9188 269.773 44.0119 271.266C44.105 272.76 44.7403 274.168 45.7984 275.226C46.8565 276.284 48.2645 276.919 49.758 277.012C51.2515 277.105 52.7276 276.65 53.9089 275.731C55.0902 274.813 55.8954 273.495 56.1732 272.024C56.4511 270.554 56.1824 269.033 55.4177 267.746L72.4977 250.666H106.998C107.339 251.972 108.102 253.129 109.169 253.956C110.235 254.783 111.545 255.235 112.895 255.24C114.245 255.245 115.558 254.804 116.631 253.986C117.704 253.167 118.477 252.016 118.828 250.713C119.179 249.41 119.09 248.027 118.574 246.78C118.058 245.533 117.144 244.491 115.975 243.817C114.805 243.144 113.446 242.875 112.108 243.054C110.77 243.233 109.529 243.849 108.578 244.806L108.618 244.776Z" fill="url(#paint0_linear_562_985)"/>
</g>
<path d="M133.883 26.9919C133.249 27.6275 132.893 28.4888 132.893 29.3869C132.893 30.2849 133.249 31.1463 133.883 31.7819C134.315 32.2077 134.854 32.5084 135.443 32.6519V51.6519L116.123 70.9919C115.413 70.5694 114.573 70.4208 113.761 70.574C112.949 70.7272 112.221 71.1717 111.714 71.8239C111.207 72.4761 110.955 73.2912 111.007 74.1158C111.058 74.9405 111.409 75.7181 111.993 76.3023C112.577 76.8866 113.355 77.2373 114.179 77.2887C115.004 77.34 115.819 77.0884 116.471 76.5811C117.123 76.0738 117.568 75.3458 117.721 74.5338C117.874 73.7219 117.726 72.882 117.303 72.1719L137.123 52.3519V32.6519C137.626 32.5215 138.093 32.2768 138.486 31.9369C138.879 31.597 139.188 31.171 139.39 30.692C139.592 30.213 139.681 29.6939 139.649 29.1752C139.618 28.6564 139.467 28.1519 139.209 27.7008C138.95 27.2498 138.592 26.8643 138.16 26.5745C137.729 26.2846 137.236 26.0981 136.721 26.0296C136.206 25.961 135.682 26.0121 135.19 26.179C134.698 26.3459 134.251 26.6241 133.883 26.9919Z" fill="url(#paint1_linear_562_985)"/>
<g opacity="0.8">
<path d="M380.46 248.629V222.959L317.01 188.699C317.397 187.262 317.246 185.733 316.586 184.4C315.926 183.066 314.802 182.019 313.424 181.455C312.047 180.892 310.511 180.85 309.106 181.338C307.7 181.826 306.52 182.811 305.789 184.107C305.058 185.403 304.824 186.921 305.133 188.377C305.441 189.833 306.271 191.126 307.465 192.014C308.66 192.902 310.137 193.323 311.62 193.199C313.103 193.075 314.49 192.413 315.52 191.339L377.43 224.719V248.619C375.978 248.985 374.709 249.869 373.863 251.105C373.017 252.341 372.652 253.843 372.836 255.329C373.021 256.815 373.742 258.183 374.864 259.174C375.986 260.166 377.432 260.713 378.93 260.713C380.427 260.713 381.873 260.166 382.995 259.174C384.118 258.183 384.839 256.815 385.023 255.329C385.207 253.843 384.842 252.341 383.996 251.105C383.15 249.869 381.882 248.985 380.43 248.619L380.46 248.629Z" fill="url(#paint2_linear_562_985)"/>
</g>
<path d="M221.73 260.13H178.78L113.77 180.98H156.72L221.73 260.13Z" fill="url(#paint3_linear_562_985)"/>
<path d="M221.73 101.83H178.78L113.77 180.98H156.72L221.73 101.83Z" fill="url(#paint4_linear_562_985)"/>
<path d="M212.06 52.14H255.01L320.02 131.29H277.07L212.06 52.14Z" fill="url(#paint5_linear_562_985)"/>
<path d="M212.06 210.44H255.01L320.02 131.29H277.07L212.06 210.44Z" fill="url(#paint6_linear_562_985)"/>
</g>
<defs>
<linearGradient id="paint0_linear_562_985" x1="97.0294" y1="275.443" x2="65.7046" y2="244.118" gradientUnits="userSpaceOnUse">
<stop stop-color="#C9D1DB"/>
<stop offset="1" stop-color="#798FA5"/>
</linearGradient>
<linearGradient id="paint1_linear_562_985" x1="133.865" y1="60.1789" x2="116.584" y2="42.8972" gradientUnits="userSpaceOnUse">
<stop stop-color="#C9D1DB"/>
<stop offset="1" stop-color="#798FA5"/>
</linearGradient>
<linearGradient id="paint2_linear_562_985" x1="345.03" y1="263.029" x2="345.03" y2="177.509" gradientUnits="userSpaceOnUse">
<stop stop-color="#C9D1DB"/>
<stop offset="1" stop-color="#798FA5"/>
</linearGradient>
<linearGradient id="paint3_linear_562_985" x1="113.77" y1="220.55" x2="221.73" y2="220.55" gradientUnits="userSpaceOnUse">
<stop stop-color="#E500FF"/>
<stop offset="1" stop-color="#A900CE"/>
</linearGradient>
<linearGradient id="paint4_linear_562_985" x1="113.77" y1="141.41" x2="221.73" y2="141.41" gradientUnits="userSpaceOnUse">
<stop stop-color="#7800A3"/>
<stop offset="1" stop-color="#A900CE"/>
</linearGradient>
<linearGradient id="paint5_linear_562_985" x1="201.04" y1="12.97" x2="295.22" y2="127.06" gradientUnits="userSpaceOnUse">
<stop stop-color="#5400C9"/>
<stop offset="0.04" stop-color="#5803CD"/>
<stop offset="0.42" stop-color="#731DE8"/>
<stop offset="0.75" stop-color="#842DF9"/>
<stop offset="1" stop-color="#8A32FF"/>
</linearGradient>
<linearGradient id="paint6_linear_562_985" x1="212.06" y1="170.86" x2="320.02" y2="170.86" gradientUnits="userSpaceOnUse">
<stop stop-color="#7212FF"/>
<stop offset="0.23" stop-color="#6A0DF0"/>
<stop offset="0.72" stop-color="#5A04D4"/>
<stop offset="1" stop-color="#5400C9"/>
</linearGradient>
<clipPath id="clip0_562_985">
<rect width="1096.49" height="309.41" fill="white"/>
</clipPath>
</defs>
</svg>
