<svg width="25" height="19" viewBox="0 0 25 19" fill="none" xmlns="http://www.w3.org/2000/svg">
<path opacity="0.4" d="M14.2383 15.647L11.6307 17.7975C10.252 18.9215 8.71493 18.603 8.08178 17.022C7.357 15.1812 6.64193 13.3379 5.93659 11.492C5.89604 11.3409 5.80817 11.2034 5.6834 11.0959C5.55864 10.9883 5.4022 10.9151 5.23263 10.8851C3.983 10.6004 2.76668 10.2707 1.54204 9.93722C1.1843 9.84731 0.845251 9.70558 0.538184 9.5176C0.373672 9.42633 0.237856 9.29872 0.143657 9.14691C0.0494581 8.99509 0 8.82413 0 8.65028C0 8.47642 0.0494581 8.30546 0.143657 8.15365C0.237856 8.00183 0.373672 7.87422 0.538184 7.78295C0.770715 7.62545 1.02749 7.49924 1.30045 7.40829C8.30672 4.99801 15.3144 2.59147 22.3234 0.188678C22.4735 0.132137 22.628 0.085801 22.7858 0.0500568C24.2062 -0.227189 25.2392 0.67948 24.9518 1.97204C24.2465 5.15912 23.5314 8.34618 22.8066 11.5333C22.3651 13.4915 21.9221 15.4484 21.4778 17.4041C21.1238 18.9589 19.62 19.4797 18.2163 18.5093C16.8708 17.5839 15.5796 16.6211 14.2383 15.647ZM12.0348 12.32C12.0795 12.3671 12.1267 12.4121 12.1764 12.4549L19.0452 17.4341C19.1344 17.496 19.2291 17.5511 19.3285 17.5989C19.3766 17.634 19.4339 17.6575 19.4949 17.6673C19.5559 17.6771 19.6187 17.6728 19.6773 17.6549C19.736 17.6369 19.7886 17.6059 19.8303 17.5646C19.872 17.5234 19.9014 17.4733 19.9158 17.4191C19.9756 17.2845 20.0216 17.1453 20.0532 17.0032C21.1946 11.9454 22.3331 6.88627 23.4689 1.82592C23.5772 1.34636 23.4231 1.23022 22.9066 1.38008C22.8149 1.40631 22.7233 1.44377 22.6358 1.47374L4.78692 7.59937L1.83363 8.62592L2.16686 8.72709C3.33318 9.03056 4.50784 9.31904 5.66999 9.64125C5.84109 9.69617 6.02326 9.71756 6.2043 9.704C6.38534 9.69043 6.56106 9.6422 6.71969 9.56256C10.6574 7.73924 14.5993 5.92591 18.5454 4.12256C19.0577 3.88653 19.4534 3.92024 19.6784 4.23496C19.9408 4.60961 19.7867 4.91309 19.4701 5.21281C17.8483 6.7514 16.2308 8.29374 14.6174 9.83982L12.0348 12.32ZM15.4671 7.10482L15.4046 7.04114L7.20704 10.8102L9.20646 15.9392C9.53969 14.7328 9.82293 13.6426 10.1478 12.5673C10.2405 12.2631 10.4102 11.9823 10.6435 11.7468C12.2472 10.1845 13.8551 8.6484 15.4671 7.10482ZM11.3642 13.5714L10.4269 16.9957L13.0803 14.804L11.3642 13.5714Z" fill="white"/>
</svg>
