<svg width="23" height="23" viewBox="0 0 23 23" fill="none" xmlns="http://www.w3.org/2000/svg">
<path opacity="0.4" d="M0 23C0.410209 21.5001 0.766748 20.0347 1.22296 18.6038C1.3736 18.1671 1.43592 17.7048 1.40631 17.2438C1.37669 16.7828 1.25572 16.3323 1.05044 15.9185C0.368829 14.3678 0.0439708 12.6837 0.0998329 10.9906C0.155695 9.29743 0.590857 7.63846 1.3732 6.13613C2.15554 4.6338 3.26508 3.32646 4.61991 2.31062C5.97475 1.29478 7.54029 0.596372 9.20096 0.266962C13.0347 -0.500268 16.4851 0.374383 19.345 3.04434C22.09 5.60306 23.2899 8.82543 22.9411 12.6002C22.4695 17.7291 18.4058 22.0064 12.9734 22.7468C10.7479 23.0499 8.48285 22.6686 6.47901 21.6535C6.3431 21.5809 6.194 21.5364 6.04055 21.5225C5.88711 21.5087 5.73245 21.5258 5.58575 21.573C3.88357 22.0333 2.17756 22.4706 0.471553 22.9118C0.341206 22.9348 0.19552 22.977 0 23ZM2.75646 20.2648C3.90657 19.9694 4.94552 19.6817 6.00363 19.4324C6.22578 19.3853 6.45736 19.4165 6.65919 19.5206C8.02836 20.3497 9.58437 20.8198 11.1833 20.8874C12.7822 20.9551 14.3723 20.6182 15.8066 19.9078C17.2408 19.1975 18.4728 18.1366 19.3886 16.8234C20.3045 15.5102 20.8745 13.9871 21.046 12.3949C21.2175 10.8028 20.9849 9.19315 20.3698 7.71483C19.7546 6.23651 18.7768 4.93732 17.5268 3.93745C16.2768 2.93758 14.7949 2.26932 13.2183 1.99453C11.6417 1.71974 10.0213 1.84727 8.50706 2.36534C7.15659 2.82257 5.9264 3.57832 4.90782 4.57646C3.88924 5.57461 3.10844 6.78951 2.62338 8.13098C2.13833 9.47245 1.96147 10.906 2.10597 12.3252C2.25046 13.7445 2.71258 15.1129 3.45802 16.3289C3.55359 16.4672 3.61551 16.626 3.63881 16.7925C3.6621 16.959 3.64614 17.1287 3.59221 17.288C3.30468 18.247 3.04782 19.2099 2.75646 20.2648Z" fill="white"/>
<path opacity="0.4" d="M14.438 17.2402C13.0418 17.0966 11.7002 16.5795 10.5332 15.7351C8.74562 14.4666 7.28175 12.7287 6.27716 10.6824C5.44635 9.04192 5.61629 7.57368 6.6548 6.2736C6.86874 6.04306 7.13639 5.88005 7.42909 5.80202C7.72178 5.724 8.0285 5.73389 8.31642 5.83066C8.46438 5.92571 8.58074 6.06931 8.64874 6.24078C8.96596 7.01591 9.27941 7.79105 9.55131 8.58258C9.61021 8.80742 9.58721 9.04824 9.4871 9.25517C9.31716 9.58737 9.03771 9.84986 8.87155 10.1862C8.81937 10.2886 8.78799 10.402 8.77952 10.5187C8.77106 10.6354 8.78569 10.7528 8.82245 10.8629C9.67106 12.4961 11.0131 13.7609 12.6215 14.4432C12.7248 14.5066 12.846 14.5261 12.9618 14.4981C13.0776 14.4701 13.1797 14.3965 13.2484 14.2915C13.509 13.9429 13.7884 13.6107 14.0263 13.2457C14.0589 13.1782 14.1035 13.1184 14.1575 13.0698C14.2116 13.0212 14.274 12.9847 14.3411 12.9626C14.4082 12.9405 14.4787 12.933 14.5485 12.9408C14.6183 12.9486 14.686 12.9713 14.7476 13.0078C15.2159 13.2374 15.6804 13.4794 16.1487 13.7173C16.2722 13.8039 16.4054 13.8729 16.5452 13.9224C17.2778 14.0577 17.3382 14.271 17.1759 15.1773C17.0478 15.7303 16.7631 16.2256 16.3621 16.5935C15.961 16.9614 15.4636 17.1833 14.9402 17.2279C14.7741 17.2689 14.6003 17.2402 14.438 17.2402Z" fill="white"/>
</svg>
